<?xml version="1.0" encoding="utf-8"?>
<!-- Generator: Adobe Illustrator 26.2.1, SVG Export Plug-In . SVG Version: 6.00 Build 0)  -->
<svg version="1.1" id="Camada_1" xmlns="http://www.w3.org/2000/svg" xmlns:xlink="http://www.w3.org/1999/xlink" x="0px" y="0px"
	 viewBox="0 0 142.5 62.2" style="enable-background:new 0 0 142.5 62.2;" xml:space="preserve">
<style type="text/css">
	.st0{fill:#F7F7F7;}
</style>
<g>
	<g>
		<g>
			<path class="st0" d="M22.5,30.5c1.6,0.3,2.7,0.9,3.5,1.8c0.7,0.9,1.1,1.7,1.3,2.5c0.2,0.8,0.1,1.5-0.1,2s-0.5,0.6-0.9,0.3
				c-0.8-0.8-1.7-0.9-2.7-0.3c-0.8,0.5-1.2,1.4-1.2,2.6s0.2,2.6,0.5,4.1s0.7,3,1,4.6c0.3,1.5,0.5,2.9,0.4,4c-0.1,1.3-0.4,2.7-1,4
				c-0.6,1.4-1.7,2.7-3.4,3.9c-1.1,0.8-2.3,1.3-3.6,1.5c-1.4,0.2-2.5,0.2-3.5,0.1c-1.3-0.2-2.2-0.7-3-1.5c-0.7-0.9-1.2-1.9-1.4-3
				c-1,0.8-2.2,1.5-3.4,2.2c-1.3,0.7-2.7,1.3-4.2,1.6c-0.1,0-0.2-0.3-0.3-1s-0.1-1.4,0.1-2.2c0.1-0.9,0.3-1.6,0.7-2.3
				c0.3-0.7,0.9-1,1.6-1c1.4,0,2.6-0.5,3.8-1.6c1.1-1,2.2-2.4,3.1-4s1.7-3.5,2.4-5.5s1.3-3.9,1.7-5.6c0.3-1,0.7-2,1.3-3
				s1.3-1.8,2-2.5s1.6-1.3,2.5-1.6C20.5,30.3,21.5,30.3,22.5,30.5z M15.7,56c0.3-0.2,0.5-0.5,0.5-1c0.1-0.6,0-1.1-0.1-1.8
				s-0.2-1.4-0.3-2.2s-0.2-1.5-0.3-2.1c-0.2,0.2-0.3,0.5-0.6,0.9c-0.2,0.3-0.5,0.7-0.7,1.1c-0.3,0.4-0.5,0.7-0.7,1s-0.3,0.5-0.5,0.5
				c-0.1,0.5-0.2,1-0.1,1.6c0.1,0.6,0.3,1,0.5,1.5c0.3,0.5,0.6,0.7,1,0.9C14.9,56.4,15.3,56.3,15.7,56z"/>
			<path class="st0" d="M48.7,37.7c0.3-0.7,0.7-1.1,1.4-1.3c0.6-0.1,1.2-0.1,1.8,0.2c0.6,0.2,1,0.7,1.4,1.3s0.3,1.2,0.1,1.8
				c-0.8,1.8-1.8,3.9-3,6.2s-2.6,4.6-4,6.7s-3.1,4.1-4.7,5.7c-1.6,1.6-3.3,2.6-5.1,3c-1.9,0.4-3.6-0.1-5.3-1.5
				c-1.6-1.4-2.7-3.5-3.3-6.3c-0.6-2.7-0.4-5.9,0.5-9.6s3-7.6,6.3-11.8c1-1.3,1.9-1.9,2.8-1.9c0.9,0,1.4,0.1,1.6,0.1
				c0.6,0.3,1.1,0.7,1.5,1.3c0.5,0.6,0.5,1.5,0.1,2.6c-0.3,1.1-0.7,2.6-1.2,4.3s-0.9,3.4-1.3,5.1C38,45.2,37.8,46.8,38,48
				c0.1,1.3,0.6,2,1.6,2.3c0.9,0.2,1.8-0.1,2.6-0.9s1.7-1.8,2.5-3.1s1.5-2.7,2.2-4.3C47.5,40.6,48.2,39.1,48.7,37.7z M49.1,6.3
				c1-0.2,1.8-0.1,2.6,0.2c0.7,0.3,1.4,0.7,1.8,1.3c0.5,0.6,0.7,1.2,0.7,2c0.1,0.8-0.1,1.6-0.5,2.4c-0.2,0.3-0.6,0.8-1.3,1.5
				s-1.3,1.2-1.6,1.6c-1,1-2.1,2.3-3.2,3.9s-2.1,3.6-2.9,6.2c-0.2,0.2-0.4,0.5-0.7,0.6c-0.3,0.2-0.6,0-0.9-0.6
				c-0.4-1.1-0.7-2.7-0.9-4.7c-0.2-1.9,0-4.2,0.7-6.7c0.8-2.5,1.7-4.4,2.8-5.6C46.8,7.2,47.9,6.5,49.1,6.3z"/>
			<path class="st0" d="M78.8,18c-1.3,2.5-2.8,5.1-4.6,7.7c-1.8,2.6-3.6,5.1-5.6,7.6s-3.9,4.7-5.8,6.8c-2,2.2-3.8,4-5.5,5.5
				c0,0.3,0.1,0.6,0.1,0.9c0.2,2.7,0.9,4.6,2.1,5.8c1.2,1.2,2.5,1.9,4,2.1c1.9,0.2,3.6-0.1,5.2-0.9c1.5-0.9,2.7-1.8,3.5-2.8
				c0.2-0.2,0.3-0.5,0.6-0.9c0.2-0.3,0.6-1,1-1.9c0.5,0,0.9,0.2,1.2,0.7c0.3,0.5,0.6,1,0.7,1.6C76,50.7,76,51.4,76,52
				c-0.1,0.7-0.2,1.3-0.6,1.6c-0.6,0.9-1.5,1.8-2.6,2.7c-1.1,1-2.3,1.8-3.7,2.6c-1.4,0.7-2.8,1.4-4.4,1.9s-3.2,0.7-5,0.7
				c-3.5,0-6.1-1-7.9-3c-1.8-2-3-4.6-3.5-7.8c-0.8,0-1.4-0.3-1.6-0.9c0.3-0.1,0.5-0.2,0.7-0.3s0.5-0.2,0.7-0.3
				c-0.3-4.3,0-8.6,1-12.9s2.5-8.3,4.4-12.1s4.1-7.3,6.5-10.4s4.8-5.7,7.2-7.9c2.4-2.1,4.6-3.6,6.6-4.5s3.5-1,4.6-0.4
				c1.5,0.7,2.4,1.8,2.8,3.3s0.5,3.2,0.2,4.9c-0.2,1.7-0.7,3.4-1.3,5C79.7,16,79.2,17.2,78.8,18z M75.6,6c-1.1,0.3-2.4,1.5-4,3.6
				c-1.6,2-3.2,4.5-4.9,7.4s-3.3,6-4.8,9.2s-2.6,6.3-3.4,9c-0.5,1.6-0.8,3.4-1,5c2.4-2.9,4.8-6.1,7.3-9.7c2.4-3.6,4.6-7,6.5-10.3
				c1.8-3.3,3.2-6.3,4.3-8.8c1-2.6,1.2-4.4,0.6-5.3L75.6,6L75.6,6z"/>
			<path class="st0" d="M113.6,34.8c0.2-0.3,0.5-0.5,0.9-0.5c0.4-0.1,0.8-0.1,1.1,0.1c0.3,0.1,0.7,0.3,0.9,0.7s0.3,0.8,0.3,1.3
				c-3.3,5.3-8.4,8.7-15.2,10c-1.3,1.6-2.6,3.2-3.9,5c-1.4,1.7-2.8,3.3-4.3,4.8c-1.5,1.4-3.1,2.7-4.7,3.8c-1.6,1-3.5,1.6-5.3,1.9
				c-1.6,0.2-3.1,0.2-4.6-0.2c-1.5-0.3-2.7-1-3.9-2.1c-0.6-0.6-1-1.8-1.3-3.5c-0.2-1.7-0.4-3.6-0.3-5.8c0-2.2,0.2-4.4,0.5-6.7
				C74,41.1,74.5,39,75,37c0.6-1.9,1.3-3.5,2.1-4.7c0.9-1.2,1.8-1.8,2.9-1.8c2.6,0,4.3,0.6,5.3,1.9c1,1.3,1.6,2.7,1.8,4.3
				c0.1,1.6,0,3.4-0.5,5s-0.9,3-1.2,3.9c-0.8,2-1.3,3.8-1.4,5.3c-0.2,1.5,0.3,2.5,1.5,2.8c0.5,0.2,1.2-0.2,2-1.2
				c0.9-0.9,1.7-2.2,2.7-3.7s1.9-3.2,3-5c1-1.8,2-3.5,3-5.2s1.7-3,2.4-4.2c0.7-1.2,1.3-1.9,1.6-2.2c0.1-0.1,0.2-0.1,0.2-0.2
				c0.1-0.1,0.1-0.1,0.2-0.2c0.2-0.1,0.2-0.1,0.3-0.1s0.1,0,0.3-0.1c1.3-0.3,2.3-0.1,3.4,0.9c1,1,1.7,2,2,3.2c1.2,0.3,2.2,0.5,3,0.5
				s1.5-0.1,2-0.2c0.6-0.1,1-0.3,1.3-0.5C113.3,35.3,113.5,35,113.6,34.8z"/>
			<path class="st0" d="M138,43.1c0.3-0.7,0.7-1,1.3-1.1s1.1,0,1.6,0.3c0.5,0.2,0.9,0.7,1.1,1.3c0.2,0.6,0.2,1.2-0.1,1.8
				c-0.8,1.8-1.6,3.5-2.6,5.3s-2,3.5-3.4,5.1c-1.3,1.5-2.7,2.9-4.4,4c-1.6,1.1-3.6,1.8-5.7,2c-1.8,0.2-3.4-0.3-4.6-1.5
				c-1.2-1.3-1.9-3.1-2-5.6c-1.5,1.8-3.1,3.4-4.7,4.7s-3.2,2.1-4.7,2.5c-1.1,0.2-2.1,0.1-3-0.3c-0.9-0.4-1.6-1.1-2.3-2
				c-0.6-1-1-2.1-1.3-3.5c-0.2-1.4-0.2-3,0.1-4.7c0.5-3,1.6-6,3.2-9.2c1.6-3.1,4-6,7-8.5c1.5-1.3,3.1-2.1,4.8-2.7
				c1.6-0.6,3.2-0.7,4.6-0.5s2.5,0.9,3.4,1.9c0.9,1,1.3,2.5,1.2,4.4c0,0.5-0.1,0.9-0.4,1.3c-0.2,0.4-0.6,0.7-0.9,0.8
				s-0.5,0.1-0.7-0.1c-0.2-0.1-0.4-0.2-0.6-0.5c-0.2-0.2-0.5-0.3-0.7-0.5c-0.3-0.1-0.7-0.2-1.1-0.2c-1.1,0-2.2,0.4-3.4,1.1
				c-1.1,0.7-2.3,1.7-3.2,2.9c-1,1.1-1.9,2.4-2.7,3.8c-0.7,1.4-1.3,2.7-1.7,3.9c-0.3,1.2-0.5,2.2-0.3,3.1s0.7,1.5,1.7,1.7
				c0.6,0.2,1.2-0.1,1.9-0.6c0.7-0.6,1.4-1.3,2.1-2.2s1.5-1.9,2.2-3.1c0.7-1.2,1.5-2.4,2.1-3.5c0.1-0.2,0.3-0.5,0.6-1
				c0.3-0.6,0.7-1.1,1.3-1.8c0.5-0.6,1-1.2,1.5-1.6c0.5-0.5,1-0.9,1.3-1c0.6-0.1,1.2-0.1,1.8,0.2c0.6,0.3,1.1,0.6,1.6,1
				c0.5,0.5,0.7,1,1,1.5c0.2,0.6,0.2,1.1,0,1.5c-0.5,1-0.8,2.1-1,3.4c-0.3,1.3-0.4,2.3-0.5,3.4c-0.1,1,0,1.9,0.2,2.5
				s0.6,0.9,1.1,0.7c1.8-0.6,3.1-1.9,4-3.8C135.6,47.8,136.6,45.7,138,43.1z"/>
		</g>
	</g>
</g>
</svg>
