<?xml version="1.0" encoding="utf-8"?>
<!-- Generator: Adobe Illustrator 26.2.1, SVG Export Plug-In . SVG Version: 6.00 Build 0)  -->
<svg version="1.1" id="Camada_1" xmlns="http://www.w3.org/2000/svg" xmlns:xlink="http://www.w3.org/1999/xlink" x="0px" y="0px"
	 viewBox="0 0 250 108.5" style="enable-background:new 0 0 250 108.5;" xml:space="preserve">
<style type="text/css">
	.st0{fill:#FFFFFF;}
</style>
<g>
	<g>
		<g>
			<path class="st0" d="M39.4,52.5c2.8,0.5,4.8,1.5,6.1,3.1c1.3,1.5,2,3,2.3,4.4c0.3,1.4,0.2,2.6-0.2,3.5c-0.4,0.9-0.9,1.1-1.5,0.5
				c-1.4-1.4-3-1.6-4.8-0.6c-1.4,0.9-2.1,2.4-2.1,4.6c0,2.2,0.3,4.6,0.8,7.2c0.6,2.6,1.2,5.3,1.8,8c0.6,2.7,0.9,5.1,0.7,7
				c-0.1,2.3-0.7,4.7-1.7,7.1c-1,2.4-3,4.7-5.9,6.9c-1.9,1.4-4,2.3-6.4,2.7c-2.4,0.4-4.4,0.4-6.2,0.2c-2.2-0.3-3.9-1.2-5.3-2.7
				c-1.3-1.5-2.1-3.3-2.4-5.2c-1.8,1.4-3.8,2.7-6,3.9c-2.2,1.2-4.7,2.2-7.4,2.9c-0.2,0-0.4-0.6-0.6-1.7c-0.1-1.2-0.1-2.5,0.1-3.9
				c0.2-1.5,0.6-2.8,1.3-4c0.6-1.2,1.6-1.8,2.9-1.8c2.4,0,4.6-0.9,6.6-2.8c2-1.8,3.8-4.2,5.4-7.1c1.6-2.9,3-6.1,4.2-9.6
				c1.2-3.5,2.2-6.8,3-9.8c0.5-1.8,1.3-3.5,2.3-5.2c1-1.7,2.2-3.1,3.5-4.4c1.3-1.3,2.8-2.2,4.4-2.8C35.9,52.2,37.6,52.1,39.4,52.5z
				 M27.4,97.4c0.5-0.3,0.8-0.9,0.9-1.8c0.1-1,0-2-0.1-3.2c-0.1-1.2-0.3-2.5-0.5-3.8c-0.2-1.3-0.4-2.6-0.6-3.7
				c-0.3,0.4-0.6,0.9-1,1.5c-0.4,0.6-0.8,1.3-1.2,2c-0.5,0.7-0.9,1.3-1.2,1.8c-0.4,0.5-0.6,0.8-0.8,0.8c-0.2,0.9-0.3,1.8-0.1,2.8
				c0.2,1,0.5,1.8,0.9,2.6c0.5,0.8,1,1.3,1.7,1.5C26.1,98,26.8,97.9,27.4,97.4z"/>
			<path class="st0" d="M85.4,65.2c0.5-1.3,1.3-2,2.4-2.2c1.1-0.2,2.1-0.1,3.2,0.4c1,0.4,1.8,1.2,2.4,2.2c0.6,1,0.6,2.1,0.1,3.2
				c-1.4,3.2-3.2,6.8-5.3,10.9c-2.1,4.1-4.5,8-7.1,11.8c-2.6,3.8-5.4,7.2-8.2,10c-2.9,2.9-5.8,4.6-8.9,5.2c-3.3,0.7-6.4-0.1-9.3-2.7
				c-2.9-2.5-4.8-6.2-5.8-11c-1-4.8-0.7-10.4,0.9-16.9c1.6-6.5,5.3-13.4,11-20.8c1.8-2.3,3.4-3.4,5-3.4c1.5,0,2.5,0.1,2.9,0.2
				c1,0.5,1.9,1.3,2.7,2.3c0.8,1,0.8,2.6,0.2,4.6c-0.5,2-1.2,4.6-2.1,7.6c-0.9,3-1.6,6-2.2,9c-0.6,2.9-0.8,5.6-0.6,7.8
				c0.2,2.3,1.1,3.6,2.8,4c1.5,0.4,3.1-0.1,4.6-1.5c1.5-1.4,3-3.2,4.4-5.5c1.4-2.3,2.7-4.8,3.9-7.5C83.4,70.2,84.5,67.6,85.4,65.2z
				 M86.2,10c1.7-0.3,3.2-0.1,4.5,0.4c1.3,0.5,2.4,1.2,3.2,2.2c0.8,1,1.2,2.1,1.3,3.5c0.1,1.4-0.1,2.8-0.8,4.2
				c-0.3,0.5-1,1.4-2.3,2.6c-1.3,1.2-2.2,2.1-2.9,2.8c-1.8,1.8-3.7,4.1-5.7,6.9c-2,2.8-3.7,6.4-5.1,10.9c-0.3,0.4-0.7,0.8-1.3,1.1
				c-0.6,0.4-1.1,0-1.6-1.1c-0.7-2-1.2-4.8-1.6-8.2c-0.4-3.4,0-7.3,1.3-11.7c1.4-4.4,3-7.7,4.9-9.8C82.1,11.6,84.1,10.4,86.2,10z"/>
			<path class="st0" d="M138.3,30.5c-2.3,4.4-5,9-8.1,13.5c-3.1,4.6-6.4,9-9.8,13.3c-3.4,4.3-6.8,8.3-10.2,12
				c-3.5,3.8-6.6,7-9.6,9.6c0,0.6,0.1,1.1,0.2,1.5c0.4,4.7,1.6,8.1,3.7,10.2c2.1,2.1,4.4,3.4,7,3.7c3.3,0.4,6.3-0.2,9.1-1.6
				c2.7-1.5,4.8-3.1,6.2-5c0.3-0.4,0.6-0.9,1.1-1.5c0.4-0.6,1.1-1.8,1.8-3.4c0.8,0,1.5,0.4,2.1,1.2c0.6,0.8,1.1,1.8,1.3,2.9
				c0.3,1.1,0.3,2.2,0.3,3.4c-0.1,1.2-0.4,2.2-1.1,2.9c-1.1,1.5-2.7,3.1-4.6,4.8c-1.9,1.7-4.1,3.1-6.5,4.5c-2.4,1.3-5,2.4-7.8,3.3
				c-2.8,0.9-5.7,1.3-8.8,1.3c-6.1,0-10.7-1.8-13.9-5.3c-3.2-3.5-5.2-8.1-6.1-13.7c-1.4,0-2.4-0.5-2.9-1.5c0.5-0.2,0.9-0.4,1.3-0.6
				c0.4-0.1,0.8-0.3,1.3-0.6c-0.6-7.6,0-15.2,1.8-22.7c1.8-7.5,4.4-14.6,7.8-21.3c3.4-6.7,7.2-12.8,11.5-18.3
				c4.3-5.5,8.5-10.1,12.7-13.8c4.2-3.7,8.1-6.3,11.6-7.9c3.5-1.6,6.2-1.8,8.1-0.7c2.7,1.2,4.3,3.1,5,5.8c0.7,2.7,0.8,5.6,0.4,8.7
				c-0.4,3-1.2,6-2.2,8.8C140,27,139.1,29.1,138.3,30.5z M132.8,9.3c-1.9,0.6-4.3,2.7-7.1,6.3c-2.8,3.6-5.7,7.9-8.7,13
				c-3,5.1-5.8,10.5-8.4,16.2c-2.6,5.7-4.6,11-5.9,15.8c-0.8,2.9-1.4,5.9-1.7,8.8c4.2-5.1,8.5-10.8,12.8-17.1
				c4.3-6.3,8.1-12.3,11.4-18.1c3.2-5.8,5.7-11,7.5-15.5c1.7-4.6,2.1-7.7,1.1-9.4H132.8z"/>
			<path class="st0" d="M199.6,60.1c0.4-0.5,0.9-0.8,1.6-0.9c0.7-0.1,1.4-0.1,2,0.1c0.6,0.2,1.2,0.6,1.6,1.2
				c0.4,0.6,0.6,1.4,0.5,2.3c-5.8,9.4-14.7,15.3-26.8,17.5c-2.2,2.8-4.5,5.7-6.9,8.8c-2.4,3-4.9,5.8-7.6,8.4
				c-2.6,2.5-5.4,4.7-8.3,6.6c-2.9,1.8-6.1,2.9-9.4,3.3c-2.8,0.4-5.5,0.3-8.1-0.3c-2.6-0.6-4.8-1.8-6.8-3.7c-1-1.1-1.7-3.2-2.2-6.2
				c-0.4-3-0.7-6.4-0.6-10.2c0-3.8,0.3-7.8,0.8-11.8c0.5-4.1,1.3-7.8,2.3-11.2c1-3.4,2.3-6.1,3.7-8.3c1.5-2.1,3.2-3.2,5.1-3.2
				c4.5,0,7.6,1.1,9.3,3.3c1.8,2.2,2.8,4.7,3.1,7.6c0.2,2.9,0,5.9-0.8,8.8c-0.8,2.9-1.5,5.2-2.1,6.9c-1.4,3.6-2.2,6.7-2.5,9.4
				c-0.3,2.7,0.6,4.4,2.7,4.9c0.9,0.3,2.1-0.4,3.5-2.1c1.5-1.6,3-3.8,4.7-6.5c1.7-2.7,3.4-5.6,5.3-8.8c1.8-3.2,3.6-6.2,5.2-9.1
				c1.6-2.9,3-5.3,4.3-7.4c1.3-2.1,2.2-3.4,2.9-3.9c0.1-0.1,0.3-0.2,0.4-0.3c0.1-0.1,0.2-0.2,0.4-0.3c0.3-0.1,0.4-0.2,0.5-0.2
				c0.1,0,0.2,0,0.5-0.2c2.2-0.6,4.1-0.1,5.9,1.6c1.8,1.7,3,3.6,3.6,5.7c2.1,0.5,3.9,0.8,5.3,0.8c1.4,0,2.6-0.1,3.5-0.4
				c1-0.2,1.7-0.6,2.2-0.9C198.9,60.8,199.3,60.4,199.6,60.1z"/>
			<path class="st0" d="M242.4,74.7c0.5-1.2,1.3-1.8,2.3-1.9c1-0.1,2,0,2.9,0.5c0.9,0.4,1.5,1.2,1.9,2.2c0.4,1,0.3,2.1-0.2,3.2
				c-1.4,3.1-2.9,6.2-4.6,9.4c-1.7,3.2-3.6,6.1-5.9,8.9c-2.2,2.7-4.8,5.1-7.7,7c-2.9,1.9-6.3,3.1-10.1,3.6c-3.2,0.4-5.9-0.5-8-2.7
				c-2.1-2.2-3.4-5.5-3.6-9.9c-2.7,3.2-5.5,5.9-8.3,8.2c-2.9,2.3-5.6,3.7-8.3,4.4c-1.9,0.4-3.7,0.2-5.2-0.5c-1.6-0.7-2.9-1.9-4-3.5
				c-1.1-1.7-1.8-3.7-2.2-6.2c-0.4-2.5-0.3-5.3,0.2-8.3c0.9-5.2,2.8-10.6,5.7-16.1c2.9-5.5,7-10.5,12.3-15c2.7-2.2,5.5-3.7,8.4-4.7
				c2.9-1,5.6-1.2,8-0.8c2.4,0.4,4.4,1.5,5.9,3.3c1.5,1.8,2.2,4.4,2.1,7.8c0,0.8-0.2,1.5-0.7,2.2c-0.4,0.7-1,1.2-1.6,1.4
				c-0.5,0.1-0.9,0.1-1.3-0.1c-0.3-0.2-0.7-0.4-1-0.8c-0.4-0.3-0.8-0.6-1.3-0.8c-0.5-0.2-1.2-0.3-1.9-0.3c-1.9,0-3.9,0.7-5.9,2
				c-2,1.3-4,3-5.7,5.1c-1.8,2-3.3,4.3-4.7,6.7c-1.3,2.4-2.3,4.7-3,6.8c-0.6,2.1-0.8,3.9-0.5,5.5c0.3,1.6,1.3,2.6,3,3
				c1,0.3,2.1-0.1,3.3-1c1.2-1,2.5-2.2,3.7-3.8c1.3-1.6,2.6-3.4,3.9-5.5c1.3-2.1,2.6-4.2,3.7-6.2c0.1-0.3,0.5-0.9,1-1.8
				c0.6-1,1.3-2,2.2-3.1c0.9-1.1,1.8-2.1,2.7-2.9c0.9-0.9,1.7-1.5,2.3-1.7c1-0.2,2.1-0.1,3.2,0.3c1.1,0.5,2,1.1,2.8,1.8
				c0.8,0.8,1.3,1.7,1.7,2.7c0.4,1,0.4,1.9,0,2.7c-0.8,1.8-1.4,3.7-1.8,5.9c-0.5,2.2-0.7,4.1-0.9,5.9c-0.1,1.8,0,3.3,0.3,4.4
				c0.3,1.1,1,1.5,2,1.2c3.1-1.1,5.4-3.3,7.1-6.6C238.1,83,240,79.1,242.4,74.7z"/>
		</g>
	</g>
</g>
<g>
	<path class="st0" d="M188.8,24.3c0.9,0.2,1.6,0.5,2,1c0.4,0.5,0.7,1,0.8,1.5c0.1,0.5,0.1,0.9-0.1,1.2c-0.1,0.3-0.3,0.4-0.5,0.2
		c-0.5-0.5-1-0.5-1.6-0.2c-0.5,0.3-0.7,0.8-0.7,1.5c0,0.7,0.1,1.5,0.3,2.4c0.2,0.9,0.4,1.8,0.6,2.7c0.2,0.9,0.3,1.7,0.3,2.4
		c-0.1,0.8-0.2,1.6-0.6,2.4c-0.4,0.8-1,1.6-2,2.3c-0.6,0.5-1.4,0.8-2.1,0.9c-0.8,0.1-1.5,0.1-2.1,0.1c-0.7-0.1-1.3-0.4-1.8-0.9
		c-0.5-0.5-0.7-1.1-0.8-1.7c-0.6,0.5-1.3,0.9-2,1.3c-0.7,0.4-1.6,0.7-2.5,1c-0.1,0-0.2-0.2-0.2-0.6c0-0.4,0-0.8,0-1.3
		c0.1-0.5,0.2-0.9,0.4-1.4c0.2-0.4,0.5-0.6,1-0.6c0.8,0,1.6-0.3,2.2-0.9c0.7-0.6,1.3-1.4,1.8-2.4c0.5-1,1-2.1,1.4-3.2
		c0.4-1.2,0.7-2.3,1-3.3c0.2-0.6,0.4-1.2,0.8-1.7c0.3-0.6,0.7-1,1.2-1.5c0.5-0.4,1-0.7,1.5-0.9C187.6,24.2,188.1,24.2,188.8,24.3z
		 M184.7,39.4c0.2-0.1,0.3-0.3,0.3-0.6c0-0.3,0-0.7,0-1.1c0-0.4-0.1-0.8-0.2-1.3c-0.1-0.4-0.2-0.9-0.2-1.3c-0.1,0.1-0.2,0.3-0.3,0.5
		c-0.1,0.2-0.3,0.4-0.4,0.7c-0.1,0.2-0.3,0.4-0.4,0.6c-0.1,0.2-0.2,0.2-0.2,0.2c-0.1,0.3-0.1,0.6-0.1,0.9c0.1,0.3,0.2,0.6,0.3,0.9
		c0.1,0.3,0.3,0.4,0.6,0.5C184.3,39.6,184.5,39.5,184.7,39.4z"/>
	<path class="st0" d="M207.5,30.9c0.2-0.4,0.4-0.7,0.8-0.8c0.4-0.1,0.7-0.1,1,0c0.3,0.1,0.6,0.3,0.7,0.7c0.1,0.3,0.1,0.7,0,1.1
		c-0.4,0.9-1,2-1.6,3.2c-0.6,1.1-1.3,2.2-2,3.3c-0.7,1-1.5,2-2.4,2.8c-0.8,0.8-1.7,1.3-2.5,1.4c-1.6,0.3-2.9,0.2-3.8-0.5
		c-1-0.7-1.6-1.7-1.8-3c-0.2-1.3-0.1-2.9,0.5-4.7c0.6-1.8,1.6-3.7,3.2-5.7c-0.7,0.3-1.3,0.5-1.9,0.6c-0.6,0.1-1.1,0-1.5-0.1
		c-0.1,0.3-0.3,0.9-0.8,1.9c-0.4,1-1,2.1-1.6,3.3c-0.6,0.6-1,0.7-1.5,0.4c-0.4-0.3-0.6-0.8-0.7-1.7c0.3-0.6,0.6-1.3,0.8-1.9
		c0.2-0.6,0.5-1.2,0.7-1.7c0.2-0.6,0.4-1.2,0.6-1.7l1-5.9c0.2-0.3,0.5-0.4,0.7-0.4c0.2,0,0.5,0.2,0.8,0.5c0.3,0.3,0.6,0.9,1,1.8
		c0,0,0.1,0.1,0.1,0.3c0.6,0.3,1.1,0.5,1.8,0.6c0.6,0.1,1.2,0.1,1.7,0c0.5-0.1,1-0.2,1.4-0.3c0.4-0.1,0.7-0.3,0.7-0.4
		c0.1-0.2,0.4-0.3,0.7-0.3c0.3,0,0.6,0.1,0.8,0.3l0.1,0.1c0.5,0.5,0.6,1.3,0.3,2.3c-0.3,1.1-0.7,2.2-1.2,3.3c-0.5,1.2-1,2.3-1.5,3.3
		c-0.5,1.1-0.7,1.9-0.7,2.5c0,0.5,0.2,0.9,0.5,1.1c0.3,0.2,0.7,0.2,1.1,0.2c0.4-0.1,0.8-0.2,1.2-0.5c0.4-0.3,0.7-0.6,1-1
		c0.4-0.6,0.8-1.3,1.2-2.1C206.8,32.4,207.1,31.6,207.5,30.9z"/>
	<path class="st0" d="M225.8,31.7c0.2-0.4,0.4-0.6,0.8-0.6c0.3,0,0.7,0,1,0.2c0.3,0.1,0.5,0.4,0.6,0.7c0.1,0.3,0.1,0.7-0.1,1.1
		c-0.5,1-1,2.1-1.5,3.1c-0.6,1.1-1.2,2.1-2,3c-0.8,0.9-1.6,1.7-2.6,2.3c-1,0.6-2.1,1-3.4,1.2c-1.1,0.1-2-0.2-2.7-0.9
		c-0.7-0.7-1.1-1.8-1.2-3.3c-0.9,1.1-1.8,2-2.8,2.7c-1,0.8-1.9,1.3-2.8,1.5c-0.6,0.1-1.2,0.1-1.8-0.2c-0.5-0.2-1-0.6-1.3-1.2
		c-0.4-0.5-0.6-1.2-0.7-2.1c-0.1-0.8-0.1-1.8,0.1-2.8c0.3-1.8,0.9-3.6,1.9-5.4c1-1.9,2.4-3.5,4.1-5c0.9-0.7,1.8-1.2,2.8-1.6
		c1-0.3,1.9-0.4,2.7-0.3c0.8,0.1,1.5,0.5,2,1.1c0.5,0.6,0.7,1.5,0.7,2.6c0,0.2-0.1,0.5-0.2,0.7c-0.1,0.2-0.3,0.4-0.5,0.5
		c-0.2,0-0.3,0-0.4,0c-0.1-0.1-0.2-0.2-0.4-0.3c-0.1-0.1-0.3-0.2-0.5-0.3c-0.2-0.1-0.4-0.1-0.6-0.1c-0.6,0-1.3,0.2-2,0.7
		c-0.7,0.4-1.3,1-1.9,1.7c-0.6,0.7-1.1,1.4-1.6,2.3c-0.4,0.8-0.8,1.6-1,2.3c-0.2,0.7-0.3,1.3-0.2,1.9c0.1,0.5,0.4,0.9,1,1
		c0.4,0.1,0.7,0,1.1-0.3c0.4-0.3,0.8-0.7,1.3-1.3c0.4-0.5,0.9-1.2,1.3-1.9c0.4-0.7,0.9-1.4,1.3-2.1c0-0.1,0.2-0.3,0.4-0.6
		c0.2-0.3,0.4-0.6,0.7-1c0.3-0.4,0.6-0.7,0.9-1c0.3-0.3,0.5-0.5,0.8-0.6c0.4-0.1,0.7-0.1,1.1,0.1c0.4,0.1,0.7,0.4,0.9,0.6
		c0.3,0.3,0.5,0.6,0.6,0.9c0.1,0.3,0.1,0.6,0,0.9c-0.3,0.6-0.5,1.3-0.6,2c-0.1,0.7-0.2,1.4-0.3,2c0,0.6,0,1.1,0.1,1.5
		c0.1,0.4,0.3,0.5,0.7,0.4c1-0.4,1.8-1.1,2.4-2.2C224.3,34.5,225,33.2,225.8,31.7z"/>
</g>
</svg>
