<?xml version="1.0" encoding="utf-8"?>
<!-- Generator: Adobe Illustrator 26.2.1, SVG Export Plug-In . SVG Version: 6.00 Build 0)  -->
<svg version="1.1" id="Camada_1" xmlns="http://www.w3.org/2000/svg" xmlns:xlink="http://www.w3.org/1999/xlink" x="0px" y="0px"
	 viewBox="0 0 48.3 992.1" style="enable-background:new 0 0 48.3 992.1;" xml:space="preserve">
<style type="text/css">
	.st0{enable-background:new    ;}
	.st1{fill:#5B5B5F;}
	.st2{fill:#333333;}
</style>
<g class="st0">
	<path class="st1" d="M8.1,970.8c0-3.8,2.3-6,6.3-6c4,0,6.3,2.2,6.3,6v4.1H8.1V970.8z M19.6,973.7v-2.8c0-3.1-1.9-4.8-5.2-4.8
		c-3.4,0-5.2,1.7-5.2,4.8v2.8H19.6z"/>
	<path class="st1" d="M18.1,955.7c1.6,0.3,2.7,1.8,2.7,3.8c0,2.6-1.8,4.1-4.7,4.1c-2.8,0-4.7-1.6-4.7-4.1c0-2.4,1.8-3.9,4.5-3.9h0.5
		v6.8h0.1c2.1,0,3.3-1.2,3.3-3c0-1.4-0.7-2.3-1.7-2.6V955.7z M15.5,962.4v-5.6c-1.8,0-3,1.1-3,2.8C12.4,961.2,13.7,962.3,15.5,962.4
		z"/>
	<path class="st1" d="M18.8,952.8L18.8,952.8l1.9,0v1.1H8.1v-1.2h5.4v0c-1.3-0.5-2-1.7-2-3.1c0-2.3,1.9-3.8,4.7-3.8s4.7,1.6,4.7,3.9
		C20.8,951.1,20,952.3,18.8,952.8z M16.1,952.8c2.2,0,3.7-1.2,3.7-2.9c0-1.8-1.4-2.9-3.7-2.9c-2.2,0-3.7,1.1-3.7,2.9
		C12.5,951.6,14,952.8,16.1,952.8z"/>
	<path class="st1" d="M18.2,944.6c-1.6,0-2.5-1.2-2.6-3.3l-0.2-2.8h-0.8c-1.3,0-2.1,0.8-2.1,2.3c0,1.3,0.7,2.2,1.8,2.4v1.1
		c-1.6-0.1-2.8-1.5-2.8-3.5s1.2-3.4,3-3.4h6.2v1.1H19v0c1.1,0.5,1.9,1.8,1.9,3.1C20.8,943.3,19.8,944.6,18.2,944.6z M17.3,938.5h-1
		l0.2,2.7c0.1,1.4,0.7,2.2,1.7,2.2c1,0,1.7-0.8,1.7-2.1C19.8,939.7,18.7,938.5,17.3,938.5z"/>
	<path class="st1" d="M9.3,933.7h2.3v-1.8h1v1.8h5.9c0.9,0,1.3-0.4,1.3-1.2c0-0.1,0-0.6,0-0.6h1c0,0.1,0.1,0.6,0.1,0.9
		c0,1.5-0.6,2.1-2.3,2.1h-5.9v1.4h-1v-1.4H9.3V933.7z"/>
	<path class="st1" d="M18.1,923.1c1.6,0.3,2.7,1.8,2.7,3.8c0,2.6-1.8,4.1-4.7,4.1c-2.8,0-4.7-1.6-4.7-4.1c0-2.4,1.8-3.9,4.5-3.9h0.5
		v6.8h0.1c2.1,0,3.3-1.2,3.3-3c0-1.4-0.7-2.3-1.7-2.6V923.1z M15.5,929.8v-5.6c-1.8,0-3,1.1-3,2.8C12.4,928.6,13.7,929.7,15.5,929.8
		z"/>
	<path class="st1" d="M11.4,918.4c0-1.9,1.1-3.2,2.7-3.3v1.1c-1.1,0.1-1.7,1-1.7,2.2c0,1.2,0.7,2.1,1.6,2.1c0.7,0,1.2-0.5,1.5-1.8
		l0.3-1.3c0.5-1.8,1.1-2.5,2.4-2.5c1.5,0,2.6,1.4,2.6,3.5c0,2-1.1,3.4-2.7,3.5v-1.2c1.1-0.2,1.7-1.1,1.7-2.4c0-1.4-0.6-2.3-1.6-2.3
		c-0.8,0-1.2,0.5-1.5,1.7l-0.4,1.5c-0.4,1.6-1.2,2.4-2.4,2.4C12.5,921.7,11.4,920.3,11.4,918.4z"/>
</g>
<g class="st0">
	<path class="st1" d="M20.7,741.2v7.6H8.1v-7.6h1.1v6.4h4.5v-6.1h1.1v6.1h4.9v-6.4H20.7z"/>
	<path class="st1" d="M11.4,736.4c0-1.9,1.1-3.2,2.7-3.3v1.1c-1.1,0.1-1.7,1-1.7,2.2c0,1.2,0.7,2.1,1.6,2.1c0.7,0,1.2-0.5,1.5-1.8
		l0.3-1.3c0.5-1.8,1.1-2.5,2.4-2.5c1.5,0,2.6,1.4,2.6,3.5c0,2-1.1,3.4-2.7,3.5v-1.2c1.1-0.2,1.7-1.1,1.7-2.4c0-1.4-0.6-2.3-1.6-2.3
		c-0.8,0-1.2,0.5-1.5,1.7l-0.4,1.5c-0.4,1.6-1.2,2.4-2.4,2.4C12.5,739.6,11.4,738.3,11.4,736.4z"/>
	<path class="st1" d="M9.3,729.7h2.3v-1.8h1v1.8h5.9c0.9,0,1.3-0.4,1.3-1.2c0-0.1,0-0.6,0-0.6h1c0,0.1,0.1,0.6,0.1,0.9
		c0,1.5-0.6,2.1-2.3,2.1h-5.9v1.4h-1v-1.4H9.3V729.7z"/>
	<path class="st1" d="M11.6,726.2v-1.1h1.6v0c-1.1-0.3-1.8-1.2-1.8-2.3c0-0.3,0.1-0.6,0.1-0.7h1.1c-0.1,0.1-0.1,0.5-0.1,0.9
		c0,1.3,1,2.1,2.5,2.1h5.7v1.2H11.6z"/>
	<path class="st1" d="M18.2,721.4c-1.6,0-2.5-1.2-2.6-3.3l-0.2-2.8h-0.8c-1.3,0-2.1,0.8-2.1,2.3c0,1.3,0.7,2.2,1.8,2.4v1.1
		c-1.6-0.1-2.8-1.5-2.8-3.5c0-2.1,1.2-3.4,3-3.4h6.2v1.1H19v0c1.1,0.5,1.9,1.8,1.9,3.1C20.8,720.2,19.8,721.4,18.2,721.4z
		 M17.3,715.3h-1l0.2,2.7c0.1,1.4,0.7,2.2,1.7,2.2c1,0,1.7-0.8,1.7-2.1C19.8,716.6,18.7,715.3,17.3,715.3z"/>
	<path class="st1" d="M9.3,710.6h2.3v-1.8h1v1.8h5.9c0.9,0,1.3-0.4,1.3-1.2c0-0.1,0-0.6,0-0.6h1c0,0.1,0.1,0.6,0.1,0.9
		c0,1.5-0.6,2.1-2.3,2.1h-5.9v1.4h-1v-1.4H9.3V710.6z"/>
	<path class="st1" d="M10.2,704.4l-2.6-1.9v-1.3l2.6,2.2V704.4z M18.1,700c1.6,0.3,2.7,1.8,2.7,3.8c0,2.6-1.8,4.1-4.7,4.1
		c-2.8,0-4.7-1.6-4.7-4.1c0-2.4,1.8-3.9,4.5-3.9h0.5v6.8h0.1c2.1,0,3.3-1.2,3.3-3c0-1.4-0.7-2.3-1.7-2.6V700z M15.5,706.7v-5.6
		c-1.8,0-3,1.1-3,2.8C12.4,705.5,13.7,706.6,15.5,706.7z"/>
	<path class="st1" d="M21.5,698.4v-1.2c0.9-0.3,1.5-1.3,1.5-2.6c0-1.7-1-2.8-2.5-2.8h-1.8v0c1.2,0.5,2,1.7,2,3.1
		c0,2.3-1.8,3.8-4.7,3.8c-2.8,0-4.7-1.5-4.7-3.9c0-1.5,0.8-2.6,2.1-3.2v0h-1.9v-1.1h9c2.1,0,3.5,1.6,3.5,4
		C24.1,696.6,23,698.1,21.5,698.4z M16.1,691.8c-2.2,0-3.7,1.2-3.7,2.9c0,1.7,1.4,2.9,3.7,2.9c2.2,0,3.6-1.1,3.6-2.9
		C19.8,693,18.3,691.8,16.1,691.8z"/>
	<path class="st1" d="M9,688.8c-0.4,0-0.8-0.3-0.8-0.8c0-0.4,0.3-0.8,0.8-0.8c0.4,0,0.8,0.4,0.8,0.8C9.7,688.4,9.4,688.8,9,688.8z
		 M11.6,688.6v-1.2h9.1v1.2H11.6z"/>
	<path class="st1" d="M18.2,685.7c-1.6,0-2.5-1.2-2.6-3.3l-0.2-2.8h-0.8c-1.3,0-2.1,0.8-2.1,2.3c0,1.3,0.7,2.2,1.8,2.4v1.1
		c-1.6-0.1-2.8-1.5-2.8-3.5c0-2.1,1.2-3.4,3-3.4h6.2v1.1H19v0c1.1,0.5,1.9,1.8,1.9,3.1C20.8,684.5,19.8,685.7,18.2,685.7z
		 M17.3,679.6h-1l0.2,2.7c0.1,1.4,0.7,2.2,1.7,2.2c1,0,1.7-0.8,1.7-2.1C19.8,680.8,18.7,679.6,17.3,679.6z"/>
	<path class="st1" d="M16.1,673.3c-2.8,0-4.7-1.6-4.7-3.9c0-1.5,0.8-2.6,2-3.1v0H8.1v-1.2h12.6v1.1h-1.9v0c1.2,0.5,2.1,1.7,2.1,3.2
		C20.8,671.7,19,673.3,16.1,673.3z M16.1,672.1c2.2,0,3.7-1.2,3.7-2.9c0-1.7-1.5-2.9-3.7-2.9c-2.2,0-3.7,1.2-3.7,2.9
		C12.5,670.9,13.9,672.1,16.1,672.1z"/>
	<path class="st1" d="M9,663.1c-0.4,0-0.8-0.3-0.8-0.8c0-0.4,0.3-0.8,0.8-0.8c0.4,0,0.8,0.4,0.8,0.8C9.7,662.8,9.4,663.1,9,663.1z
		 M11.6,662.9v-1.2h9.1v1.2H11.6z"/>
	<path class="st1" d="M21.5,659.7v-1.2c0.9-0.3,1.5-1.3,1.5-2.6c0-1.7-1-2.8-2.5-2.8h-1.8v0c1.2,0.5,2,1.7,2,3.1
		c0,2.3-1.8,3.8-4.7,3.8c-2.8,0-4.7-1.5-4.7-3.9c0-1.5,0.8-2.6,2.1-3.2v0h-1.9V652h9c2.1,0,3.5,1.5,3.5,4
		C24.1,658,23,659.5,21.5,659.7z M16.1,653.2c-2.2,0-3.7,1.2-3.7,2.9c0,1.7,1.4,2.9,3.7,2.9c2.2,0,3.6-1.1,3.6-2.9
		C19.8,654.3,18.3,653.2,16.1,653.2z"/>
	<path class="st1" d="M9,650.1c-0.4,0-0.8-0.4-0.8-0.8c0-0.4,0.3-0.8,0.8-0.8c0.4,0,0.8,0.3,0.8,0.8C9.7,649.8,9.4,650.1,9,650.1z
		 M11.6,649.9v-1.2h9.1v1.2H11.6z"/>
	<path class="st1" d="M9.3,645h2.3v-1.8h1v1.8h5.9c0.9,0,1.3-0.4,1.3-1.2c0-0.1,0-0.6,0-0.6h1c0,0.1,0.1,0.6,0.1,0.9
		c0,1.5-0.6,2.1-2.3,2.1h-5.9v1.4h-1v-1.4H9.3V645z"/>
	<path class="st1" d="M18.2,642.2c-1.6,0-2.5-1.2-2.6-3.3l-0.2-2.8h-0.8c-1.3,0-2.1,0.8-2.1,2.3c0,1.3,0.7,2.2,1.8,2.4v1.1
		c-1.6-0.1-2.8-1.5-2.8-3.5c0-2.1,1.2-3.4,3-3.4h6.2v1.1H19v0c1.1,0.5,1.9,1.8,1.9,3.1C20.8,641,19.8,642.2,18.2,642.2z M17.3,636.1
		h-1l0.2,2.7c0.1,1.4,0.7,2.2,1.7,2.2c1,0,1.7-0.8,1.7-2.1C19.8,637.3,18.7,636.1,17.3,636.1z"/>
	<path class="st1" d="M8.1,632.9v-1.2h12.6v1.2H8.1z"/>
</g>
<g class="st0">
	<path class="st1" d="M19.9,870c0,3.4-2.6,5.7-6.6,5.7c-3.9,0-6.4-2.2-6.4-5.7c0-2.7,1.6-4.7,4-5.2v1.2C9.1,866.6,8,868,8,870
		c0,2.7,2,4.4,5.3,4.4c3.3,0,5.5-1.7,5.5-4.4c0-2.4-1.6-4.1-3.9-4.1h-0.4v3.9h-1.1v-5.1h1.2C17.9,864.7,19.9,866.7,19.9,870z"/>
	<path class="st1" d="M17.1,855.5c1.6,0.3,2.7,1.8,2.7,3.8c0,2.6-1.8,4.1-4.7,4.1c-2.8,0-4.7-1.6-4.7-4.1c0-2.4,1.8-3.9,4.5-3.9h0.5
		v6.8h0.1c2.1,0,3.3-1.2,3.3-3c0-1.4-0.7-2.3-1.7-2.6V855.5z M14.5,862.2v-5.6c-1.8,0-3,1.1-3,2.8C11.5,861,12.7,862.1,14.5,862.2z"
		/>
	<path class="st1" d="M10.4,850.8c0-1.9,1.1-3.2,2.7-3.3v1.1c-1.1,0.1-1.7,1-1.7,2.2c0,1.2,0.7,2.1,1.6,2.1c0.7,0,1.2-0.5,1.5-1.8
		l0.3-1.3c0.5-1.8,1.1-2.5,2.4-2.5c1.5,0,2.6,1.4,2.6,3.5c0,2-1.1,3.4-2.7,3.5v-1.2c1.1-0.2,1.7-1.1,1.7-2.4c0-1.4-0.6-2.3-1.6-2.3
		c-0.8,0-1.2,0.5-1.5,1.7l-0.4,1.5c-0.4,1.6-1.2,2.4-2.4,2.4C11.5,854.1,10.4,852.7,10.4,850.8z"/>
	<path class="st1" d="M8.3,844.1h2.3v-1.8h1v1.8h5.9c0.9,0,1.3-0.4,1.3-1.2c0-0.1,0-0.6,0-0.6h1c0,0.1,0.1,0.6,0.1,0.9
		c0,1.5-0.6,2.1-2.3,2.1h-5.9v1.4h-1v-1.4H8.3V844.1z"/>
	<path class="st1" d="M7.8,838.5c0,0.5,0.5,0.7,1.3,0.7v0.8c-1.3,0-2.1-0.6-2.1-1.5c0-1.2,1.4-1.6,1.4-2.3c0-0.4-0.5-0.7-1.3-0.7
		v-0.8c1.3,0,2.1,0.6,2.1,1.5C9.1,837.3,7.8,837.7,7.8,838.5z M17.2,841.2c-1.6,0-2.5-1.2-2.6-3.3l-0.2-2.8h-0.8
		c-1.3,0-2.1,0.8-2.1,2.3c0,1.3,0.7,2.2,1.8,2.4v1.1c-1.6-0.1-2.8-1.5-2.8-3.5s1.2-3.4,3-3.4h6.2v1.1H18v0c1.1,0.5,1.9,1.8,1.9,3.1
		C19.8,839.9,18.8,841.2,17.2,841.2z M16.3,835.1h-1l0.2,2.7c0.1,1.4,0.7,2.2,1.7,2.2c1,0,1.7-0.8,1.7-2.1
		C18.8,836.3,17.7,835.1,16.3,835.1z"/>
	<path class="st1" d="M15.1,832.4c-2.9,0-4.7-1.7-4.7-4.2c0-2.5,1.8-4.2,4.7-4.2c2.9,0,4.7,1.7,4.7,4.2
		C19.8,830.8,18,832.4,15.1,832.4z M15.1,825.3c-2.3,0-3.7,1.2-3.7,3c0,1.8,1.4,3,3.7,3s3.7-1.2,3.7-3
		C18.8,826.5,17.5,825.3,15.1,825.3z"/>
</g>
<g class="st0">
	<path class="st1" d="M29.4,872.2c0-1.9,1.1-3.2,2.7-3.3v1.1c-1.1,0.1-1.7,1-1.7,2.2c0,1.2,0.7,2.1,1.6,2.1c0.7,0,1.2-0.5,1.5-1.8
		l0.3-1.3c0.5-1.8,1.1-2.5,2.4-2.5c1.5,0,2.6,1.4,2.6,3.5c0,2-1.1,3.4-2.7,3.5v-1.2c1.1-0.2,1.7-1.1,1.7-2.4s-0.6-2.3-1.6-2.3
		c-0.8,0-1.2,0.5-1.5,1.7l-0.4,1.5c-0.4,1.6-1.2,2.4-2.4,2.4C30.5,875.5,29.4,874.2,29.4,872.2z"/>
	<path class="st1" d="M36.1,859.8c1.6,0.3,2.7,1.8,2.7,3.8c0,2.6-1.8,4.1-4.7,4.1c-2.8,0-4.7-1.6-4.7-4.1c0-2.4,1.8-3.9,4.5-3.9h0.5
		v6.8h0.1c2.1,0,3.3-1.2,3.3-3c0-1.4-0.7-2.3-1.7-2.6V859.8z M33.5,866.5v-5.6c-1.8,0-3,1.1-3,2.8C30.5,865.2,31.7,866.4,33.5,866.5
		z"/>
	<path class="st1" d="M39.5,858.1v-1.2c0.9-0.3,1.5-1.3,1.5-2.6c0-1.7-1-2.8-2.5-2.8h-1.8v0c1.2,0.5,2,1.7,2,3.1
		c0,2.3-1.8,3.8-4.7,3.8c-2.8,0-4.7-1.5-4.7-3.9c0-1.5,0.8-2.6,2.1-3.2v0h-1.9v-1.1h9c2.1,0,3.5,1.5,3.5,4
		C42.1,856.4,41,857.9,39.5,858.1z M34.1,851.6c-2.2,0-3.7,1.2-3.7,2.9c0,1.7,1.4,2.9,3.7,2.9c2.2,0,3.6-1.1,3.6-2.9
		C37.8,852.7,36.3,851.6,34.1,851.6z"/>
	<path class="st1" d="M29.6,848.4v-1.1h1.7v0c-1.1-0.4-1.8-1.3-1.8-2.7c0-1.3,0.8-2.3,1.9-2.6v0c-1.1-0.4-1.9-1.5-1.9-2.9
		c0-1.8,1.2-2.9,3-2.9h6.2v1.2h-6c-1.4,0-2.3,0.8-2.3,2.1c0,1.3,1,2.3,2.5,2.3h5.7v1.2h-6.1c-1.3,0-2.2,0.8-2.2,2.1
		c0,1.3,1.1,2.3,2.6,2.3h5.6v1.2H29.6z"/>
	<path class="st1" d="M36.1,826.8c1.6,0.3,2.7,1.8,2.7,3.8c0,2.6-1.8,4.1-4.7,4.1c-2.8,0-4.7-1.6-4.7-4.1c0-2.4,1.8-3.9,4.5-3.9h0.5
		v6.8h0.1c2.1,0,3.3-1.2,3.3-3c0-1.4-0.7-2.3-1.7-2.6V826.8z M33.5,833.5v-5.6c-1.8,0-3,1.1-3,2.8C30.5,832.2,31.7,833.4,33.5,833.5
		z"/>
	<path class="st1" d="M29.6,825.1V824h1.7v0c-1.1-0.5-1.8-1.5-1.8-3c0-2,1.3-3.2,3.4-3.2h5.9v1.2H33c-1.6,0-2.5,0.9-2.5,2.4
		c0,1.6,1.1,2.6,2.8,2.6h5.4v1.2H29.6z"/>
	<path class="st1" d="M27.3,814.1h2.3v-1.8h1v1.8h5.9c0.9,0,1.3-0.4,1.3-1.2c0-0.1,0-0.6,0-0.6h1c0,0.1,0.1,0.6,0.1,0.9
		c0,1.5-0.6,2.1-2.3,2.1h-5.9v1.4h-1v-1.4h-2.3V814.1z"/>
	<path class="st1" d="M36.2,811.3c-1.6,0-2.5-1.2-2.6-3.3l-0.2-2.8h-0.8c-1.3,0-2.1,0.8-2.1,2.3c0,1.3,0.7,2.2,1.8,2.4v1.1
		c-1.6-0.1-2.8-1.5-2.8-3.5s1.2-3.4,3-3.4h6.2v1.1H37v0c1.1,0.5,1.9,1.8,1.9,3.1C38.8,810.1,37.8,811.3,36.2,811.3z M35.3,805.2h-1
		l0.2,2.7c0.1,1.4,0.7,2.2,1.7,2.2c1,0,1.7-0.8,1.7-2.1C37.8,806.4,36.7,805.2,35.3,805.2z"/>
	<path class="st1" d="M34.1,802.5c-2.8,0-4.7-1.6-4.7-3.9c0-1.5,0.8-2.6,2-3.1v0h-5.4v-1.2h12.6v1.1h-1.9v0c1.2,0.5,2.1,1.7,2.1,3.2
		C38.8,800.9,37,802.5,34.1,802.5z M34.1,801.3c2.2,0,3.7-1.2,3.7-2.9c0-1.7-1.5-2.9-3.7-2.9c-2.2,0-3.7,1.2-3.7,2.9
		C30.5,800.2,31.9,801.3,34.1,801.3z"/>
	<path class="st1" d="M36.2,792.6c-1.6,0-2.5-1.2-2.6-3.3l-0.2-2.8h-0.8c-1.3,0-2.1,0.8-2.1,2.3c0,1.3,0.7,2.2,1.8,2.4v1.1
		c-1.6-0.1-2.8-1.5-2.8-3.5c0-2.1,1.2-3.4,3-3.4h6.2v1.1H37v0c1.1,0.5,1.9,1.8,1.9,3.1C38.8,791.4,37.8,792.6,36.2,792.6z
		 M35.3,786.5h-1l0.2,2.7c0.1,1.4,0.7,2.2,1.7,2.2c1,0,1.7-0.8,1.7-2.1C37.8,787.8,36.7,786.5,35.3,786.5z"/>
</g>
<g>
	<g>
		<path class="st2" d="M19.7,574.2h-8.5v0.1l8.5,3.4v1.7l-8.5,3.4v0.1h8.5v2.4H7.1v-3.1l9.1-3.6v-0.1l-9.1-3.6v-3.1h12.6V574.2z"/>
		<path class="st2" d="M15,570.3c-3,0-4.9-1.8-4.9-4.7c0-2.8,1.8-4.7,4.9-4.7c3.1,0,4.9,1.8,4.9,4.7S18.1,570.3,15,570.3z M15,563.6
			c-1.9,0-2.9,0.8-2.9,2c0,1.2,1.1,2.1,2.9,2.1c1.9,0,2.9-0.8,2.9-2.1C17.9,564.4,16.9,563.6,15,563.6z"/>
		<path class="st2" d="M10.3,559.7v-2.5H12v-0.1c-1.2-0.5-1.8-1.5-1.8-2.9c0-2.1,1.3-3.3,3.5-3.3h6.1v2.6h-5.5
			c-1.2,0-1.9,0.6-1.9,1.7c0,1.1,0.8,1.9,2.1,1.9h5.4v2.6H10.3z"/>
		<path class="st2" d="M7.7,549.4c-0.7,0-1.3-0.6-1.3-1.3s0.6-1.3,1.3-1.3c0.7,0,1.3,0.6,1.3,1.3S8.4,549.4,7.7,549.4z M10.3,549.4
			v-2.6h9.4v2.6H10.3z"/>
		<path class="st2" d="M8.1,541.9h2.2v-1.7h1.9v1.7h4.5c0.7,0,1.1-0.3,1.1-1.1c0-0.2,0-0.5,0-0.6h1.9c0.1,0.3,0.1,0.7,0.1,1.2
			c0,2.2-0.7,3.1-2.6,3.1h-4.9v1.3h-1.9v-1.3H8.1V541.9z"/>
		<path class="st2" d="M15,539.2c-3,0-4.9-1.8-4.9-4.7s1.8-4.7,4.9-4.7c3.1,0,4.9,1.8,4.9,4.7C19.9,537.4,18.1,539.2,15,539.2z
			 M15,532.5c-1.9,0-2.9,0.8-2.9,2s1.1,2.1,2.9,2.1c1.9,0,2.9-0.8,2.9-2.1C17.9,533.3,16.9,532.5,15,532.5z"/>
		<path class="st2" d="M10.3,528.6v-2.5H12v-0.1c-1.2-0.3-1.8-1.1-1.8-2.2c0-0.3,0-0.6,0.1-0.7h2.3c-0.1,0.2-0.1,0.6-0.1,0.9
			c0,1.3,0.8,2,2.1,2h5.2v2.6H10.3z"/>
		<path class="st2" d="M17,522.6c-1.7,0-2.7-1.3-2.8-3.7l-0.1-2.4h-0.6c-0.9,0-1.4,0.6-1.4,1.6c0,1,0.5,1.6,1.2,1.7v2.3
			c-1.8-0.1-3.1-1.6-3.1-4.1c0-2.4,1.2-4,3.1-4h6.5v2.5h-1.4v0.1c1,0.5,1.6,1.7,1.6,2.9C19.8,521.3,18.7,522.6,17,522.6z
			 M16.3,516.6h-0.7l0.1,2c0.1,1,0.5,1.5,1.2,1.5c0.7,0,1.1-0.6,1.1-1.4C18,517.5,17.3,516.6,16.3,516.6z"/>
		<path class="st2" d="M10.3,512.5V510H12v-0.1c-1.1-0.4-1.9-1.4-1.9-2.7c0-1.4,0.7-2.3,1.9-2.6v-0.1c-1.2-0.4-1.9-1.5-1.9-2.9
			c0-1.8,1.3-3.1,3.2-3.1h6.4v2.6h-5.8c-1.1,0-1.7,0.5-1.7,1.5c0,1,0.7,1.6,1.8,1.6h5.7v2.5h-5.9c-1,0-1.6,0.6-1.6,1.5
			c0,1,0.7,1.6,1.8,1.6h5.7v2.6H10.3z"/>
		<path class="st2" d="M16.8,488.4c1.8,0.3,3.1,2,3.1,4.3c0,2.9-1.8,4.6-4.9,4.6c-3,0-4.9-1.8-4.9-4.5c0-2.7,1.8-4.5,4.7-4.5h0.8
			v6.5h0.2c1.3,0,2.3-0.8,2.3-2.2c0-0.9-0.5-1.7-1.2-1.9V488.4z M14,494.8v-4c-1.2,0.1-2,0.8-2,2C12,493.9,12.8,494.7,14,494.8z"/>
		<path class="st2" d="M10.3,487v-2.5H12v-0.1c-1.2-0.5-1.8-1.5-1.8-2.9c0-2.1,1.3-3.3,3.5-3.3h6.1v2.6h-5.5c-1.2,0-1.9,0.6-1.9,1.7
			s0.8,1.9,2.1,1.9h5.4v2.6H10.3z"/>
		<path class="st2" d="M8.1,473.5h2.2v-1.7h1.9v1.7h4.5c0.7,0,1.1-0.4,1.1-1.1c0-0.2,0-0.5,0-0.6h1.9c0.1,0.3,0.1,0.7,0.1,1.2
			c0,2.2-0.7,3.1-2.6,3.1h-4.9v1.3h-1.9V476H8.1V473.5z"/>
		<path class="st2" d="M15,470.8c-3,0-4.9-1.8-4.9-4.7s1.8-4.7,4.9-4.7c3.1,0,4.9,1.8,4.9,4.7S18.1,470.8,15,470.8z M15,464.1
			c-1.9,0-2.9,0.8-2.9,2c0,1.2,1.1,2.1,2.9,2.1c1.9,0,2.9-0.8,2.9-2.1C17.9,464.9,16.9,464.1,15,464.1z"/>
	</g>
</g>
<g>
	<g>
		<path class="st2" d="M34,585.8c-3,0-4.8-1.5-4.8-3.8c0-1.4,0.7-2.4,1.8-2.9v-0.1h-4.9v-2.6h12.6v2.5h-1.6v0c1,0.5,1.8,1.5,1.8,2.9
			C38.8,584.3,37,585.8,34,585.8z M34,583.2c1.7,0,2.8-0.8,2.8-2.1c0-1.3-1.1-2.1-2.8-2.1c-1.7,0-2.8,0.8-2.8,2.1
			C31.2,582.4,32.3,583.2,34,583.2z"/>
		<path class="st2" d="M35.8,566.2c1.8,0.3,3.1,2,3.1,4.3c0,2.9-1.8,4.6-4.9,4.6c-3,0-4.9-1.8-4.9-4.5c0-2.7,1.8-4.5,4.7-4.5h0.8
			v6.5h0.2c1.3,0,2.3-0.8,2.3-2.2c0-0.9-0.5-1.7-1.2-1.9V566.2z M33,572.6v-4c-1.2,0.1-2,0.8-2,2C31,571.7,31.8,572.5,33,572.6z"/>
		<path class="st2" d="M29.3,561.3v-2.5H31v-0.1c-1.2-0.3-1.8-1.1-1.8-2.2c0-0.3,0-0.6,0.1-0.7h2.3c-0.1,0.2-0.1,0.6-0.1,0.9
			c0,1.3,0.8,2,2.1,2h5.2v2.6H29.3z"/>
		<path class="st2" d="M35.8,546.5c1.8,0.3,3.1,2,3.1,4.3c0,2.9-1.8,4.6-4.9,4.6c-3,0-4.9-1.8-4.9-4.5c0-2.7,1.8-4.5,4.7-4.5h0.8
			v6.5h0.2c1.3,0,2.3-0.8,2.3-2.2c0-0.9-0.5-1.7-1.2-1.9V546.5z M33,552.9v-4c-1.2,0.1-2,0.8-2,2C31,552,31.8,552.8,33,552.9z"/>
		<path class="st2" d="M34,545.5c-3,0-4.8-1.5-4.8-3.8c0-1.4,0.7-2.4,1.8-2.9v-0.1h-4.9v-2.6h12.6v2.5h-1.6v0c1,0.5,1.8,1.5,1.8,2.9
			C38.8,544,37,545.5,34,545.5z M34,542.8c1.7,0,2.8-0.8,2.8-2.1c0-1.3-1.1-2.1-2.8-2.1c-1.7,0-2.8,0.8-2.8,2.1
			C31.2,542.1,32.3,542.8,34,542.8z"/>
		<path class="st2" d="M35.8,525.9c1.8,0.3,3.1,2,3.1,4.3c0,2.9-1.8,4.6-4.9,4.6c-3,0-4.9-1.8-4.9-4.5c0-2.7,1.8-4.5,4.7-4.5h0.8
			v6.5h0.2c1.3,0,2.3-0.8,2.3-2.2c0-0.9-0.5-1.7-1.2-1.9V525.9z M33,532.2v-4c-1.2,0.1-2,0.8-2,2C31,531.3,31.8,532.2,33,532.2z"/>
		<path class="st2" d="M29.1,520.7c0-2.4,1.2-3.9,3.1-4v2.4c-0.8,0.1-1.3,0.6-1.3,1.6c0,0.9,0.4,1.5,1,1.5c0.5,0,0.8-0.3,1-1.3
			l0.3-1.6c0.4-2,1.2-2.8,2.6-2.8c1.8,0,3.1,1.7,3.1,4.1c0,2.6-1.2,4.1-3.1,4.3v-2.5c0.8-0.2,1.3-0.7,1.3-1.8c0-1-0.4-1.6-1-1.6
			c-0.5,0-0.8,0.3-1,1.2l-0.3,1.6c-0.4,1.8-1.3,2.7-2.7,2.7C30.3,524.6,29.1,523.1,29.1,520.7z"/>
		<path class="st2" d="M29.1,507.9c0-2.4,1.2-3.9,3.1-4v2.4c-0.8,0.1-1.3,0.6-1.3,1.6c0,0.9,0.4,1.5,1,1.5c0.5,0,0.8-0.3,1-1.3
			l0.3-1.6c0.4-2,1.2-2.8,2.6-2.8c1.8,0,3.1,1.7,3.1,4.1c0,2.6-1.2,4.1-3.1,4.3v-2.5c0.8-0.2,1.3-0.7,1.3-1.8c0-1-0.4-1.6-1-1.6
			c-0.5,0-0.8,0.3-1,1.2l-0.3,1.6c-0.4,1.8-1.3,2.7-2.7,2.7C30.3,511.9,29.1,510.3,29.1,507.9z"/>
		<path class="st2" d="M34,502.8c-3,0-4.9-1.8-4.9-4.7s1.8-4.7,4.9-4.7c3.1,0,4.9,1.8,4.9,4.7S37.1,502.8,34,502.8z M34,496.1
			c-1.9,0-2.9,0.8-2.9,2c0,1.2,1.1,2.1,2.9,2.1c1.9,0,2.9-0.8,2.9-2.1C36.9,496.9,35.9,496.1,34,496.1z"/>
		<path class="st2" d="M32.8,486.1c-1,0.1-1.7,0.8-1.7,1.9c0,1.3,1.1,2,2.9,2c1.8,0,2.9-0.8,2.9-2.1c0-1-0.6-1.7-1.6-1.8v-2.4
			c2.2,0.1,3.6,1.8,3.6,4.3c0,2.8-1.8,4.6-4.9,4.6c-3,0-4.9-1.8-4.9-4.6c0-2.5,1.6-4.2,3.7-4.3V486.1z"/>
		<path class="st2" d="M26.7,482.5c-0.7,0-1.3-0.6-1.3-1.3c0-0.7,0.6-1.3,1.3-1.3c0.7,0,1.3,0.6,1.3,1.3
			C28,481.9,27.4,482.5,26.7,482.5z M29.3,482.4v-2.6h9.4v2.6H29.3z"/>
		<path class="st2" d="M36,478.5c-1.7,0-2.7-1.3-2.8-3.7l-0.1-2.4h-0.6c-0.9,0-1.4,0.6-1.4,1.6c0,1,0.5,1.6,1.2,1.7v2.3
			c-1.8-0.1-3.1-1.6-3.1-4.1c0-2.4,1.2-4,3.1-4h6.5v2.5h-1.4v0.1c1,0.5,1.6,1.7,1.6,2.9C38.8,477.1,37.7,478.5,36,478.5z
			 M35.3,472.5h-0.7l0.1,2c0.1,1,0.5,1.5,1.2,1.5c0.7,0,1.1-0.6,1.1-1.4C37,473.4,36.3,472.5,35.3,472.5z"/>
		<path class="st2" d="M26.7,468.3c-0.7,0-1.3-0.6-1.3-1.3c0-0.7,0.6-1.3,1.3-1.3c0.7,0,1.3,0.6,1.3,1.3
			C28,467.8,27.4,468.3,26.7,468.3z M29.3,468.3v-2.6h9.4v2.6H29.3z"/>
		<path class="st2" d="M29.1,460.2c0-2.4,1.2-3.9,3.1-3.9v2.4c-0.8,0.1-1.3,0.6-1.3,1.6c0,0.9,0.4,1.5,1,1.5c0.5,0,0.8-0.4,1-1.3
			l0.3-1.6c0.4-2,1.2-2.8,2.6-2.8c1.8,0,3.1,1.7,3.1,4.1c0,2.6-1.2,4.1-3.1,4.3v-2.5c0.8-0.2,1.3-0.7,1.3-1.8c0-1-0.4-1.6-1-1.6
			c-0.5,0-0.8,0.3-1,1.2l-0.3,1.6c-0.4,1.8-1.3,2.7-2.7,2.7C30.3,464.2,29.1,462.6,29.1,460.2z"/>
	</g>
</g>
<g class="st0">
	<path class="st1" d="M8.1,427.6c0-2.4,1.6-4.1,3.9-4.1s3.9,1.7,3.9,4.1v3.1h4.8v1.2H8.1V427.6z M14.9,430.7v-2.8
		c0-1.9-1.1-3.1-2.9-3.1s-2.9,1.2-2.9,3.1v2.8H14.9z"/>
	<path class="st1" d="M11.6,421.9v-1.1h1.6v0c-1.1-0.3-1.8-1.2-1.8-2.3c0-0.3,0.1-0.6,0.1-0.7h1.1c-0.1,0.1-0.1,0.5-0.1,0.9
		c0,1.3,1,2.1,2.5,2.1h5.7v1.2H11.6z"/>
	<path class="st1" d="M16.1,417.5c-2.9,0-4.7-1.7-4.7-4.2c0-2.5,1.8-4.2,4.7-4.2c2.9,0,4.7,1.7,4.7,4.2
		C20.8,415.8,19,417.5,16.1,417.5z M16.1,410.3c-2.3,0-3.7,1.2-3.7,3c0,1.8,1.4,3,3.7,3s3.7-1.2,3.7-3
		C19.8,411.5,18.4,410.3,16.1,410.3z"/>
	<path class="st1" d="M16.1,408.1c-2.8,0-4.7-1.6-4.7-3.9c0-1.5,0.8-2.6,2-3.1v0H8.1v-1.2h12.6v1.1h-1.9v0c1.2,0.5,2.1,1.7,2.1,3.2
		C20.8,406.5,19,408.1,16.1,408.1z M16.1,406.9c2.2,0,3.7-1.2,3.7-2.9c0-1.7-1.5-2.9-3.7-2.9c-2.2,0-3.7,1.2-3.7,2.9
		C12.5,405.7,13.9,406.9,16.1,406.9z"/>
	<path class="st1" d="M20.7,390.5v1.1H19v0c1.1,0.5,1.8,1.6,1.8,3c0,2-1.3,3.2-3.3,3.2h-5.9v-1.2h5.7c1.6,0,2.5-0.9,2.5-2.4
		c0-1.6-1.1-2.7-2.8-2.7h-5.4v-1.2H20.7z"/>
	<path class="st1" d="M17.9,381.1c1.6,0.2,2.8,1.5,2.9,3.3l1,0.5c0-1.1,0.5-1.9,1.4-1.9c1,0,1.5,0.9,1.5,2c0,0.5-0.1,1-0.1,1.2h-0.7
		c0.1-0.2,0.1-0.7,0.1-1.1c0-0.8-0.3-1.2-0.8-1.2c-0.5,0-0.7,0.4-0.7,1.3v0.5h-0.5l-1.2-0.5c-0.2,2.3-1.9,3.7-4.7,3.7
		c-2.9,0-4.7-1.6-4.7-4.1c0-2.1,1.4-3.5,3-3.7v1.1c-1.1,0.2-2,1.2-2,2.6c0,1.8,1.4,2.9,3.7,2.9c2.3,0,3.7-1.2,3.7-3
		c0-1.4-0.8-2.3-1.9-2.6V381.1z"/>
	<path class="st1" d="M8.8,377.3c0,0.5,0.5,0.7,1.3,0.7v0.8c-1.3,0-2.1-0.6-2.1-1.5c0-1.2,1.4-1.6,1.4-2.3c0-0.4-0.5-0.7-1.3-0.7
		v-0.8c1.3,0,2.1,0.6,2.1,1.5C10.1,376.1,8.8,376.6,8.8,377.3z M18.2,380c-1.6,0-2.5-1.2-2.6-3.3l-0.2-2.8h-0.8
		c-1.3,0-2.1,0.8-2.1,2.3c0,1.3,0.7,2.2,1.8,2.4v1.1c-1.6-0.1-2.8-1.5-2.8-3.5c0-2.1,1.2-3.4,3-3.4h6.2v1.1H19v0
		c1.1,0.5,1.9,1.8,1.9,3.1C20.8,378.8,19.8,380,18.2,380z M17.3,373.9h-1l0.2,2.7c0.1,1.4,0.7,2.2,1.7,2.2c1,0,1.7-0.8,1.7-2.1
		C19.8,375.1,18.7,373.9,17.3,373.9z"/>
	<path class="st1" d="M16.1,371.2c-2.9,0-4.7-1.7-4.7-4.2c0-2.5,1.8-4.2,4.7-4.2c2.9,0,4.7,1.7,4.7,4.2
		C20.8,369.6,19,371.2,16.1,371.2z M16.1,364.1c-2.3,0-3.7,1.2-3.7,3c0,1.8,1.4,3,3.7,3s3.7-1.2,3.7-3
		C19.8,365.3,18.4,364.1,16.1,364.1z"/>
</g>
<g class="st0">
	<path class="st1" d="M7.1,88.8c0-2.4,1.6-4.1,3.9-4.1s3.9,1.7,3.9,4.1v3.1h4.8v1.2H7.1V88.8z M13.9,91.9v-2.8
		c0-1.9-1.1-3.1-2.9-3.1s-2.9,1.2-2.9,3.1v2.8H13.9z"/>
	<path class="st1" d="M17.1,76.1c1.6,0.3,2.7,1.8,2.7,3.8c0,2.6-1.8,4.1-4.7,4.1c-2.8,0-4.7-1.6-4.7-4.1c0-2.4,1.8-3.9,4.5-3.9h0.5
		v6.8h0.1c2.1,0,3.3-1.2,3.3-3c0-1.4-0.7-2.3-1.7-2.6V76.1z M14.5,82.8v-5.6c-1.8,0-3,1.1-3,2.8C11.5,81.6,12.7,82.7,14.5,82.8z"/>
	<path class="st1" d="M10.4,71.4c0-1.9,1.1-3.2,2.7-3.3v1.1c-1.1,0.1-1.7,1-1.7,2.2c0,1.2,0.7,2.1,1.6,2.1c0.7,0,1.2-0.5,1.5-1.8
		l0.3-1.3c0.5-1.8,1.1-2.5,2.4-2.5c1.5,0,2.6,1.4,2.6,3.5c0,2-1.1,3.4-2.7,3.5v-1.2c1.1-0.2,1.7-1.1,1.7-2.4c0-1.4-0.6-2.3-1.6-2.3
		c-0.8,0-1.2,0.5-1.5,1.7l-0.4,1.5c-0.4,1.6-1.2,2.4-2.4,2.4C11.5,74.6,10.4,73.3,10.4,71.4z"/>
	<path class="st1" d="M12.5,59.7L12.5,59.7l-1.9,0v-1.1h12.1v1.2h-4.9v0c1.2,0.5,2,1.7,2,3.1c0,2.3-1.9,3.9-4.7,3.9
		s-4.7-1.6-4.7-3.9C10.4,61.4,11.3,60.3,12.5,59.7z M15.1,59.8c-2.2,0-3.7,1.2-3.7,2.9c0,1.7,1.4,2.9,3.7,2.9s3.7-1.1,3.7-2.9
		C18.8,61,17.3,59.8,15.1,59.8z"/>
	<path class="st1" d="M19.7,49.3v1.1H18v0c1.1,0.5,1.8,1.6,1.8,3c0,2-1.3,3.2-3.3,3.2h-5.9v-1.2h5.7c1.6,0,2.5-0.9,2.5-2.4
		c0-1.6-1.1-2.7-2.8-2.7h-5.4v-1.2H19.7z"/>
	<path class="st1" d="M8,47.4c-0.4,0-0.8-0.4-0.8-0.8c0-0.4,0.3-0.8,0.8-0.8c0.4,0,0.8,0.4,0.8,0.8C8.8,47.1,8.4,47.4,8,47.4z
		 M10.6,47.2v-1.2h9.1v1.2H10.6z"/>
	<path class="st1" d="M10.4,40.9c0-1.9,1.1-3.2,2.7-3.3v1.1c-1.1,0.1-1.7,1-1.7,2.2c0,1.2,0.7,2.1,1.6,2.1c0.7,0,1.2-0.5,1.5-1.8
		l0.3-1.3c0.5-1.8,1.1-2.5,2.4-2.5c1.5,0,2.6,1.4,2.6,3.5c0,2-1.1,3.4-2.7,3.5v-1.2c1.1-0.2,1.7-1.1,1.7-2.4c0-1.4-0.6-2.3-1.6-2.3
		c-0.8,0-1.2,0.5-1.5,1.7l-0.4,1.5c-0.4,1.6-1.2,2.4-2.4,2.4C11.5,44.2,10.4,42.8,10.4,40.9z"/>
	<path class="st1" d="M17.2,36.2c-1.6,0-2.5-1.2-2.6-3.3l-0.2-2.8h-0.8c-1.3,0-2.1,0.8-2.1,2.3c0,1.3,0.7,2.2,1.8,2.4v1.1
		c-1.6-0.1-2.8-1.5-2.8-3.5c0-2.1,1.2-3.4,3-3.4h6.2v1.1H18v0c1.1,0.5,1.9,1.8,1.9,3.1C19.8,35,18.8,36.2,17.2,36.2z M16.3,30.1h-1
		l0.2,2.7c0.1,1.4,0.7,2.2,1.7,2.2c1,0,1.7-0.8,1.7-2.1C18.8,31.4,17.7,30.1,16.3,30.1z"/>
	<path class="st1" d="M10.4,23.9c0-1.9,1.1-3.2,2.7-3.3v1.1c-1.1,0.1-1.7,1-1.7,2.2c0,1.2,0.7,2.1,1.6,2.1c0.7,0,1.2-0.5,1.5-1.8
		l0.3-1.3c0.5-1.8,1.1-2.5,2.4-2.5c1.5,0,2.6,1.4,2.6,3.5c0,2-1.1,3.4-2.7,3.5v-1.2c1.1-0.2,1.7-1.1,1.7-2.4c0-1.4-0.6-2.3-1.6-2.3
		c-0.8,0-1.2,0.5-1.5,1.7l-0.4,1.5c-0.4,1.6-1.2,2.4-2.4,2.4C11.5,27.2,10.4,25.8,10.4,23.9z"/>
	<g class="st0">
		<path class="st1" d="M7.1,223.8c0-2.4,1.6-4.1,3.9-4.1s3.9,1.7,3.9,4.1v3.1h4.8v1.2H7.1V223.8z M13.9,226.9v-2.8
			c0-1.9-1.1-3.1-2.9-3.1s-2.9,1.2-2.9,3.1v2.8H13.9z"/>
		<path class="st1" d="M7.1,218.2V217h12.6v1.2H7.1z"/>
		<path class="st1" d="M17.2,215.3c-1.6,0-2.5-1.2-2.6-3.3l-0.2-2.8h-0.8c-1.3,0-2.1,0.8-2.1,2.3c0,1.3,0.7,2.2,1.8,2.4v1.1
			c-1.6-0.1-2.8-1.5-2.8-3.5c0-2.1,1.2-3.4,3-3.4h6.2v1.1H18v0c1.1,0.5,1.9,1.8,1.9,3.1C19.8,214,18.8,215.3,17.2,215.3z
			 M16.3,209.2h-1l0.2,2.7c0.1,1.4,0.7,2.2,1.7,2.2c1,0,1.7-0.8,1.7-2.1C18.8,210.4,17.7,209.2,16.3,209.2z"/>
		<path class="st1" d="M10.6,206.1V205h1.7v0c-1.1-0.5-1.8-1.5-1.8-3c0-2,1.3-3.2,3.4-3.2h5.9v1.2H14c-1.6,0-2.5,0.9-2.5,2.4
			c0,1.6,1.1,2.6,2.8,2.6h5.4v1.2H10.6z"/>
		<path class="st1" d="M17.1,189.3c1.6,0.3,2.7,1.8,2.7,3.8c0,2.6-1.8,4.1-4.7,4.1c-2.8,0-4.7-1.6-4.7-4.1c0-2.4,1.8-3.9,4.5-3.9
			h0.5v6.8h0.1c2.1,0,3.3-1.2,3.3-3c0-1.4-0.7-2.3-1.7-2.6V189.3z M14.5,196v-5.6c-1.8,0-3,1.1-3,2.8
			C11.5,194.8,12.7,195.9,14.5,196z"/>
		<path class="st1" d="M8,187.8c-0.4,0-0.8-0.4-0.8-0.8c0-0.4,0.3-0.8,0.8-0.8c0.4,0,0.8,0.4,0.8,0.8C8.8,187.4,8.4,187.8,8,187.8z
			 M20.3,186.4c1.8,0,2.5,0.8,2.5,2.6c0,0,0,0.3,0,0.3h-1c0,0,0-0.2,0-0.2c0-1.1-0.4-1.5-1.5-1.5h-9.7v-1.2H20.3z"/>
		<path class="st1" d="M17.2,184.7c-1.6,0-2.5-1.2-2.6-3.3l-0.2-2.8h-0.8c-1.3,0-2.1,0.8-2.1,2.3c0,1.3,0.7,2.2,1.8,2.4v1.1
			c-1.6-0.1-2.8-1.5-2.8-3.5c0-2.1,1.2-3.4,3-3.4h6.2v1.1H18v0c1.1,0.5,1.9,1.8,1.9,3.1C19.8,183.4,18.8,184.7,17.2,184.7z
			 M16.3,178.6h-1l0.2,2.7c0.1,1.4,0.7,2.2,1.7,2.2c1,0,1.7-0.8,1.7-2.1C18.8,179.8,17.7,178.6,16.3,178.6z"/>
		<path class="st1" d="M10.6,175.5v-1.1h1.7v0c-1.1-0.4-1.8-1.3-1.8-2.7c0-1.3,0.8-2.3,1.9-2.6v0c-1.1-0.4-1.9-1.5-1.9-2.9
			c0-1.8,1.2-2.9,3-2.9h6.2v1.2h-6c-1.4,0-2.3,0.8-2.3,2.1c0,1.3,1,2.3,2.5,2.3h5.7v1.2h-6.1c-1.3,0-2.2,0.8-2.2,2.1
			c0,1.3,1.1,2.3,2.6,2.3h5.6v1.2H10.6z"/>
		<path class="st1" d="M17.1,153.8c1.6,0.3,2.7,1.8,2.7,3.8c0,2.6-1.8,4.1-4.7,4.1c-2.8,0-4.7-1.6-4.7-4.1c0-2.4,1.8-3.9,4.5-3.9
			h0.5v6.8h0.1c2.1,0,3.3-1.2,3.3-3c0-1.4-0.7-2.3-1.7-2.6V153.8z M14.5,160.5v-5.6c-1.8,0-3,1.1-3,2.8
			C11.5,159.3,12.7,160.4,14.5,160.5z"/>
		<path class="st1" d="M10.6,152.2v-1.1h1.7v0c-1.1-0.5-1.8-1.5-1.8-3c0-2,1.3-3.2,3.4-3.2h5.9v1.2H14c-1.6,0-2.5,0.9-2.5,2.4
			c0,1.6,1.1,2.6,2.8,2.6h5.4v1.2H10.6z"/>
		<path class="st1" d="M8.3,141.2h2.3v-1.8h1v1.8h5.9c0.9,0,1.3-0.4,1.3-1.2c0-0.1,0-0.6,0-0.6h1c0,0.1,0.1,0.6,0.1,0.9
			c0,1.5-0.6,2.1-2.3,2.1h-5.9v1.4h-1v-1.4H8.3V141.2z"/>
		<path class="st1" d="M15.1,138.5c-2.9,0-4.7-1.7-4.7-4.2c0-2.5,1.8-4.2,4.7-4.2c2.9,0,4.7,1.7,4.7,4.2
			C19.8,136.9,18,138.5,15.1,138.5z M15.1,131.4c-2.3,0-3.7,1.2-3.7,3c0,1.8,1.4,3,3.7,3s3.7-1.2,3.7-3
			C18.8,132.6,17.5,131.4,15.1,131.4z"/>
	</g>
	<g class="st0">
		<path class="st1" d="M36.1,220.9c1.6,0.3,2.7,1.8,2.7,3.8c0,2.6-1.8,4.1-4.7,4.1c-2.8,0-4.7-1.6-4.7-4.1c0-2.4,1.8-3.9,4.5-3.9
			h0.5v6.8h0.1c2.1,0,3.3-1.2,3.3-3c0-1.4-0.7-2.3-1.7-2.6V220.9z M33.5,227.6v-5.6c-1.8,0-3,1.1-3,2.8
			C30.5,226.3,31.7,227.5,33.5,227.6z"/>
		<path class="st1" d="M29.4,216.1c0-1.9,1.1-3.2,2.7-3.3v1.1c-1.1,0.1-1.7,1-1.7,2.2c0,1.2,0.7,2.1,1.6,2.1c0.7,0,1.2-0.5,1.5-1.8
			l0.3-1.3c0.5-1.8,1.1-2.5,2.4-2.5c1.5,0,2.6,1.4,2.6,3.5c0,2-1.1,3.4-2.7,3.5v-1.2c1.1-0.2,1.7-1.1,1.7-2.4c0-1.4-0.6-2.3-1.6-2.3
			c-0.8,0-1.2,0.5-1.5,1.7l-0.4,1.5c-0.4,1.6-1.2,2.4-2.4,2.4C30.5,219.4,29.4,218,29.4,216.1z"/>
		<path class="st1" d="M27.3,209.4h2.3v-1.8h1v1.8h5.9c0.9,0,1.3-0.4,1.3-1.2c0-0.1,0-0.6,0-0.6h1c0,0.1,0.1,0.6,0.1,0.9
			c0,1.5-0.6,2.1-2.3,2.1h-5.9v1.4h-1v-1.4h-2.3V209.4z"/>
		<path class="st1" d="M29.6,206v-1.1h1.6v0c-1.1-0.3-1.8-1.2-1.8-2.3c0-0.3,0.1-0.6,0.1-0.7h1.1c-0.1,0.1-0.1,0.5-0.1,0.9
			c0,1.3,1,2.1,2.5,2.1h5.7v1.2H29.6z"/>
		<path class="st1" d="M36.2,201.2c-1.6,0-2.5-1.2-2.6-3.3l-0.2-2.8h-0.8c-1.3,0-2.1,0.8-2.1,2.3c0,1.3,0.7,2.2,1.8,2.4v1.1
			c-1.6-0.1-2.8-1.5-2.8-3.5c0-2.1,1.2-3.4,3-3.4h6.2v1.1H37v0c1.1,0.5,1.9,1.8,1.9,3.1C38.8,200,37.8,201.2,36.2,201.2z
			 M35.3,195.1h-1l0.2,2.7c0.1,1.4,0.7,2.2,1.7,2.2c1,0,1.7-0.8,1.7-2.1C37.8,196.4,36.7,195.1,35.3,195.1z"/>
		<path class="st1" d="M27.3,190.4h2.3v-1.8h1v1.8h5.9c0.9,0,1.3-0.4,1.3-1.2c0-0.1,0-0.6,0-0.6h1c0,0.1,0.1,0.6,0.1,0.9
			c0,1.5-0.6,2.1-2.3,2.1h-5.9v1.4h-1v-1.4h-2.3V190.4z"/>
		<path class="st1" d="M28.2,184.2l-2.6-1.9V181l2.6,2.2V184.2z M36.1,179.8c1.6,0.3,2.7,1.8,2.7,3.8c0,2.6-1.8,4.1-4.7,4.1
			c-2.8,0-4.7-1.6-4.7-4.1c0-2.4,1.8-3.9,4.5-3.9h0.5v6.8h0.1c2.1,0,3.3-1.2,3.3-3c0-1.4-0.7-2.3-1.7-2.6V179.8z M33.5,186.5v-5.6
			c-1.8,0-3,1.1-3,2.8C30.5,185.3,31.7,186.4,33.5,186.5z"/>
		<path class="st1" d="M39.5,178.1V177c0.9-0.3,1.5-1.3,1.5-2.6c0-1.7-1-2.8-2.5-2.8h-1.8v0c1.2,0.5,2,1.7,2,3.1
			c0,2.3-1.8,3.8-4.7,3.8c-2.8,0-4.7-1.5-4.7-3.9c0-1.5,0.8-2.6,2.1-3.2v0h-1.9v-1.1h9c2.1,0,3.5,1.6,3.5,4
			C42.1,176.4,41,177.9,39.5,178.1z M34.1,171.6c-2.2,0-3.7,1.2-3.7,2.9c0,1.7,1.4,2.9,3.7,2.9c2.2,0,3.6-1.1,3.6-2.9
			C37.8,172.8,36.3,171.6,34.1,171.6z"/>
		<path class="st1" d="M27,168.5c-0.4,0-0.8-0.4-0.8-0.8c0-0.4,0.3-0.8,0.8-0.8c0.4,0,0.8,0.4,0.8,0.8
			C27.8,168.2,27.4,168.5,27,168.5z M29.6,168.4v-1.2h9.1v1.2H29.6z"/>
		<path class="st1" d="M32.5,158.8c-1.1,0.2-2,1.2-2,2.6c0,1.8,1.4,2.9,3.7,2.9c2.3,0,3.7-1.2,3.7-3c0-1.4-0.8-2.3-1.9-2.6v-1.1
			c1.7,0.3,3,1.7,3,3.7c0,2.5-1.8,4.1-4.7,4.1c-2.9,0-4.7-1.6-4.7-4.1c0-2.1,1.4-3.5,3-3.7V158.8z"/>
		<path class="st1" d="M34.1,156.7c-2.9,0-4.7-1.7-4.7-4.2c0-2.5,1.8-4.2,4.7-4.2c2.9,0,4.7,1.7,4.7,4.2
			C38.8,155,37,156.7,34.1,156.7z M34.1,149.6c-2.3,0-3.7,1.2-3.7,3c0,1.8,1.4,3,3.7,3s3.7-1.2,3.7-3
			C37.8,150.8,36.5,149.6,34.1,149.6z"/>
	</g>
	<g class="st0">
		<path class="st1" d="M13.3,333.6c-4,0-6.5-2.2-6.5-5.6c0-2.7,1.7-4.8,4.2-5.1v1.2C9.2,324.4,8,326,8,328c0,2.7,2.1,4.4,5.4,4.4
			c3.3,0,5.4-1.7,5.4-4.4c0-2-1.1-3.5-2.8-3.9v-1.2c2.5,0.4,3.9,2.4,3.9,5.1C19.9,331.5,17.4,333.6,13.3,333.6z"/>
		<path class="st1" d="M10.6,321.3v-1.1h1.6v0c-1.1-0.3-1.8-1.2-1.8-2.3c0-0.3,0.1-0.6,0.1-0.7h1.1c-0.1,0.1-0.1,0.5-0.1,0.9
			c0,1.3,1,2.1,2.5,2.1h5.7v1.2H10.6z"/>
		<path class="st1" d="M8,316c-0.4,0-0.8-0.4-0.8-0.8c0-0.4,0.3-0.8,0.8-0.8c0.4,0,0.8,0.4,0.8,0.8C8.8,315.7,8.4,316,8,316z
			 M10.6,315.8v-1.2h9.1v1.2H10.6z"/>
		<path class="st1" d="M17.2,312.9c-1.6,0-2.5-1.2-2.6-3.3l-0.2-2.8h-0.8c-1.3,0-2.1,0.8-2.1,2.3c0,1.3,0.7,2.2,1.8,2.4v1.1
			c-1.6-0.1-2.8-1.5-2.8-3.5c0-2.1,1.2-3.4,3-3.4h6.2v1.1H18v0c1.1,0.5,1.9,1.8,1.9,3.1C19.8,311.7,18.8,312.9,17.2,312.9z
			 M16.3,306.8h-1l0.2,2.7c0.1,1.4,0.7,2.2,1.7,2.2c1,0,1.7-0.8,1.7-2.1C18.8,308.1,17.7,306.8,16.3,306.8z"/>
		<path class="st1" d="M16.9,296.3c1.6,0.2,2.8,1.5,2.9,3.3l1,0.5c0-1.1,0.5-1.9,1.4-1.9c1,0,1.5,0.9,1.5,2c0,0.5-0.1,1-0.1,1.2
			h-0.7c0.1-0.2,0.1-0.7,0.1-1.1c0-0.8-0.3-1.2-0.8-1.2c-0.5,0-0.7,0.4-0.7,1.3v0.5h-0.5l-1.2-0.5c-0.2,2.3-1.9,3.7-4.7,3.7
			c-2.9,0-4.7-1.6-4.7-4.1c0-2.1,1.4-3.5,3-3.7v1.1c-1.1,0.2-2,1.2-2,2.6c0,1.8,1.4,2.9,3.7,2.9c2.3,0,3.7-1.2,3.7-3
			c0-1.4-0.8-2.3-1.9-2.6V296.3z"/>
		<path class="st1" d="M7.8,292.5c0,0.5,0.5,0.7,1.3,0.7v0.8c-1.3,0-2.1-0.6-2.1-1.5c0-1.2,1.4-1.6,1.4-2.3c0-0.4-0.5-0.7-1.3-0.7
			v-0.8c1.3,0,2.1,0.6,2.1,1.5C9.1,291.4,7.8,291.8,7.8,292.5z M17.2,295.2c-1.6,0-2.5-1.2-2.6-3.3l-0.2-2.8h-0.8
			c-1.3,0-2.1,0.8-2.1,2.3c0,1.3,0.7,2.2,1.8,2.4v1.1c-1.6-0.1-2.8-1.5-2.8-3.5c0-2.1,1.2-3.4,3-3.4h6.2v1.1H18v0
			c1.1,0.5,1.9,1.8,1.9,3.1C19.8,294,18.8,295.2,17.2,295.2z M16.3,289.1h-1l0.2,2.7c0.1,1.4,0.7,2.2,1.7,2.2c1,0,1.7-0.8,1.7-2.1
			C18.8,290.3,17.7,289.1,16.3,289.1z"/>
		<path class="st1" d="M15.1,286.5c-2.9,0-4.7-1.7-4.7-4.2c0-2.5,1.8-4.2,4.7-4.2c2.9,0,4.7,1.7,4.7,4.2
			C19.8,284.8,18,286.5,15.1,286.5z M15.1,279.3c-2.3,0-3.7,1.2-3.7,3c0,1.8,1.4,3,3.7,3s3.7-1.2,3.7-3
			C18.8,280.5,17.5,279.3,15.1,279.3z"/>
	</g>
	<g class="st0">
		<path class="st1" d="M34.1,325.2c2.8,0,4.7,1.6,4.7,3.9c0,1.5-0.8,2.6-2,3.1v0h4.9v1.2H29.6v-1.1h1.9v0c-1.2-0.5-2.1-1.7-2.1-3.1
			C29.4,326.7,31.3,325.2,34.1,325.2z M34.1,326.4c-2.2,0-3.7,1.1-3.7,2.9c0,1.7,1.5,2.9,3.7,2.9c2.2,0,3.7-1.2,3.7-2.9
			C37.8,327.5,36.4,326.4,34.1,326.4z"/>
		<path class="st1" d="M38.7,316.3v1.1H37v0c1.1,0.5,1.8,1.6,1.8,3c0,2-1.3,3.2-3.3,3.2h-5.9v-1.2h5.7c1.6,0,2.5-0.9,2.5-2.4
			c0-1.6-1.1-2.7-2.8-2.7h-5.4v-1.2H38.7z"/>
		<path class="st1" d="M36.8,313.1L36.8,313.1l1.9,0v1.1H26.1v-1.2h5.4v0c-1.3-0.5-2-1.7-2-3.1c0-2.3,1.9-3.8,4.7-3.8
			s4.7,1.6,4.7,3.9C38.8,311.4,38.1,312.6,36.8,313.1z M34.1,313.1c2.2,0,3.7-1.2,3.7-2.9c0-1.8-1.4-2.9-3.7-2.9
			c-2.2,0-3.7,1.1-3.7,2.9C30.5,311.9,32,313.1,34.1,313.1z"/>
		<path class="st1" d="M26.1,304.5v-1.2h12.6v1.2H26.1z"/>
		<path class="st1" d="M27,301.3c-0.4,0-0.8-0.4-0.8-0.8c0-0.4,0.3-0.8,0.8-0.8c0.4,0,0.8,0.4,0.8,0.8C27.8,301,27.4,301.3,27,301.3
			z M29.6,301.2V300h9.1v1.2H29.6z"/>
		<path class="st1" d="M32.5,291.7c-1.1,0.2-2,1.2-2,2.6c0,1.8,1.4,2.9,3.7,2.9c2.3,0,3.7-1.2,3.7-3c0-1.4-0.8-2.3-1.9-2.6v-1.1
			c1.7,0.3,3,1.7,3,3.7c0,2.5-1.8,4.1-4.7,4.1c-2.9,0-4.7-1.6-4.7-4.1c0-2.1,1.4-3.5,3-3.7V291.7z"/>
		<path class="st1" d="M27,289.2c-0.4,0-0.8-0.4-0.8-0.8c0-0.4,0.3-0.8,0.8-0.8c0.4,0,0.8,0.4,0.8,0.8
			C27.8,288.8,27.4,289.2,27,289.2z M29.6,289v-1.2h9.1v1.2H29.6z"/>
		<path class="st1" d="M27.3,284.1h2.3v-1.8h1v1.8h5.9c0.9,0,1.3-0.4,1.3-1.2c0-0.1,0-0.6,0-0.6h1c0,0.1,0.1,0.6,0.1,0.9
			c0,1.5-0.6,2.1-2.3,2.1h-5.9v1.4h-1v-1.4h-2.3V284.1z"/>
		<path class="st1" d="M28.2,278l-2.6-1.9v-1.3l2.6,2.2V278z M36.2,281.2c-1.6,0-2.5-1.2-2.6-3.3l-0.2-2.8h-0.8
			c-1.3,0-2.1,0.8-2.1,2.3c0,1.3,0.7,2.2,1.8,2.4v1.1c-1.6-0.1-2.8-1.5-2.8-3.5c0-2.1,1.2-3.4,3-3.4h6.2v1.1H37v0
			c1.1,0.5,1.9,1.8,1.9,3.1C38.8,280,37.8,281.2,36.2,281.2z M35.3,275.1h-1l0.2,2.7c0.1,1.4,0.7,2.2,1.7,2.2c1,0,1.7-0.8,1.7-2.1
			C37.8,276.4,36.7,275.1,35.3,275.1z"/>
		<path class="st1" d="M29.6,272v-1.1h1.6v0c-1.1-0.3-1.8-1.2-1.8-2.3c0-0.3,0.1-0.6,0.1-0.7h1.1c-0.1,0.1-0.1,0.5-0.1,0.9
			c0,1.3,1,2.1,2.5,2.1h5.7v1.2H29.6z"/>
		<path class="st1" d="M27,266.8c-0.4,0-0.8-0.4-0.8-0.8c0-0.4,0.3-0.8,0.8-0.8c0.4,0,0.8,0.4,0.8,0.8
			C27.8,266.4,27.4,266.8,27,266.8z M29.6,266.6v-1.2h9.1v1.2H29.6z"/>
		<path class="st1" d="M36.2,263.7c-1.6,0-2.5-1.2-2.6-3.3l-0.2-2.8h-0.8c-1.3,0-2.1,0.8-2.1,2.3c0,1.3,0.7,2.2,1.8,2.4v1.1
			c-1.6-0.1-2.8-1.5-2.8-3.5c0-2.1,1.2-3.4,3-3.4h6.2v1.1H37v0c1.1,0.5,1.9,1.8,1.9,3.1C38.8,262.4,37.8,263.7,36.2,263.7z
			 M35.3,257.6h-1l0.2,2.7c0.1,1.4,0.7,2.2,1.7,2.2c1,0,1.7-0.8,1.7-2.1C37.8,258.8,36.7,257.6,35.3,257.6z"/>
	</g>
</g>
</svg>
