<?xml version="1.0" encoding="utf-8"?>
<!-- Generator: Adobe Illustrator 26.2.1, SVG Export Plug-In . SVG Version: 6.00 Build 0)  -->
<svg version="1.1" id="Camada_1" xmlns="http://www.w3.org/2000/svg" xmlns:xlink="http://www.w3.org/1999/xlink" x="0px" y="0px"
	 viewBox="0 0 48.3 992.1" style="enable-background:new 0 0 48.3 992.1;" xml:space="preserve">
<style type="text/css">
	.st0{fill:#5B5B5F;}
	.st1{font-family:'SFProDisplay-Light';}
	.st2{font-size:17.933px;}
	.st3{fill:#333333;}
	.st4{font-family:'SFProDisplay-Bold';}
</style>
<text transform="matrix(6.123234e-17 -1 1 6.123234e-17 20.6901 976.0566)" class="st0 st1 st2">Debates</text>
<text transform="matrix(6.123234e-17 -1 1 6.123234e-17 20.6901 750.0566)" class="st0 st1 st2">Estratégia digital</text>
<text transform="matrix(6.123234e-17 -1 1 6.123234e-17 19.6993 876.3145)" class="st0 st1 st2">Gestão  </text>
<text transform="matrix(6.123234e-17 -1 1 6.123234e-17 38.6993 876.3145)" class="st0 st1 st2">segmentada</text>
<text transform="matrix(6.123234e-17 -1 1 6.123234e-17 19.6993 586.3145)" class="st0 st1 st2">Monitoramento  </text>
<text transform="matrix(6.123234e-17 -1 1 6.123234e-17 38.6993 586.3145)" class="st0 st1 st2">de redes sociais</text>
<text transform="matrix(6.123234e-17 -1 1 6.123234e-17 20.6901 433.0566)" class="st0 st1 st2">Produção</text>
<g>
	<text transform="matrix(6.123234e-17 -1 1 6.123234e-17 19.6993 334.3145)" class="st3 st4 st2">Criação  </text>
	<text transform="matrix(6.123234e-17 -1 1 6.123234e-17 38.6993 334.3145)" class="st3 st4 st2">publicitária</text>
</g>
<g>
	<g>
		<text transform="matrix(6.123234e-17 -1 1 6.123234e-17 19.6993 229.3135)" class="st0 st1 st2">Planejamento  </text>
		<text transform="matrix(6.123234e-17 -1 1 6.123234e-17 38.6993 229.3135)" class="st0 st1 st2">estratégico</text>
	</g>
</g>
<g>
	<text transform="matrix(6.123234e-17 -1 1 6.123234e-17 19.6993 94.3145)" class="st0 st1 st2">Pesquisas</text>
</g>
</svg>
