<?xml version="1.0" encoding="utf-8"?>
<!-- Generator: Adobe Illustrator 26.2.1, SVG Export Plug-In . SVG Version: 6.00 Build 0)  -->
<svg version="1.1" id="Camada_1" xmlns="http://www.w3.org/2000/svg" xmlns:xlink="http://www.w3.org/1999/xlink" x="0px" y="0px"
	 viewBox="0 0 48.3 992.1" style="enable-background:new 0 0 48.3 992.1;" xml:space="preserve">
<style type="text/css">
	.st0{enable-background:new    ;}
	.st1{fill:#5B5B5F;}
	.st2{fill:#333333;}
</style>
<g class="st0">
	<path class="st1" d="M8.1,970.8c0-3.8,2.3-6,6.3-6c4,0,6.3,2.2,6.3,6v4.1H8.1V970.8z M19.6,973.7v-2.8c0-3.1-1.9-4.8-5.2-4.8
		c-3.4,0-5.2,1.7-5.2,4.8v2.8H19.6z"/>
	<path class="st1" d="M18.1,955.7c1.6,0.3,2.7,1.8,2.7,3.8c0,2.6-1.8,4.1-4.7,4.1c-2.8,0-4.7-1.6-4.7-4.1c0-2.4,1.8-3.9,4.5-3.9h0.5
		v6.8h0.1c2.1,0,3.3-1.2,3.3-3c0-1.4-0.7-2.3-1.7-2.6V955.7z M15.5,962.4v-5.6c-1.8,0-3,1.1-3,2.8C12.4,961.2,13.7,962.3,15.5,962.4
		z"/>
	<path class="st1" d="M18.8,952.8L18.8,952.8l1.9,0v1.1H8.1v-1.2h5.4v0c-1.3-0.5-2-1.7-2-3.1c0-2.3,1.9-3.8,4.7-3.8s4.7,1.6,4.7,3.9
		C20.8,951.1,20,952.3,18.8,952.8z M16.1,952.8c2.2,0,3.7-1.2,3.7-2.9c0-1.8-1.4-2.9-3.7-2.9c-2.2,0-3.7,1.1-3.7,2.9
		C12.5,951.6,14,952.8,16.1,952.8z"/>
	<path class="st1" d="M18.2,944.6c-1.6,0-2.5-1.2-2.6-3.3l-0.2-2.8h-0.8c-1.3,0-2.1,0.8-2.1,2.3c0,1.3,0.7,2.2,1.8,2.4v1.1
		c-1.6-0.1-2.8-1.5-2.8-3.5s1.2-3.4,3-3.4h6.2v1.1H19v0c1.1,0.5,1.9,1.8,1.9,3.1C20.8,943.3,19.8,944.6,18.2,944.6z M17.3,938.5h-1
		l0.2,2.7c0.1,1.4,0.7,2.2,1.7,2.2c1,0,1.7-0.8,1.7-2.1C19.8,939.7,18.7,938.5,17.3,938.5z"/>
	<path class="st1" d="M9.3,933.7h2.3v-1.8h1v1.8h5.9c0.9,0,1.3-0.4,1.3-1.2c0-0.1,0-0.6,0-0.6h1c0,0.1,0.1,0.6,0.1,0.9
		c0,1.5-0.6,2.1-2.3,2.1h-5.9v1.4h-1v-1.4H9.3V933.7z"/>
	<path class="st1" d="M18.1,923.1c1.6,0.3,2.7,1.8,2.7,3.8c0,2.6-1.8,4.1-4.7,4.1c-2.8,0-4.7-1.6-4.7-4.1c0-2.4,1.8-3.9,4.5-3.9h0.5
		v6.8h0.1c2.1,0,3.3-1.2,3.3-3c0-1.4-0.7-2.3-1.7-2.6V923.1z M15.5,929.8v-5.6c-1.8,0-3,1.1-3,2.8C12.4,928.6,13.7,929.7,15.5,929.8
		z"/>
	<path class="st1" d="M11.4,918.4c0-1.9,1.1-3.2,2.7-3.3v1.1c-1.1,0.1-1.7,1-1.7,2.2c0,1.2,0.7,2.1,1.6,2.1c0.7,0,1.2-0.5,1.5-1.8
		l0.3-1.3c0.5-1.8,1.1-2.5,2.4-2.5c1.5,0,2.6,1.4,2.6,3.5c0,2-1.1,3.4-2.7,3.5v-1.2c1.1-0.2,1.7-1.1,1.7-2.4c0-1.4-0.6-2.3-1.6-2.3
		c-0.8,0-1.2,0.5-1.5,1.7l-0.4,1.5c-0.4,1.6-1.2,2.4-2.4,2.4C12.5,921.7,11.4,920.3,11.4,918.4z"/>
</g>
<g class="st0">
	<path class="st1" d="M20.7,741.2v7.6H8.1v-7.6h1.1v6.4h4.5v-6.1h1.1v6.1h4.9v-6.4H20.7z"/>
	<path class="st1" d="M11.4,736.4c0-1.9,1.1-3.2,2.7-3.3v1.1c-1.1,0.1-1.7,1-1.7,2.2c0,1.2,0.7,2.1,1.6,2.1c0.7,0,1.2-0.5,1.5-1.8
		l0.3-1.3c0.5-1.8,1.1-2.5,2.4-2.5c1.5,0,2.6,1.4,2.6,3.5c0,2-1.1,3.4-2.7,3.5v-1.2c1.1-0.2,1.7-1.1,1.7-2.4c0-1.4-0.6-2.3-1.6-2.3
		c-0.8,0-1.2,0.5-1.5,1.7l-0.4,1.5c-0.4,1.6-1.2,2.4-2.4,2.4C12.5,739.6,11.4,738.3,11.4,736.4z"/>
	<path class="st1" d="M9.3,729.7h2.3v-1.8h1v1.8h5.9c0.9,0,1.3-0.4,1.3-1.2c0-0.1,0-0.6,0-0.6h1c0,0.1,0.1,0.6,0.1,0.9
		c0,1.5-0.6,2.1-2.3,2.1h-5.9v1.4h-1v-1.4H9.3V729.7z"/>
	<path class="st1" d="M11.6,726.2v-1.1h1.6v0c-1.1-0.3-1.8-1.2-1.8-2.3c0-0.3,0.1-0.6,0.1-0.7h1.1c-0.1,0.1-0.1,0.5-0.1,0.9
		c0,1.3,1,2.1,2.5,2.1h5.7v1.2H11.6z"/>
	<path class="st1" d="M18.2,721.4c-1.6,0-2.5-1.2-2.6-3.3l-0.2-2.8h-0.8c-1.3,0-2.1,0.8-2.1,2.3c0,1.3,0.7,2.2,1.8,2.4v1.1
		c-1.6-0.1-2.8-1.5-2.8-3.5c0-2.1,1.2-3.4,3-3.4h6.2v1.1H19v0c1.1,0.5,1.9,1.8,1.9,3.1C20.8,720.2,19.8,721.4,18.2,721.4z
		 M17.3,715.3h-1l0.2,2.7c0.1,1.4,0.7,2.2,1.7,2.2c1,0,1.7-0.8,1.7-2.1C19.8,716.6,18.7,715.3,17.3,715.3z"/>
	<path class="st1" d="M9.3,710.6h2.3v-1.8h1v1.8h5.9c0.9,0,1.3-0.4,1.3-1.2c0-0.1,0-0.6,0-0.6h1c0,0.1,0.1,0.6,0.1,0.9
		c0,1.5-0.6,2.1-2.3,2.1h-5.9v1.4h-1v-1.4H9.3V710.6z"/>
	<path class="st1" d="M10.2,704.4l-2.6-1.9v-1.3l2.6,2.2V704.4z M18.1,700c1.6,0.3,2.7,1.8,2.7,3.8c0,2.6-1.8,4.1-4.7,4.1
		c-2.8,0-4.7-1.6-4.7-4.1c0-2.4,1.8-3.9,4.5-3.9h0.5v6.8h0.1c2.1,0,3.3-1.2,3.3-3c0-1.4-0.7-2.3-1.7-2.6V700z M15.5,706.7v-5.6
		c-1.8,0-3,1.1-3,2.8C12.4,705.5,13.7,706.6,15.5,706.7z"/>
	<path class="st1" d="M21.5,698.4v-1.2c0.9-0.3,1.5-1.3,1.5-2.6c0-1.7-1-2.8-2.5-2.8h-1.8v0c1.2,0.5,2,1.7,2,3.1
		c0,2.3-1.8,3.8-4.7,3.8c-2.8,0-4.7-1.5-4.7-3.9c0-1.5,0.8-2.6,2.1-3.2v0h-1.9v-1.1h9c2.1,0,3.5,1.6,3.5,4
		C24.1,696.6,23,698.1,21.5,698.4z M16.1,691.8c-2.2,0-3.7,1.2-3.7,2.9c0,1.7,1.4,2.9,3.7,2.9c2.2,0,3.6-1.1,3.6-2.9
		C19.8,693,18.3,691.8,16.1,691.8z"/>
	<path class="st1" d="M9,688.8c-0.4,0-0.8-0.3-0.8-0.8c0-0.4,0.3-0.8,0.8-0.8c0.4,0,0.8,0.4,0.8,0.8C9.7,688.4,9.4,688.8,9,688.8z
		 M11.6,688.6v-1.2h9.1v1.2H11.6z"/>
	<path class="st1" d="M18.2,685.7c-1.6,0-2.5-1.2-2.6-3.3l-0.2-2.8h-0.8c-1.3,0-2.1,0.8-2.1,2.3c0,1.3,0.7,2.2,1.8,2.4v1.1
		c-1.6-0.1-2.8-1.5-2.8-3.5c0-2.1,1.2-3.4,3-3.4h6.2v1.1H19v0c1.1,0.5,1.9,1.8,1.9,3.1C20.8,684.5,19.8,685.7,18.2,685.7z
		 M17.3,679.6h-1l0.2,2.7c0.1,1.4,0.7,2.2,1.7,2.2c1,0,1.7-0.8,1.7-2.1C19.8,680.8,18.7,679.6,17.3,679.6z"/>
	<path class="st1" d="M16.1,673.3c-2.8,0-4.7-1.6-4.7-3.9c0-1.5,0.8-2.6,2-3.1v0H8.1v-1.2h12.6v1.1h-1.9v0c1.2,0.5,2.1,1.7,2.1,3.2
		C20.8,671.7,19,673.3,16.1,673.3z M16.1,672.1c2.2,0,3.7-1.2,3.7-2.9c0-1.7-1.5-2.9-3.7-2.9c-2.2,0-3.7,1.2-3.7,2.9
		C12.5,670.9,13.9,672.1,16.1,672.1z"/>
	<path class="st1" d="M9,663.1c-0.4,0-0.8-0.3-0.8-0.8c0-0.4,0.3-0.8,0.8-0.8c0.4,0,0.8,0.4,0.8,0.8C9.7,662.8,9.4,663.1,9,663.1z
		 M11.6,662.9v-1.2h9.1v1.2H11.6z"/>
	<path class="st1" d="M21.5,659.7v-1.2c0.9-0.3,1.5-1.3,1.5-2.6c0-1.7-1-2.8-2.5-2.8h-1.8v0c1.2,0.5,2,1.7,2,3.1
		c0,2.3-1.8,3.8-4.7,3.8c-2.8,0-4.7-1.5-4.7-3.9c0-1.5,0.8-2.6,2.1-3.2v0h-1.9V652h9c2.1,0,3.5,1.5,3.5,4
		C24.1,658,23,659.5,21.5,659.7z M16.1,653.2c-2.2,0-3.7,1.2-3.7,2.9c0,1.7,1.4,2.9,3.7,2.9c2.2,0,3.6-1.1,3.6-2.9
		C19.8,654.3,18.3,653.2,16.1,653.2z"/>
	<path class="st1" d="M9,650.1c-0.4,0-0.8-0.4-0.8-0.8c0-0.4,0.3-0.8,0.8-0.8c0.4,0,0.8,0.3,0.8,0.8C9.7,649.8,9.4,650.1,9,650.1z
		 M11.6,649.9v-1.2h9.1v1.2H11.6z"/>
	<path class="st1" d="M9.3,645h2.3v-1.8h1v1.8h5.9c0.9,0,1.3-0.4,1.3-1.2c0-0.1,0-0.6,0-0.6h1c0,0.1,0.1,0.6,0.1,0.9
		c0,1.5-0.6,2.1-2.3,2.1h-5.9v1.4h-1v-1.4H9.3V645z"/>
	<path class="st1" d="M18.2,642.2c-1.6,0-2.5-1.2-2.6-3.3l-0.2-2.8h-0.8c-1.3,0-2.1,0.8-2.1,2.3c0,1.3,0.7,2.2,1.8,2.4v1.1
		c-1.6-0.1-2.8-1.5-2.8-3.5c0-2.1,1.2-3.4,3-3.4h6.2v1.1H19v0c1.1,0.5,1.9,1.8,1.9,3.1C20.8,641,19.8,642.2,18.2,642.2z M17.3,636.1
		h-1l0.2,2.7c0.1,1.4,0.7,2.2,1.7,2.2c1,0,1.7-0.8,1.7-2.1C19.8,637.3,18.7,636.1,17.3,636.1z"/>
	<path class="st1" d="M8.1,632.9v-1.2h12.6v1.2H8.1z"/>
</g>
<g class="st0">
	<path class="st1" d="M19.9,870c0,3.4-2.6,5.7-6.6,5.7c-3.9,0-6.4-2.2-6.4-5.7c0-2.7,1.6-4.7,4-5.2v1.2C9.1,866.6,8,868,8,870
		c0,2.7,2,4.4,5.3,4.4c3.3,0,5.5-1.7,5.5-4.4c0-2.4-1.6-4.1-3.9-4.1h-0.4v3.9h-1.1v-5.1h1.2C17.9,864.7,19.9,866.7,19.9,870z"/>
	<path class="st1" d="M17.1,855.5c1.6,0.3,2.7,1.8,2.7,3.8c0,2.6-1.8,4.1-4.7,4.1c-2.8,0-4.7-1.6-4.7-4.1c0-2.4,1.8-3.9,4.5-3.9h0.5
		v6.8h0.1c2.1,0,3.3-1.2,3.3-3c0-1.4-0.7-2.3-1.7-2.6V855.5z M14.5,862.2v-5.6c-1.8,0-3,1.1-3,2.8C11.5,861,12.7,862.1,14.5,862.2z"
		/>
	<path class="st1" d="M10.4,850.8c0-1.9,1.1-3.2,2.7-3.3v1.1c-1.1,0.1-1.7,1-1.7,2.2c0,1.2,0.7,2.1,1.6,2.1c0.7,0,1.2-0.5,1.5-1.8
		l0.3-1.3c0.5-1.8,1.1-2.5,2.4-2.5c1.5,0,2.6,1.4,2.6,3.5c0,2-1.1,3.4-2.7,3.5v-1.2c1.1-0.2,1.7-1.1,1.7-2.4c0-1.4-0.6-2.3-1.6-2.3
		c-0.8,0-1.2,0.5-1.5,1.7l-0.4,1.5c-0.4,1.6-1.2,2.4-2.4,2.4C11.5,854.1,10.4,852.7,10.4,850.8z"/>
	<path class="st1" d="M8.3,844.1h2.3v-1.8h1v1.8h5.9c0.9,0,1.3-0.4,1.3-1.2c0-0.1,0-0.6,0-0.6h1c0,0.1,0.1,0.6,0.1,0.9
		c0,1.5-0.6,2.1-2.3,2.1h-5.9v1.4h-1v-1.4H8.3V844.1z"/>
	<path class="st1" d="M7.8,838.5c0,0.5,0.5,0.7,1.3,0.7v0.8c-1.3,0-2.1-0.6-2.1-1.5c0-1.2,1.4-1.6,1.4-2.3c0-0.4-0.5-0.7-1.3-0.7
		v-0.8c1.3,0,2.1,0.6,2.1,1.5C9.1,837.3,7.8,837.7,7.8,838.5z M17.2,841.2c-1.6,0-2.5-1.2-2.6-3.3l-0.2-2.8h-0.8
		c-1.3,0-2.1,0.8-2.1,2.3c0,1.3,0.7,2.2,1.8,2.4v1.1c-1.6-0.1-2.8-1.5-2.8-3.5s1.2-3.4,3-3.4h6.2v1.1H18v0c1.1,0.5,1.9,1.8,1.9,3.1
		C19.8,839.9,18.8,841.2,17.2,841.2z M16.3,835.1h-1l0.2,2.7c0.1,1.4,0.7,2.2,1.7,2.2c1,0,1.7-0.8,1.7-2.1
		C18.8,836.3,17.7,835.1,16.3,835.1z"/>
	<path class="st1" d="M15.1,832.4c-2.9,0-4.7-1.7-4.7-4.2c0-2.5,1.8-4.2,4.7-4.2c2.9,0,4.7,1.7,4.7,4.2
		C19.8,830.8,18,832.4,15.1,832.4z M15.1,825.3c-2.3,0-3.7,1.2-3.7,3c0,1.8,1.4,3,3.7,3s3.7-1.2,3.7-3
		C18.8,826.5,17.5,825.3,15.1,825.3z"/>
</g>
<g class="st0">
	<path class="st1" d="M29.4,872.2c0-1.9,1.1-3.2,2.7-3.3v1.1c-1.1,0.1-1.7,1-1.7,2.2c0,1.2,0.7,2.1,1.6,2.1c0.7,0,1.2-0.5,1.5-1.8
		l0.3-1.3c0.5-1.8,1.1-2.5,2.4-2.5c1.5,0,2.6,1.4,2.6,3.5c0,2-1.1,3.4-2.7,3.5v-1.2c1.1-0.2,1.7-1.1,1.7-2.4s-0.6-2.3-1.6-2.3
		c-0.8,0-1.2,0.5-1.5,1.7l-0.4,1.5c-0.4,1.6-1.2,2.4-2.4,2.4C30.5,875.5,29.4,874.2,29.4,872.2z"/>
	<path class="st1" d="M36.1,859.8c1.6,0.3,2.7,1.8,2.7,3.8c0,2.6-1.8,4.1-4.7,4.1c-2.8,0-4.7-1.6-4.7-4.1c0-2.4,1.8-3.9,4.5-3.9h0.5
		v6.8h0.1c2.1,0,3.3-1.2,3.3-3c0-1.4-0.7-2.3-1.7-2.6V859.8z M33.5,866.5v-5.6c-1.8,0-3,1.1-3,2.8C30.5,865.2,31.7,866.4,33.5,866.5
		z"/>
	<path class="st1" d="M39.5,858.1v-1.2c0.9-0.3,1.5-1.3,1.5-2.6c0-1.7-1-2.8-2.5-2.8h-1.8v0c1.2,0.5,2,1.7,2,3.1
		c0,2.3-1.8,3.8-4.7,3.8c-2.8,0-4.7-1.5-4.7-3.9c0-1.5,0.8-2.6,2.1-3.2v0h-1.9v-1.1h9c2.1,0,3.5,1.5,3.5,4
		C42.1,856.4,41,857.9,39.5,858.1z M34.1,851.6c-2.2,0-3.7,1.2-3.7,2.9c0,1.7,1.4,2.9,3.7,2.9c2.2,0,3.6-1.1,3.6-2.9
		C37.8,852.7,36.3,851.6,34.1,851.6z"/>
	<path class="st1" d="M29.6,848.4v-1.1h1.7v0c-1.1-0.4-1.8-1.3-1.8-2.7c0-1.3,0.8-2.3,1.9-2.6v0c-1.1-0.4-1.9-1.5-1.9-2.9
		c0-1.8,1.2-2.9,3-2.9h6.2v1.2h-6c-1.4,0-2.3,0.8-2.3,2.1c0,1.3,1,2.3,2.5,2.3h5.7v1.2h-6.1c-1.3,0-2.2,0.8-2.2,2.1
		c0,1.3,1.1,2.3,2.6,2.3h5.6v1.2H29.6z"/>
	<path class="st1" d="M36.1,826.8c1.6,0.3,2.7,1.8,2.7,3.8c0,2.6-1.8,4.1-4.7,4.1c-2.8,0-4.7-1.6-4.7-4.1c0-2.4,1.8-3.9,4.5-3.9h0.5
		v6.8h0.1c2.1,0,3.3-1.2,3.3-3c0-1.4-0.7-2.3-1.7-2.6V826.8z M33.5,833.5v-5.6c-1.8,0-3,1.1-3,2.8C30.5,832.2,31.7,833.4,33.5,833.5
		z"/>
	<path class="st1" d="M29.6,825.1V824h1.7v0c-1.1-0.5-1.8-1.5-1.8-3c0-2,1.3-3.2,3.4-3.2h5.9v1.2H33c-1.6,0-2.5,0.9-2.5,2.4
		c0,1.6,1.1,2.6,2.8,2.6h5.4v1.2H29.6z"/>
	<path class="st1" d="M27.3,814.1h2.3v-1.8h1v1.8h5.9c0.9,0,1.3-0.4,1.3-1.2c0-0.1,0-0.6,0-0.6h1c0,0.1,0.1,0.6,0.1,0.9
		c0,1.5-0.6,2.1-2.3,2.1h-5.9v1.4h-1v-1.4h-2.3V814.1z"/>
	<path class="st1" d="M36.2,811.3c-1.6,0-2.5-1.2-2.6-3.3l-0.2-2.8h-0.8c-1.3,0-2.1,0.8-2.1,2.3c0,1.3,0.7,2.2,1.8,2.4v1.1
		c-1.6-0.1-2.8-1.5-2.8-3.5s1.2-3.4,3-3.4h6.2v1.1H37v0c1.1,0.5,1.9,1.8,1.9,3.1C38.8,810.1,37.8,811.3,36.2,811.3z M35.3,805.2h-1
		l0.2,2.7c0.1,1.4,0.7,2.2,1.7,2.2c1,0,1.7-0.8,1.7-2.1C37.8,806.4,36.7,805.2,35.3,805.2z"/>
	<path class="st1" d="M34.1,802.5c-2.8,0-4.7-1.6-4.7-3.9c0-1.5,0.8-2.6,2-3.1v0h-5.4v-1.2h12.6v1.1h-1.9v0c1.2,0.5,2.1,1.7,2.1,3.2
		C38.8,800.9,37,802.5,34.1,802.5z M34.1,801.3c2.2,0,3.7-1.2,3.7-2.9c0-1.7-1.5-2.9-3.7-2.9c-2.2,0-3.7,1.2-3.7,2.9
		C30.5,800.2,31.9,801.3,34.1,801.3z"/>
	<path class="st1" d="M36.2,792.6c-1.6,0-2.5-1.2-2.6-3.3l-0.2-2.8h-0.8c-1.3,0-2.1,0.8-2.1,2.3c0,1.3,0.7,2.2,1.8,2.4v1.1
		c-1.6-0.1-2.8-1.5-2.8-3.5c0-2.1,1.2-3.4,3-3.4h6.2v1.1H37v0c1.1,0.5,1.9,1.8,1.9,3.1C38.8,791.4,37.8,792.6,36.2,792.6z
		 M35.3,786.5h-1l0.2,2.7c0.1,1.4,0.7,2.2,1.7,2.2c1,0,1.7-0.8,1.7-2.1C37.8,787.8,36.7,786.5,35.3,786.5z"/>
</g>
<g class="st0">
	<path class="st1" d="M19.7,574.1H9.3v0.1l10.3,4.4v1L9.3,584v0.1h10.4v1.1H7.1v-1.4l11.1-4.7V579l-11.1-4.7V573h12.6V574.1z"/>
	<path class="st1" d="M15.1,571.2c-2.9,0-4.7-1.7-4.7-4.2c0-2.5,1.8-4.2,4.7-4.2c2.9,0,4.7,1.7,4.7,4.2S18,571.2,15.1,571.2z
		 M15.1,564.1c-2.3,0-3.7,1.2-3.7,3s1.4,3,3.7,3s3.7-1.2,3.7-3S17.5,564.1,15.1,564.1z"/>
	<path class="st1" d="M10.6,561.4v-1.1h1.7v0c-1.1-0.5-1.8-1.5-1.8-3c0-2,1.3-3.2,3.4-3.2h5.9v1.2H14c-1.6,0-2.5,0.9-2.5,2.4
		c0,1.6,1.1,2.6,2.8,2.6h5.4v1.2H10.6z"/>
	<path class="st1" d="M8,552.2c-0.4,0-0.8-0.4-0.8-0.8c0-0.4,0.3-0.8,0.8-0.8c0.4,0,0.8,0.3,0.8,0.8C8.8,551.9,8.4,552.2,8,552.2z
		 M10.6,552v-1.2h9.1v1.2H10.6z"/>
	<path class="st1" d="M8.3,547.1h2.3v-1.8h1v1.8h5.9c0.9,0,1.3-0.4,1.3-1.2c0-0.1,0-0.6,0-0.6h1c0,0.1,0.1,0.6,0.1,0.9
		c0,1.5-0.6,2.1-2.3,2.1h-5.9v1.4h-1v-1.4H8.3V547.1z"/>
	<path class="st1" d="M15.1,544.5c-2.9,0-4.7-1.7-4.7-4.2c0-2.5,1.8-4.2,4.7-4.2c2.9,0,4.7,1.7,4.7,4.2
		C19.8,542.8,18,544.5,15.1,544.5z M15.1,537.3c-2.3,0-3.7,1.2-3.7,3c0,1.8,1.4,3,3.7,3s3.7-1.2,3.7-3
		C18.8,538.5,17.5,537.3,15.1,537.3z"/>
	<path class="st1" d="M10.6,534.6v-1.1h1.6v0c-1.1-0.3-1.8-1.2-1.8-2.3c0-0.3,0.1-0.6,0.1-0.7h1.1c-0.1,0.1-0.1,0.5-0.1,0.9
		c0,1.3,1,2.1,2.5,2.1h5.7v1.2H10.6z"/>
	<path class="st1" d="M17.2,529.8c-1.6,0-2.5-1.2-2.6-3.3l-0.2-2.8h-0.8c-1.3,0-2.1,0.8-2.1,2.3c0,1.3,0.7,2.2,1.8,2.4v1.1
		c-1.6-0.1-2.8-1.5-2.8-3.5c0-2.1,1.2-3.4,3-3.4h6.2v1.1H18v0c1.1,0.5,1.9,1.8,1.9,3.1C19.8,528.6,18.8,529.8,17.2,529.8z
		 M16.3,523.7h-1l0.2,2.7c0.1,1.4,0.7,2.2,1.7,2.2c1,0,1.7-0.8,1.7-2.1C18.8,525,17.7,523.7,16.3,523.7z"/>
	<path class="st1" d="M10.6,520.6v-1.1h1.7v0c-1.1-0.4-1.8-1.3-1.8-2.7c0-1.3,0.8-2.3,1.9-2.6v0c-1.1-0.4-1.9-1.5-1.9-2.9
		c0-1.8,1.2-2.9,3-2.9h6.2v1.2h-6c-1.4,0-2.3,0.8-2.3,2.1c0,1.3,1,2.3,2.5,2.3h5.7v1.2h-6.1c-1.3,0-2.2,0.8-2.2,2.1
		c0,1.3,1.1,2.3,2.6,2.3h5.6v1.2H10.6z"/>
	<path class="st1" d="M17.1,499c1.6,0.3,2.7,1.8,2.7,3.8c0,2.6-1.8,4.1-4.7,4.1c-2.8,0-4.7-1.6-4.7-4.1c0-2.4,1.8-3.9,4.5-3.9h0.5
		v6.8h0.1c2.1,0,3.3-1.2,3.3-3c0-1.4-0.7-2.3-1.7-2.6V499z M14.5,505.7v-5.6c-1.8,0-3,1.1-3,2.8C11.5,504.5,12.7,505.6,14.5,505.7z"
		/>
	<path class="st1" d="M10.6,497.3v-1.1h1.7v0c-1.1-0.5-1.8-1.5-1.8-3c0-2,1.3-3.2,3.4-3.2h5.9v1.2H14c-1.6,0-2.5,0.9-2.5,2.4
		c0,1.6,1.1,2.6,2.8,2.6h5.4v1.2H10.6z"/>
	<path class="st1" d="M8.3,486.4h2.3v-1.8h1v1.8h5.9c0.9,0,1.3-0.4,1.3-1.2c0-0.1,0-0.6,0-0.6h1c0,0.1,0.1,0.6,0.1,0.9
		c0,1.5-0.6,2.1-2.3,2.1h-5.9v1.4h-1v-1.4H8.3V486.4z"/>
	<path class="st1" d="M15.1,483.7c-2.9,0-4.7-1.7-4.7-4.2c0-2.5,1.8-4.2,4.7-4.2c2.9,0,4.7,1.7,4.7,4.2S18,483.7,15.1,483.7z
		 M15.1,476.6c-2.3,0-3.7,1.2-3.7,3c0,1.8,1.4,3,3.7,3s3.7-1.2,3.7-3C18.8,477.8,17.5,476.6,15.1,476.6z"/>
</g>
<g class="st0">
	<path class="st1" d="M34.1,585.8c-2.8,0-4.7-1.6-4.7-3.9c0-1.5,0.8-2.6,2-3.1v0h-5.4v-1.2h12.6v1.1h-1.9v0c1.2,0.5,2.1,1.7,2.1,3.2
		C38.8,584.2,37,585.8,34.1,585.8z M34.1,584.6c2.2,0,3.7-1.2,3.7-2.9c0-1.7-1.5-2.9-3.7-2.9c-2.2,0-3.7,1.2-3.7,2.9
		C30.5,583.4,31.9,584.6,34.1,584.6z"/>
	<path class="st1" d="M36.1,568.1c1.6,0.3,2.7,1.8,2.7,3.8c0,2.6-1.8,4.1-4.7,4.1c-2.8,0-4.7-1.6-4.7-4.1c0-2.4,1.8-3.9,4.5-3.9h0.5
		v6.8h0.1c2.1,0,3.3-1.2,3.3-3c0-1.4-0.7-2.3-1.7-2.6V568.1z M33.5,574.8v-5.6c-1.8,0-3,1.1-3,2.8C30.5,573.5,31.7,574.7,33.5,574.8
		z"/>
	<path class="st1" d="M29.6,562.7v-1.1h1.6v0c-1.1-0.3-1.8-1.2-1.8-2.3c0-0.3,0.1-0.6,0.1-0.7h1.1c-0.1,0.1-0.1,0.5-0.1,0.9
		c0,1.3,1,2.1,2.5,2.1h5.7v1.2H29.6z"/>
	<path class="st1" d="M36.1,550.4c1.6,0.3,2.7,1.8,2.7,3.8c0,2.6-1.8,4.1-4.7,4.1c-2.8,0-4.7-1.6-4.7-4.1c0-2.4,1.8-3.9,4.5-3.9h0.5
		v6.8h0.1c2.1,0,3.3-1.2,3.3-3c0-1.4-0.7-2.3-1.7-2.6V550.4z M33.5,557.1v-5.6c-1.8,0-3,1.1-3,2.8C30.5,555.9,31.7,557,33.5,557.1z"
		/>
	<path class="st1" d="M34.1,549.2c-2.8,0-4.7-1.6-4.7-3.9c0-1.5,0.8-2.6,2-3.1v0h-5.4V541h12.6v1.1h-1.9v0c1.2,0.5,2.1,1.7,2.1,3.2
		C38.8,547.6,37,549.2,34.1,549.2z M34.1,548c2.2,0,3.7-1.2,3.7-2.9c0-1.7-1.5-2.9-3.7-2.9c-2.2,0-3.7,1.2-3.7,2.9
		C30.5,546.9,31.9,548,34.1,548z"/>
	<path class="st1" d="M36.1,531.5c1.6,0.3,2.7,1.8,2.7,3.8c0,2.6-1.8,4.1-4.7,4.1c-2.8,0-4.7-1.6-4.7-4.1c0-2.4,1.8-3.9,4.5-3.9h0.5
		v6.8h0.1c2.1,0,3.3-1.2,3.3-3c0-1.4-0.7-2.3-1.7-2.6V531.5z M33.5,538.2v-5.6c-1.8,0-3,1.1-3,2.8C30.5,537,31.7,538.1,33.5,538.2z"
		/>
	<path class="st1" d="M29.4,526.8c0-1.9,1.1-3.2,2.7-3.3v1.1c-1.1,0.1-1.7,1-1.7,2.2c0,1.2,0.7,2.1,1.6,2.1c0.7,0,1.2-0.5,1.5-1.8
		l0.3-1.3c0.5-1.8,1.1-2.5,2.4-2.5c1.5,0,2.6,1.4,2.6,3.5c0,2-1.1,3.4-2.7,3.5v-1.2c1.1-0.2,1.7-1.1,1.7-2.4c0-1.4-0.6-2.3-1.6-2.3
		c-0.8,0-1.2,0.5-1.5,1.7l-0.4,1.5c-0.4,1.6-1.2,2.4-2.4,2.4C30.5,530,29.4,528.7,29.4,526.8z"/>
	<path class="st1" d="M29.4,515c0-1.9,1.1-3.2,2.7-3.3v1.1c-1.1,0.1-1.7,1-1.7,2.2c0,1.2,0.7,2.1,1.6,2.1c0.7,0,1.2-0.5,1.5-1.8
		l0.3-1.3c0.5-1.8,1.1-2.5,2.4-2.5c1.5,0,2.6,1.4,2.6,3.5c0,2-1.1,3.4-2.7,3.5v-1.2c1.1-0.2,1.7-1.1,1.7-2.4s-0.6-2.3-1.6-2.3
		c-0.8,0-1.2,0.5-1.5,1.7l-0.4,1.5c-0.4,1.6-1.2,2.4-2.4,2.4C30.5,518.3,29.4,516.9,29.4,515z"/>
	<path class="st1" d="M34.1,510.4c-2.9,0-4.7-1.7-4.7-4.2c0-2.5,1.8-4.2,4.7-4.2c2.9,0,4.7,1.7,4.7,4.2
		C38.8,508.7,37,510.4,34.1,510.4z M34.1,503.3c-2.3,0-3.7,1.2-3.7,3c0,1.8,1.4,3,3.7,3s3.7-1.2,3.7-3
		C37.8,504.5,36.5,503.3,34.1,503.3z"/>
	<path class="st1" d="M32.5,494.3c-1.1,0.2-2,1.2-2,2.6c0,1.8,1.4,2.9,3.7,2.9c2.3,0,3.7-1.2,3.7-3c0-1.4-0.8-2.3-1.9-2.6v-1.1
		c1.7,0.3,3,1.7,3,3.7c0,2.5-1.8,4.1-4.7,4.1c-2.9,0-4.7-1.6-4.7-4.1c0-2.1,1.4-3.5,3-3.7V494.3z"/>
	<path class="st1" d="M27,491.8c-0.4,0-0.8-0.4-0.8-0.8c0-0.4,0.3-0.8,0.8-0.8c0.4,0,0.8,0.4,0.8,0.8
		C27.8,491.5,27.4,491.8,27,491.8z M29.6,491.6v-1.2h9.1v1.2H29.6z"/>
	<path class="st1" d="M36.2,488.7c-1.6,0-2.5-1.2-2.6-3.3l-0.2-2.8h-0.8c-1.3,0-2.1,0.8-2.1,2.3c0,1.3,0.7,2.2,1.8,2.4v1.1
		c-1.6-0.1-2.8-1.5-2.8-3.5c0-2.1,1.2-3.4,3-3.4h6.2v1.1H37v0c1.1,0.5,1.9,1.8,1.9,3.1C38.8,487.5,37.8,488.7,36.2,488.7z
		 M35.3,482.6h-1l0.2,2.7c0.1,1.4,0.7,2.2,1.7,2.2c1,0,1.7-0.8,1.7-2.1C37.8,483.9,36.7,482.6,35.3,482.6z"/>
	<path class="st1" d="M27,479.6c-0.4,0-0.8-0.4-0.8-0.8c0-0.4,0.3-0.8,0.8-0.8c0.4,0,0.8,0.3,0.8,0.8
		C27.8,479.3,27.4,479.6,27,479.6z M29.6,479.4v-1.2h9.1v1.2H29.6z"/>
	<path class="st1" d="M29.4,473.1c0-1.9,1.1-3.2,2.7-3.3v1.1c-1.1,0.1-1.7,1-1.7,2.2c0,1.2,0.7,2.1,1.6,2.1c0.7,0,1.2-0.5,1.5-1.8
		l0.3-1.3c0.5-1.8,1.1-2.5,2.4-2.5c1.5,0,2.6,1.4,2.6,3.5c0,2-1.1,3.4-2.7,3.5v-1.2c1.1-0.2,1.7-1.1,1.7-2.4s-0.6-2.3-1.6-2.3
		c-0.8,0-1.2,0.5-1.5,1.7l-0.4,1.5c-0.4,1.6-1.2,2.4-2.4,2.4C30.5,476.4,29.4,475,29.4,473.1z"/>
</g>
<g class="st0">
	<path class="st1" d="M8.1,427.6c0-2.4,1.6-4.1,3.9-4.1s3.9,1.7,3.9,4.1v3.1h4.8v1.2H8.1V427.6z M14.9,430.7v-2.8
		c0-1.9-1.1-3.1-2.9-3.1s-2.9,1.2-2.9,3.1v2.8H14.9z"/>
	<path class="st1" d="M11.6,421.9v-1.1h1.6v0c-1.1-0.3-1.8-1.2-1.8-2.3c0-0.3,0.1-0.6,0.1-0.7h1.1c-0.1,0.1-0.1,0.5-0.1,0.9
		c0,1.3,1,2.1,2.5,2.1h5.7v1.2H11.6z"/>
	<path class="st1" d="M16.1,417.5c-2.9,0-4.7-1.7-4.7-4.2c0-2.5,1.8-4.2,4.7-4.2c2.9,0,4.7,1.7,4.7,4.2
		C20.8,415.8,19,417.5,16.1,417.5z M16.1,410.3c-2.3,0-3.7,1.2-3.7,3c0,1.8,1.4,3,3.7,3s3.7-1.2,3.7-3
		C19.8,411.5,18.4,410.3,16.1,410.3z"/>
	<path class="st1" d="M16.1,408.1c-2.8,0-4.7-1.6-4.7-3.9c0-1.5,0.8-2.6,2-3.1v0H8.1v-1.2h12.6v1.1h-1.9v0c1.2,0.5,2.1,1.7,2.1,3.2
		C20.8,406.5,19,408.1,16.1,408.1z M16.1,406.9c2.2,0,3.7-1.2,3.7-2.9c0-1.7-1.5-2.9-3.7-2.9c-2.2,0-3.7,1.2-3.7,2.9
		C12.5,405.7,13.9,406.9,16.1,406.9z"/>
	<path class="st1" d="M20.7,390.5v1.1H19v0c1.1,0.5,1.8,1.6,1.8,3c0,2-1.3,3.2-3.3,3.2h-5.9v-1.2h5.7c1.6,0,2.5-0.9,2.5-2.4
		c0-1.6-1.1-2.7-2.8-2.7h-5.4v-1.2H20.7z"/>
	<path class="st1" d="M17.9,381.1c1.6,0.2,2.8,1.5,2.9,3.3l1,0.5c0-1.1,0.5-1.9,1.4-1.9c1,0,1.5,0.9,1.5,2c0,0.5-0.1,1-0.1,1.2h-0.7
		c0.1-0.2,0.1-0.7,0.1-1.1c0-0.8-0.3-1.2-0.8-1.2c-0.5,0-0.7,0.4-0.7,1.3v0.5h-0.5l-1.2-0.5c-0.2,2.3-1.9,3.7-4.7,3.7
		c-2.9,0-4.7-1.6-4.7-4.1c0-2.1,1.4-3.5,3-3.7v1.1c-1.1,0.2-2,1.2-2,2.6c0,1.8,1.4,2.9,3.7,2.9c2.3,0,3.7-1.2,3.7-3
		c0-1.4-0.8-2.3-1.9-2.6V381.1z"/>
	<path class="st1" d="M8.8,377.3c0,0.5,0.5,0.7,1.3,0.7v0.8c-1.3,0-2.1-0.6-2.1-1.5c0-1.2,1.4-1.6,1.4-2.3c0-0.4-0.5-0.7-1.3-0.7
		v-0.8c1.3,0,2.1,0.6,2.1,1.5C10.1,376.1,8.8,376.6,8.8,377.3z M18.2,380c-1.6,0-2.5-1.2-2.6-3.3l-0.2-2.8h-0.8
		c-1.3,0-2.1,0.8-2.1,2.3c0,1.3,0.7,2.2,1.8,2.4v1.1c-1.6-0.1-2.8-1.5-2.8-3.5c0-2.1,1.2-3.4,3-3.4h6.2v1.1H19v0
		c1.1,0.5,1.9,1.8,1.9,3.1C20.8,378.8,19.8,380,18.2,380z M17.3,373.9h-1l0.2,2.7c0.1,1.4,0.7,2.2,1.7,2.2c1,0,1.7-0.8,1.7-2.1
		C19.8,375.1,18.7,373.9,17.3,373.9z"/>
	<path class="st1" d="M16.1,371.2c-2.9,0-4.7-1.7-4.7-4.2c0-2.5,1.8-4.2,4.7-4.2c2.9,0,4.7,1.7,4.7,4.2
		C20.8,369.6,19,371.2,16.1,371.2z M16.1,364.1c-2.3,0-3.7,1.2-3.7,3c0,1.8,1.4,3,3.7,3s3.7-1.2,3.7-3
		C19.8,365.3,18.4,364.1,16.1,364.1z"/>
</g>
<g>
	<g class="st0">
		<path class="st2" d="M13.4,333.7c-4.1,0-6.5-2.3-6.5-6c0-3,1.9-5.4,4.8-5.6v2.6c-1.6,0.2-2.6,1.4-2.6,3c0,2,1.7,3.3,4.3,3.3
			c2.7,0,4.4-1.3,4.4-3.3c0-1.6-0.9-2.7-2.4-3v-2.6c2.8,0.3,4.6,2.5,4.6,5.6C19.9,331.4,17.5,333.7,13.4,333.7z"/>
		<path class="st2" d="M10.3,320.7v-2.5H12v-0.1c-1.2-0.3-1.8-1.1-1.8-2.2c0-0.3,0-0.6,0.1-0.7h2.3c-0.1,0.2-0.1,0.6-0.1,0.9
			c0,1.3,0.8,2,2.1,2h5.2v2.6H10.3z"/>
		<path class="st2" d="M7.7,314.2c-0.7,0-1.3-0.6-1.3-1.3c0-0.7,0.6-1.3,1.3-1.3c0.7,0,1.3,0.6,1.3,1.3C9,313.6,8.4,314.2,7.7,314.2
			z M10.3,314.1v-2.6h9.4v2.6H10.3z"/>
		<path class="st2" d="M17,310.2c-1.7,0-2.7-1.3-2.8-3.7l-0.1-2.4h-0.6c-0.9,0-1.4,0.6-1.4,1.6c0,1,0.5,1.6,1.2,1.7v2.3
			c-1.8-0.1-3.1-1.6-3.1-4.1c0-2.4,1.2-4,3.1-4h6.5v2.5h-1.4v0.1c1,0.5,1.6,1.7,1.6,2.9C19.8,308.9,18.7,310.2,17,310.2z
			 M16.3,304.2h-0.7l0.1,2c0.1,1,0.5,1.5,1.2,1.5c0.7,0,1.1-0.6,1.1-1.4C18,305.1,17.3,304.2,16.3,304.2z"/>
		<path class="st2" d="M16.3,291.5c2,0.1,3.4,1.5,3.6,3.6l0.8,0.4c0-1,0.6-1.6,1.5-1.6c1.1,0,1.6,0.9,1.6,2.2c0,0.5,0,1-0.1,1.2
			h-1.1c0.1-0.2,0.1-0.6,0.1-0.9c0-0.6-0.1-1-0.4-1c-0.4,0-0.5,0.3-0.5,1.1v0.6h-0.9l-1-0.5c-0.3,2.4-2.1,3.9-4.9,3.9
			c-3,0-4.9-1.8-4.9-4.6c0-2.5,1.6-4.2,3.7-4.3v2.4c-1,0.1-1.7,0.8-1.7,1.9c0,1.3,1.1,2,2.9,2c1.8,0,2.9-0.8,2.9-2.1
			c0-1-0.6-1.7-1.6-1.8V291.5z"/>
		<path class="st2" d="M7.9,287.2c0,0.4,0.3,0.7,1,0.7v1.4c-1.6,0-2.5-0.8-2.5-2c0-1.3,1.1-1.6,1.1-2.2c0-0.5-0.4-0.7-1.1-0.7v-1.4
			c1.6,0,2.5,0.8,2.5,2C9,286.3,7.9,286.6,7.9,287.2z M17,290.7c-1.7,0-2.7-1.3-2.8-3.7l-0.1-2.4h-0.6c-0.9,0-1.4,0.6-1.4,1.6
			c0,1,0.5,1.6,1.2,1.7v2.3c-1.8-0.1-3.1-1.6-3.1-4.1c0-2.4,1.2-4,3.1-4h6.5v2.5h-1.4v0.1c1,0.5,1.6,1.7,1.6,2.9
			C19.8,289.3,18.7,290.7,17,290.7z M16.3,284.6h-0.7l0.1,2c0.1,1,0.5,1.5,1.2,1.5c0.7,0,1.1-0.6,1.1-1.4
			C18,285.6,17.3,284.6,16.3,284.6z"/>
		<path class="st2" d="M15,280.8c-3,0-4.9-1.8-4.9-4.7s1.8-4.7,4.9-4.7c3.1,0,4.9,1.8,4.9,4.7C19.9,279,18.1,280.8,15,280.8z
			 M15,274.1c-1.9,0-2.9,0.8-2.9,2s1.1,2.1,2.9,2.1c1.9,0,2.9-0.8,2.9-2.1C17.9,274.9,16.9,274.1,15,274.1z"/>
	</g>
	<g class="st0">
		<path class="st2" d="M34,324.2c3,0,4.8,1.5,4.8,3.8c0,1.4-0.7,2.4-1.7,2.9v0.1h4.6v2.6H29.3V331h1.6v-0.1
			c-1.1-0.5-1.8-1.6-1.8-2.9C29.2,325.6,31,324.2,34,324.2z M34,326.8c-1.7,0-2.8,0.8-2.8,2.1c0,1.3,1.1,2.1,2.8,2.1
			c1.7,0,2.8-0.8,2.8-2.1C36.8,327.6,35.7,326.8,34,326.8z"/>
		<path class="st2" d="M38.7,314.2v2.5H37v0.1c1.2,0.5,1.9,1.4,1.9,2.8c0,2-1.3,3.4-3.5,3.4h-6.1v-2.6h5.5c1.3,0,1.9-0.6,1.9-1.8
			c0-1.1-0.8-1.8-2.1-1.8h-5.4v-2.6H38.7z"/>
		<path class="st2" d="M37.1,309.9L37.1,309.9l1.6,0.1v2.5H26.1v-2.6h4.9v-0.1c-1.1-0.5-1.8-1.6-1.8-2.9c0-2.4,1.8-3.8,4.8-3.8
			c3,0,4.8,1.4,4.8,3.8C38.8,308.3,38.2,309.4,37.1,309.9z M34,309.9c1.7,0,2.8-0.8,2.8-2.1c0-1.3-1.1-2.1-2.8-2.1
			c-1.7,0-2.8,0.8-2.8,2.1C31.2,309.1,32.3,309.9,34,309.9z"/>
		<path class="st2" d="M26.1,301.7v-2.6h12.6v2.6H26.1z"/>
		<path class="st2" d="M26.7,297.5c-0.7,0-1.3-0.6-1.3-1.3c0-0.7,0.6-1.3,1.3-1.3c0.7,0,1.3,0.6,1.3,1.3
			C28,296.9,27.4,297.5,26.7,297.5z M29.3,297.4v-2.6h9.4v2.6H29.3z"/>
		<path class="st2" d="M32.8,287c-1,0.1-1.7,0.8-1.7,1.9c0,1.3,1.1,2,2.9,2c1.8,0,2.9-0.8,2.9-2.1c0-1-0.6-1.7-1.6-1.8v-2.4
			c2.2,0.1,3.6,1.8,3.6,4.3c0,2.8-1.8,4.6-4.9,4.6c-3,0-4.9-1.8-4.9-4.6c0-2.5,1.6-4.2,3.7-4.3V287z"/>
		<path class="st2" d="M26.7,283.4c-0.7,0-1.3-0.6-1.3-1.3c0-0.7,0.6-1.3,1.3-1.3c0.7,0,1.3,0.6,1.3,1.3
			C28,282.8,27.4,283.4,26.7,283.4z M29.3,283.3v-2.6h9.4v2.6H29.3z"/>
		<path class="st2" d="M27.1,275.8h2.2v-1.7h1.9v1.7h4.5c0.7,0,1.1-0.4,1.1-1.1c0-0.2,0-0.5,0-0.6h1.9c0.1,0.3,0.1,0.7,0.1,1.2
			c0,2.2-0.7,3.1-2.6,3.1h-4.9v1.3h-1.9v-1.3h-2.2V275.8z"/>
		<path class="st2" d="M28,269.6l-2.7-1.4v-2.3l2.7,2V269.6z M36,273.2c-1.7,0-2.7-1.3-2.8-3.7l-0.1-2.4h-0.6
			c-0.9,0-1.4,0.6-1.4,1.6c0,1,0.5,1.6,1.2,1.7v2.3c-1.8-0.1-3.1-1.6-3.1-4.1c0-2.4,1.2-4,3.1-4h6.5v2.5h-1.4v0.1
			c1,0.5,1.6,1.7,1.6,2.9C38.8,271.8,37.7,273.2,36,273.2z M35.3,267.1h-0.7l0.1,2c0.1,1,0.5,1.5,1.2,1.5c0.7,0,1.1-0.6,1.1-1.4
			C37,268.1,36.3,267.1,35.3,267.1z"/>
		<path class="st2" d="M29.3,263v-2.5H31v-0.1c-1.2-0.3-1.8-1.1-1.8-2.2c0-0.3,0-0.6,0.1-0.7h2.3c-0.1,0.2-0.1,0.6-0.1,0.9
			c0,1.3,0.8,2,2.1,2h5.2v2.6H29.3z"/>
		<path class="st2" d="M26.7,256.5c-0.7,0-1.3-0.6-1.3-1.3c0-0.7,0.6-1.3,1.3-1.3c0.7,0,1.3,0.6,1.3,1.3
			C28,255.9,27.4,256.5,26.7,256.5z M29.3,256.4v-2.6h9.4v2.6H29.3z"/>
		<path class="st2" d="M36,252.5c-1.7,0-2.7-1.3-2.8-3.7l-0.1-2.4h-0.6c-0.9,0-1.4,0.6-1.4,1.6c0,1,0.5,1.6,1.2,1.7v2.3
			c-1.8-0.1-3.1-1.6-3.1-4.1c0-2.4,1.2-4,3.1-4h6.5v2.5h-1.4v0.1c1,0.5,1.6,1.7,1.6,2.9C38.8,251.2,37.7,252.5,36,252.5z
			 M35.3,246.5h-0.7l0.1,2c0.1,1,0.5,1.5,1.2,1.5c0.7,0,1.1-0.6,1.1-1.4C37,247.4,36.3,246.5,35.3,246.5z"/>
	</g>
</g>
<g class="st0">
	<path class="st1" d="M7.1,223.8c0-2.4,1.6-4.1,3.9-4.1s3.9,1.7,3.9,4.1v3.1h4.8v1.2H7.1V223.8z M13.9,226.9v-2.8
		c0-1.9-1.1-3.1-2.9-3.1s-2.9,1.2-2.9,3.1v2.8H13.9z"/>
	<path class="st1" d="M7.1,218.2V217h12.6v1.2H7.1z"/>
	<path class="st1" d="M17.2,215.3c-1.6,0-2.5-1.2-2.6-3.3l-0.2-2.8h-0.8c-1.3,0-2.1,0.8-2.1,2.3c0,1.3,0.7,2.2,1.8,2.4v1.1
		c-1.6-0.1-2.8-1.5-2.8-3.5c0-2.1,1.2-3.4,3-3.4h6.2v1.1H18v0c1.1,0.5,1.9,1.8,1.9,3.1C19.8,214,18.8,215.3,17.2,215.3z M16.3,209.2
		h-1l0.2,2.7c0.1,1.4,0.7,2.2,1.7,2.2c1,0,1.7-0.8,1.7-2.1C18.8,210.4,17.7,209.2,16.3,209.2z"/>
	<path class="st1" d="M10.6,206.1V205h1.7v0c-1.1-0.5-1.8-1.5-1.8-3c0-2,1.3-3.2,3.4-3.2h5.9v1.2H14c-1.6,0-2.5,0.9-2.5,2.4
		c0,1.6,1.1,2.6,2.8,2.6h5.4v1.2H10.6z"/>
	<path class="st1" d="M17.1,189.3c1.6,0.3,2.7,1.8,2.7,3.8c0,2.6-1.8,4.1-4.7,4.1c-2.8,0-4.7-1.6-4.7-4.1c0-2.4,1.8-3.9,4.5-3.9h0.5
		v6.8h0.1c2.1,0,3.3-1.2,3.3-3c0-1.4-0.7-2.3-1.7-2.6V189.3z M14.5,196v-5.6c-1.8,0-3,1.1-3,2.8C11.5,194.8,12.7,195.9,14.5,196z"/>
	<path class="st1" d="M8,187.8c-0.4,0-0.8-0.4-0.8-0.8c0-0.4,0.3-0.8,0.8-0.8c0.4,0,0.8,0.4,0.8,0.8C8.8,187.4,8.4,187.8,8,187.8z
		 M20.3,186.4c1.8,0,2.5,0.8,2.5,2.6c0,0,0,0.3,0,0.3h-1c0,0,0-0.2,0-0.2c0-1.1-0.4-1.5-1.5-1.5h-9.7v-1.2H20.3z"/>
	<path class="st1" d="M17.2,184.7c-1.6,0-2.5-1.2-2.6-3.3l-0.2-2.8h-0.8c-1.3,0-2.1,0.8-2.1,2.3c0,1.3,0.7,2.2,1.8,2.4v1.1
		c-1.6-0.1-2.8-1.5-2.8-3.5c0-2.1,1.2-3.4,3-3.4h6.2v1.1H18v0c1.1,0.5,1.9,1.8,1.9,3.1C19.8,183.4,18.8,184.7,17.2,184.7z
		 M16.3,178.6h-1l0.2,2.7c0.1,1.4,0.7,2.2,1.7,2.2c1,0,1.7-0.8,1.7-2.1C18.8,179.8,17.7,178.6,16.3,178.6z"/>
	<path class="st1" d="M10.6,175.5v-1.1h1.7v0c-1.1-0.4-1.8-1.3-1.8-2.7c0-1.3,0.8-2.3,1.9-2.6v0c-1.1-0.4-1.9-1.5-1.9-2.9
		c0-1.8,1.2-2.9,3-2.9h6.2v1.2h-6c-1.4,0-2.3,0.8-2.3,2.1c0,1.3,1,2.3,2.5,2.3h5.7v1.2h-6.1c-1.3,0-2.2,0.8-2.2,2.1
		c0,1.3,1.1,2.3,2.6,2.3h5.6v1.2H10.6z"/>
	<path class="st1" d="M17.1,153.8c1.6,0.3,2.7,1.8,2.7,3.8c0,2.6-1.8,4.1-4.7,4.1c-2.8,0-4.7-1.6-4.7-4.1c0-2.4,1.8-3.9,4.5-3.9h0.5
		v6.8h0.1c2.1,0,3.3-1.2,3.3-3c0-1.4-0.7-2.3-1.7-2.6V153.8z M14.5,160.5v-5.6c-1.8,0-3,1.1-3,2.8C11.5,159.3,12.7,160.4,14.5,160.5
		z"/>
	<path class="st1" d="M10.6,152.2v-1.1h1.7v0c-1.1-0.5-1.8-1.5-1.8-3c0-2,1.3-3.2,3.4-3.2h5.9v1.2H14c-1.6,0-2.5,0.9-2.5,2.4
		c0,1.6,1.1,2.6,2.8,2.6h5.4v1.2H10.6z"/>
	<path class="st1" d="M8.3,141.2h2.3v-1.8h1v1.8h5.9c0.9,0,1.3-0.4,1.3-1.2c0-0.1,0-0.6,0-0.6h1c0,0.1,0.1,0.6,0.1,0.9
		c0,1.5-0.6,2.1-2.3,2.1h-5.9v1.4h-1v-1.4H8.3V141.2z"/>
	<path class="st1" d="M15.1,138.5c-2.9,0-4.7-1.7-4.7-4.2c0-2.5,1.8-4.2,4.7-4.2c2.9,0,4.7,1.7,4.7,4.2
		C19.8,136.9,18,138.5,15.1,138.5z M15.1,131.4c-2.3,0-3.7,1.2-3.7,3c0,1.8,1.4,3,3.7,3s3.7-1.2,3.7-3
		C18.8,132.6,17.5,131.4,15.1,131.4z"/>
</g>
<g class="st0">
	<path class="st1" d="M36.1,220.9c1.6,0.3,2.7,1.8,2.7,3.8c0,2.6-1.8,4.1-4.7,4.1c-2.8,0-4.7-1.6-4.7-4.1c0-2.4,1.8-3.9,4.5-3.9h0.5
		v6.8h0.1c2.1,0,3.3-1.2,3.3-3c0-1.4-0.7-2.3-1.7-2.6V220.9z M33.5,227.6v-5.6c-1.8,0-3,1.1-3,2.8C30.5,226.3,31.7,227.5,33.5,227.6
		z"/>
	<path class="st1" d="M29.4,216.1c0-1.9,1.1-3.2,2.7-3.3v1.1c-1.1,0.1-1.7,1-1.7,2.2c0,1.2,0.7,2.1,1.6,2.1c0.7,0,1.2-0.5,1.5-1.8
		l0.3-1.3c0.5-1.8,1.1-2.5,2.4-2.5c1.5,0,2.6,1.4,2.6,3.5c0,2-1.1,3.4-2.7,3.5v-1.2c1.1-0.2,1.7-1.1,1.7-2.4c0-1.4-0.6-2.3-1.6-2.3
		c-0.8,0-1.2,0.5-1.5,1.7l-0.4,1.5c-0.4,1.6-1.2,2.4-2.4,2.4C30.5,219.4,29.4,218,29.4,216.1z"/>
	<path class="st1" d="M27.3,209.4h2.3v-1.8h1v1.8h5.9c0.9,0,1.3-0.4,1.3-1.2c0-0.1,0-0.6,0-0.6h1c0,0.1,0.1,0.6,0.1,0.9
		c0,1.5-0.6,2.1-2.3,2.1h-5.9v1.4h-1v-1.4h-2.3V209.4z"/>
	<path class="st1" d="M29.6,206v-1.1h1.6v0c-1.1-0.3-1.8-1.2-1.8-2.3c0-0.3,0.1-0.6,0.1-0.7h1.1c-0.1,0.1-0.1,0.5-0.1,0.9
		c0,1.3,1,2.1,2.5,2.1h5.7v1.2H29.6z"/>
	<path class="st1" d="M36.2,201.2c-1.6,0-2.5-1.2-2.6-3.3l-0.2-2.8h-0.8c-1.3,0-2.1,0.8-2.1,2.3c0,1.3,0.7,2.2,1.8,2.4v1.1
		c-1.6-0.1-2.8-1.5-2.8-3.5c0-2.1,1.2-3.4,3-3.4h6.2v1.1H37v0c1.1,0.5,1.9,1.8,1.9,3.1C38.8,200,37.8,201.2,36.2,201.2z M35.3,195.1
		h-1l0.2,2.7c0.1,1.4,0.7,2.2,1.7,2.2c1,0,1.7-0.8,1.7-2.1C37.8,196.4,36.7,195.1,35.3,195.1z"/>
	<path class="st1" d="M27.3,190.4h2.3v-1.8h1v1.8h5.9c0.9,0,1.3-0.4,1.3-1.2c0-0.1,0-0.6,0-0.6h1c0,0.1,0.1,0.6,0.1,0.9
		c0,1.5-0.6,2.1-2.3,2.1h-5.9v1.4h-1v-1.4h-2.3V190.4z"/>
	<path class="st1" d="M28.2,184.2l-2.6-1.9V181l2.6,2.2V184.2z M36.1,179.8c1.6,0.3,2.7,1.8,2.7,3.8c0,2.6-1.8,4.1-4.7,4.1
		c-2.8,0-4.7-1.6-4.7-4.1c0-2.4,1.8-3.9,4.5-3.9h0.5v6.8h0.1c2.1,0,3.3-1.2,3.3-3c0-1.4-0.7-2.3-1.7-2.6V179.8z M33.5,186.5v-5.6
		c-1.8,0-3,1.1-3,2.8C30.5,185.3,31.7,186.4,33.5,186.5z"/>
	<path class="st1" d="M39.5,178.1V177c0.9-0.3,1.5-1.3,1.5-2.6c0-1.7-1-2.8-2.5-2.8h-1.8v0c1.2,0.5,2,1.7,2,3.1
		c0,2.3-1.8,3.8-4.7,3.8c-2.8,0-4.7-1.5-4.7-3.9c0-1.5,0.8-2.6,2.1-3.2v0h-1.9v-1.1h9c2.1,0,3.5,1.6,3.5,4
		C42.1,176.4,41,177.9,39.5,178.1z M34.1,171.6c-2.2,0-3.7,1.2-3.7,2.9c0,1.7,1.4,2.9,3.7,2.9c2.2,0,3.6-1.1,3.6-2.9
		C37.8,172.8,36.3,171.6,34.1,171.6z"/>
	<path class="st1" d="M27,168.5c-0.4,0-0.8-0.4-0.8-0.8c0-0.4,0.3-0.8,0.8-0.8c0.4,0,0.8,0.4,0.8,0.8
		C27.8,168.2,27.4,168.5,27,168.5z M29.6,168.4v-1.2h9.1v1.2H29.6z"/>
	<path class="st1" d="M32.5,158.8c-1.1,0.2-2,1.2-2,2.6c0,1.8,1.4,2.9,3.7,2.9c2.3,0,3.7-1.2,3.7-3c0-1.4-0.8-2.3-1.9-2.6v-1.1
		c1.7,0.3,3,1.7,3,3.7c0,2.5-1.8,4.1-4.7,4.1c-2.9,0-4.7-1.6-4.7-4.1c0-2.1,1.4-3.5,3-3.7V158.8z"/>
	<path class="st1" d="M34.1,156.7c-2.9,0-4.7-1.7-4.7-4.2c0-2.5,1.8-4.2,4.7-4.2c2.9,0,4.7,1.7,4.7,4.2
		C38.8,155,37,156.7,34.1,156.7z M34.1,149.6c-2.3,0-3.7,1.2-3.7,3c0,1.8,1.4,3,3.7,3s3.7-1.2,3.7-3
		C37.8,150.8,36.5,149.6,34.1,149.6z"/>
</g>
<g class="st0">
	<path class="st1" d="M7.1,88.8c0-2.4,1.6-4.1,3.9-4.1s3.9,1.7,3.9,4.1v3.1h4.8v1.2H7.1V88.8z M13.9,91.9v-2.8
		c0-1.9-1.1-3.1-2.9-3.1s-2.9,1.2-2.9,3.1v2.8H13.9z"/>
	<path class="st1" d="M17.1,76.1c1.6,0.3,2.7,1.8,2.7,3.8c0,2.6-1.8,4.1-4.7,4.1c-2.8,0-4.7-1.6-4.7-4.1c0-2.4,1.8-3.9,4.5-3.9h0.5
		v6.8h0.1c2.1,0,3.3-1.2,3.3-3c0-1.4-0.7-2.3-1.7-2.6V76.1z M14.5,82.8v-5.6c-1.8,0-3,1.1-3,2.8C11.5,81.6,12.7,82.7,14.5,82.8z"/>
	<path class="st1" d="M10.4,71.4c0-1.9,1.1-3.2,2.7-3.3v1.1c-1.1,0.1-1.7,1-1.7,2.2c0,1.2,0.7,2.1,1.6,2.1c0.7,0,1.2-0.5,1.5-1.8
		l0.3-1.3c0.5-1.8,1.1-2.5,2.4-2.5c1.5,0,2.6,1.4,2.6,3.5c0,2-1.1,3.4-2.7,3.5v-1.2c1.1-0.2,1.7-1.1,1.7-2.4c0-1.4-0.6-2.3-1.6-2.3
		c-0.8,0-1.2,0.5-1.5,1.7l-0.4,1.5c-0.4,1.6-1.2,2.4-2.4,2.4C11.5,74.6,10.4,73.3,10.4,71.4z"/>
	<path class="st1" d="M12.5,59.7L12.5,59.7l-1.9,0v-1.1h12.1v1.2h-4.9v0c1.2,0.5,2,1.7,2,3.1c0,2.3-1.9,3.9-4.7,3.9
		s-4.7-1.6-4.7-3.9C10.4,61.4,11.3,60.3,12.5,59.7z M15.1,59.8c-2.2,0-3.7,1.2-3.7,2.9c0,1.7,1.4,2.9,3.7,2.9s3.7-1.1,3.7-2.9
		C18.8,61,17.3,59.8,15.1,59.8z"/>
	<path class="st1" d="M19.7,49.3v1.1H18v0c1.1,0.5,1.8,1.6,1.8,3c0,2-1.3,3.2-3.3,3.2h-5.9v-1.2h5.7c1.6,0,2.5-0.9,2.5-2.4
		c0-1.6-1.1-2.7-2.8-2.7h-5.4v-1.2H19.7z"/>
	<path class="st1" d="M8,47.4c-0.4,0-0.8-0.4-0.8-0.8c0-0.4,0.3-0.8,0.8-0.8c0.4,0,0.8,0.4,0.8,0.8C8.8,47.1,8.4,47.4,8,47.4z
		 M10.6,47.2v-1.2h9.1v1.2H10.6z"/>
	<path class="st1" d="M10.4,40.9c0-1.9,1.1-3.2,2.7-3.3v1.1c-1.1,0.1-1.7,1-1.7,2.2c0,1.2,0.7,2.1,1.6,2.1c0.7,0,1.2-0.5,1.5-1.8
		l0.3-1.3c0.5-1.8,1.1-2.5,2.4-2.5c1.5,0,2.6,1.4,2.6,3.5c0,2-1.1,3.4-2.7,3.5v-1.2c1.1-0.2,1.7-1.1,1.7-2.4c0-1.4-0.6-2.3-1.6-2.3
		c-0.8,0-1.2,0.5-1.5,1.7l-0.4,1.5c-0.4,1.6-1.2,2.4-2.4,2.4C11.5,44.2,10.4,42.8,10.4,40.9z"/>
	<path class="st1" d="M17.2,36.2c-1.6,0-2.5-1.2-2.6-3.3l-0.2-2.8h-0.8c-1.3,0-2.1,0.8-2.1,2.3c0,1.3,0.7,2.2,1.8,2.4v1.1
		c-1.6-0.1-2.8-1.5-2.8-3.5c0-2.1,1.2-3.4,3-3.4h6.2v1.1H18v0c1.1,0.5,1.9,1.8,1.9,3.1C19.8,35,18.8,36.2,17.2,36.2z M16.3,30.1h-1
		l0.2,2.7c0.1,1.4,0.7,2.2,1.7,2.2c1,0,1.7-0.8,1.7-2.1C18.8,31.4,17.7,30.1,16.3,30.1z"/>
	<path class="st1" d="M10.4,23.9c0-1.9,1.1-3.2,2.7-3.3v1.1c-1.1,0.1-1.7,1-1.7,2.2c0,1.2,0.7,2.1,1.6,2.1c0.7,0,1.2-0.5,1.5-1.8
		l0.3-1.3c0.5-1.8,1.1-2.5,2.4-2.5c1.5,0,2.6,1.4,2.6,3.5c0,2-1.1,3.4-2.7,3.5v-1.2c1.1-0.2,1.7-1.1,1.7-2.4c0-1.4-0.6-2.3-1.6-2.3
		c-0.8,0-1.2,0.5-1.5,1.7l-0.4,1.5c-0.4,1.6-1.2,2.4-2.4,2.4C11.5,27.2,10.4,25.8,10.4,23.9z"/>
</g>
</svg>
