<?xml version="1.0" encoding="utf-8"?>
<!-- Generator: Adobe Illustrator 26.2.1, SVG Export Plug-In . SVG Version: 6.00 Build 0)  -->
<svg version="1.1" id="Camada_1" xmlns="http://www.w3.org/2000/svg" xmlns:xlink="http://www.w3.org/1999/xlink" x="0px" y="0px"
	 viewBox="0 0 48.3 992.1" style="enable-background:new 0 0 48.3 992.1;" xml:space="preserve">
<style type="text/css">
	.st0{fill:#5B5B5F;}
	.st1{fill:#333333;}
</style>
<g>
	<path class="st0" d="M8.1,970.8c0-3.8,2.3-6,6.3-6c4,0,6.3,2.2,6.3,6v4.1H8.1V970.8z M19.6,973.7v-2.8c0-3.1-1.9-4.8-5.2-4.8
		c-3.4,0-5.2,1.7-5.2,4.8v2.8H19.6z"/>
	<path class="st0" d="M18.1,955.7c1.6,0.3,2.7,1.8,2.7,3.8c0,2.6-1.8,4.1-4.7,4.1c-2.8,0-4.7-1.6-4.7-4.1c0-2.4,1.8-3.9,4.5-3.9h0.5
		v6.8h0.1c2.1,0,3.3-1.2,3.3-3c0-1.4-0.7-2.3-1.7-2.6V955.7z M15.5,962.4v-5.6c-1.8,0-3,1.1-3,2.8C12.4,961.2,13.7,962.3,15.5,962.4
		z"/>
	<path class="st0" d="M18.8,952.8L18.8,952.8l1.9,0v1.1H8.1v-1.2h5.4v0c-1.3-0.5-2-1.7-2-3.1c0-2.3,1.9-3.8,4.7-3.8
		c2.8,0,4.7,1.6,4.7,3.9C20.8,951.1,20,952.3,18.8,952.8z M16.1,952.8c2.2,0,3.7-1.2,3.7-2.9c0-1.8-1.4-2.9-3.7-2.9
		c-2.2,0-3.7,1.1-3.7,2.9C12.5,951.6,14,952.8,16.1,952.8z"/>
	<path class="st0" d="M18.2,944.6c-1.6,0-2.5-1.2-2.6-3.3l-0.2-2.8h-0.8c-1.3,0-2.1,0.8-2.1,2.3c0,1.3,0.7,2.2,1.8,2.4v1.1
		c-1.6-0.1-2.8-1.5-2.8-3.5c0-2.1,1.2-3.4,3-3.4h6.2v1.1H19v0c1.1,0.5,1.9,1.8,1.9,3.1C20.8,943.3,19.8,944.6,18.2,944.6z
		 M17.3,938.5h-1l0.2,2.7c0.1,1.4,0.7,2.2,1.7,2.2c1,0,1.7-0.8,1.7-2.1C19.8,939.7,18.7,938.5,17.3,938.5z"/>
	<path class="st0" d="M9.3,933.7h2.3v-1.8h1v1.8h5.9c0.9,0,1.3-0.4,1.3-1.2c0-0.1,0-0.6,0-0.6h1c0,0.1,0.1,0.6,0.1,0.9
		c0,1.5-0.6,2.1-2.3,2.1h-5.9v1.4h-1v-1.4H9.3V933.7z"/>
	<path class="st0" d="M18.1,923.1c1.6,0.3,2.7,1.8,2.7,3.8c0,2.6-1.8,4.1-4.7,4.1c-2.8,0-4.7-1.6-4.7-4.1c0-2.4,1.8-3.9,4.5-3.9h0.5
		v6.8h0.1c2.1,0,3.3-1.2,3.3-3c0-1.4-0.7-2.3-1.7-2.6V923.1z M15.5,929.8v-5.6c-1.8,0-3,1.1-3,2.8C12.4,928.6,13.7,929.7,15.5,929.8
		z"/>
	<path class="st0" d="M11.4,918.4c0-1.9,1.1-3.2,2.7-3.3v1.1c-1.1,0.1-1.7,1-1.7,2.2c0,1.2,0.7,2.1,1.6,2.1c0.7,0,1.2-0.5,1.5-1.8
		l0.3-1.3c0.5-1.8,1.1-2.5,2.4-2.5c1.5,0,2.6,1.4,2.6,3.5c0,2-1.1,3.4-2.7,3.5v-1.2c1.1-0.2,1.7-1.1,1.7-2.4s-0.6-2.3-1.6-2.3
		c-0.8,0-1.2,0.5-1.5,1.7l-0.4,1.5c-0.4,1.6-1.2,2.4-2.4,2.4C12.5,921.7,11.4,920.3,11.4,918.4z"/>
</g>
<g>
	<path class="st0" d="M20.7,741.2v7.6H8.1v-7.6h1.1v6.4h4.5v-6.1h1.1v6.1h4.9v-6.4H20.7z"/>
	<path class="st0" d="M11.4,736.6c0-1.9,1.1-3.2,2.7-3.3v1.1c-1.1,0.1-1.7,1-1.7,2.2c0,1.2,0.7,2.1,1.6,2.1c0.7,0,1.2-0.5,1.5-1.8
		l0.3-1.3c0.5-1.8,1.1-2.5,2.4-2.5c1.5,0,2.6,1.4,2.6,3.5c0,2-1.1,3.4-2.7,3.5V739c1.1-0.2,1.7-1.1,1.7-2.4s-0.6-2.3-1.6-2.3
		c-0.8,0-1.2,0.5-1.5,1.7l-0.4,1.5c-0.4,1.6-1.2,2.4-2.4,2.4C12.5,739.9,11.4,738.5,11.4,736.6z"/>
	<path class="st0" d="M9.3,730.2h2.3v-1.8h1v1.8h5.9c0.9,0,1.3-0.4,1.3-1.2c0-0.1,0-0.6,0-0.6h1c0,0.1,0.1,0.6,0.1,0.9
		c0,1.5-0.6,2.1-2.3,2.1h-5.9v1.4h-1v-1.4H9.3V730.2z"/>
	<path class="st0" d="M11.6,727v-1.1h1.6v0c-1.1-0.3-1.8-1.2-1.8-2.3c0-0.3,0.1-0.6,0.1-0.7h1.1c-0.1,0.1-0.1,0.5-0.1,0.9
		c0,1.3,1,2.1,2.5,2.1h5.7v1.2H11.6z"/>
	<path class="st0" d="M18.2,722.5c-1.6,0-2.5-1.2-2.6-3.3l-0.2-2.8h-0.8c-1.3,0-2.1,0.8-2.1,2.3c0,1.3,0.7,2.2,1.8,2.4v1.1
		c-1.6-0.1-2.8-1.5-2.8-3.5c0-2.1,1.2-3.4,3-3.4h6.2v1.1H19v0c1.1,0.5,1.9,1.8,1.9,3.1C20.8,721.3,19.8,722.5,18.2,722.5z
		 M17.3,716.4h-1l0.2,2.7c0.1,1.4,0.7,2.2,1.7,2.2c1,0,1.7-0.8,1.7-2.1C19.8,717.7,18.7,716.4,17.3,716.4z"/>
	<path class="st0" d="M9.3,711.9h2.3v-1.8h1v1.8h5.9c0.9,0,1.3-0.4,1.3-1.2c0-0.1,0-0.6,0-0.6h1c0,0.1,0.1,0.6,0.1,0.9
		c0,1.5-0.6,2.1-2.3,2.1h-5.9v1.4h-1v-1.4H9.3V711.9z"/>
	<path class="st0" d="M10.2,706l-2.6-1.9v-1.3l2.6,2.2V706z M18.1,701.6c1.6,0.3,2.7,1.8,2.7,3.8c0,2.6-1.8,4.1-4.7,4.1
		c-2.8,0-4.7-1.6-4.7-4.1c0-2.4,1.8-3.9,4.5-3.9h0.5v6.8h0.1c2.1,0,3.3-1.2,3.3-3c0-1.4-0.7-2.3-1.7-2.6V701.6z M15.5,708.3v-5.6
		c-1.8,0-3,1.1-3,2.8C12.4,707.1,13.7,708.2,15.5,708.3z"/>
	<path class="st0" d="M21.5,700.3v-1.2c0.9-0.3,1.5-1.3,1.5-2.6c0-1.7-1-2.8-2.5-2.8h-1.8v0c1.2,0.5,2,1.7,2,3.1
		c0,2.3-1.8,3.8-4.7,3.8c-2.8,0-4.7-1.5-4.7-3.9c0-1.5,0.8-2.6,2.1-3.2v0h-1.9v-1.1h9c2.1,0,3.5,1.5,3.5,4
		C24.1,698.5,23,700,21.5,700.3z M16.1,693.7c-2.2,0-3.7,1.2-3.7,2.9c0,1.7,1.4,2.9,3.7,2.9c2.2,0,3.6-1.1,3.6-2.9
		C19.8,694.9,18.3,693.7,16.1,693.7z"/>
	<path class="st0" d="M9,690.9c-0.4,0-0.8-0.4-0.8-0.8c0-0.4,0.3-0.8,0.8-0.8c0.4,0,0.8,0.3,0.8,0.8C9.7,690.6,9.4,690.9,9,690.9z
		 M11.6,690.7v-1.2h9.1v1.2H11.6z"/>
	<path class="st0" d="M18.2,688.1c-1.6,0-2.5-1.2-2.6-3.3l-0.2-2.8h-0.8c-1.3,0-2.1,0.8-2.1,2.3c0,1.3,0.7,2.2,1.8,2.4v1.1
		c-1.6-0.1-2.8-1.5-2.8-3.5c0-2.1,1.2-3.4,3-3.4h6.2v1.1H19v0c1.1,0.5,1.9,1.8,1.9,3.1C20.8,686.9,19.8,688.1,18.2,688.1z M17.3,682
		h-1l0.2,2.7c0.1,1.4,0.7,2.2,1.7,2.2c1,0,1.7-0.8,1.7-2.1C19.8,683.2,18.7,682,17.3,682z"/>
	<path class="st0" d="M16.1,676.2c-2.8,0-4.7-1.6-4.7-3.9c0-1.5,0.8-2.6,2-3.1v0H8.1V668h12.6v1.1h-1.9v0c1.2,0.5,2.1,1.7,2.1,3.2
		C20.8,674.6,19,676.2,16.1,676.2z M16.1,675c2.2,0,3.7-1.2,3.7-2.9c0-1.7-1.5-2.9-3.7-2.9c-2.2,0-3.7,1.2-3.7,2.9
		C12.5,673.9,13.9,675,16.1,675z"/>
	<path class="st0" d="M9,666.4c-0.4,0-0.8-0.4-0.8-0.8c0-0.4,0.3-0.8,0.8-0.8c0.4,0,0.8,0.3,0.8,0.8C9.7,666,9.4,666.4,9,666.4z
		 M11.6,666.2V665h9.1v1.2H11.6z"/>
	<path class="st0" d="M21.5,663.2V662c0.9-0.3,1.5-1.3,1.5-2.6c0-1.7-1-2.8-2.5-2.8h-1.8v0c1.2,0.5,2,1.7,2,3.1
		c0,2.3-1.8,3.8-4.7,3.8c-2.8,0-4.7-1.5-4.7-3.9c0-1.5,0.8-2.6,2.1-3.2v0h-1.9v-1.1h9c2.1,0,3.5,1.5,3.5,4
		C24.1,661.5,23,663,21.5,663.2z M16.1,656.7c-2.2,0-3.7,1.2-3.7,2.9c0,1.7,1.4,2.9,3.7,2.9c2.2,0,3.6-1.1,3.6-2.9
		C19.8,657.8,18.3,656.7,16.1,656.7z"/>
	<path class="st0" d="M9,653.9c-0.4,0-0.8-0.4-0.8-0.8c0-0.4,0.3-0.8,0.8-0.8c0.4,0,0.8,0.3,0.8,0.8C9.7,653.5,9.4,653.9,9,653.9z
		 M11.6,653.7v-1.2h9.1v1.2H11.6z"/>
	<path class="st0" d="M9.3,649.1h2.3v-1.8h1v1.8h5.9c0.9,0,1.3-0.4,1.3-1.2c0-0.1,0-0.6,0-0.6h1c0,0.1,0.1,0.6,0.1,0.9
		c0,1.5-0.6,2.1-2.3,2.1h-5.9v1.4h-1v-1.4H9.3V649.1z"/>
	<path class="st0" d="M18.2,646.5c-1.6,0-2.5-1.2-2.6-3.3l-0.2-2.8h-0.8c-1.3,0-2.1,0.8-2.1,2.3c0,1.3,0.7,2.2,1.8,2.4v1.1
		c-1.6-0.1-2.8-1.5-2.8-3.5c0-2.1,1.2-3.4,3-3.4h6.2v1.1H19v0c1.1,0.5,1.9,1.8,1.9,3.1C20.8,645.3,19.8,646.5,18.2,646.5z
		 M17.3,640.4h-1l0.2,2.7c0.1,1.4,0.7,2.2,1.7,2.2c1,0,1.7-0.8,1.7-2.1C19.8,641.6,18.7,640.4,17.3,640.4z"/>
	<path class="st0" d="M8.1,637.5v-1.2h12.6v1.2H8.1z"/>
</g>
<g>
	<path class="st0" d="M19.9,870c0,3.4-2.6,5.7-6.6,5.7c-3.9,0-6.4-2.2-6.4-5.7c0-2.7,1.6-4.7,4-5.2v1.2C9.1,866.6,8,868,8,870
		c0,2.7,2,4.4,5.3,4.4c3.3,0,5.5-1.7,5.5-4.4c0-2.4-1.6-4.1-3.9-4.1h-0.4v3.9h-1.1v-5.1h1.2C17.9,864.7,19.9,866.7,19.9,870z"/>
	<path class="st0" d="M17.1,855.7c1.6,0.3,2.7,1.8,2.7,3.8c0,2.6-1.8,4.1-4.7,4.1c-2.8,0-4.7-1.6-4.7-4.1c0-2.4,1.8-3.9,4.5-3.9h0.5
		v6.8h0.1c2.1,0,3.3-1.2,3.3-3c0-1.4-0.7-2.3-1.7-2.6V855.7z M14.5,862.4v-5.6c-1.8,0-3,1.1-3,2.8C11.5,861.2,12.7,862.3,14.5,862.4
		z"/>
	<path class="st0" d="M10.4,851.1c0-1.9,1.1-3.2,2.7-3.3v1.1c-1.1,0.1-1.7,1-1.7,2.2c0,1.2,0.7,2.1,1.6,2.1c0.7,0,1.2-0.5,1.5-1.8
		l0.3-1.3c0.5-1.8,1.1-2.5,2.4-2.5c1.5,0,2.6,1.4,2.6,3.5c0,2-1.1,3.4-2.7,3.5v-1.2c1.1-0.2,1.7-1.1,1.7-2.4s-0.6-2.3-1.6-2.3
		c-0.8,0-1.2,0.5-1.5,1.7l-0.4,1.5c-0.4,1.6-1.2,2.4-2.4,2.4C11.5,854.3,10.4,853,10.4,851.1z"/>
	<path class="st0" d="M8.3,844.5h2.3v-1.8h1v1.8h5.9c0.9,0,1.3-0.4,1.3-1.2c0-0.1,0-0.6,0-0.6h1c0,0.1,0.1,0.6,0.1,0.9
		c0,1.5-0.6,2.1-2.3,2.1h-5.9v1.4h-1v-1.4H8.3V844.5z"/>
	<path class="st0" d="M7.8,839.1c0,0.5,0.5,0.7,1.3,0.7v0.8c-1.3,0-2.1-0.6-2.1-1.5c0-1.2,1.4-1.6,1.4-2.3c0-0.4-0.5-0.7-1.3-0.7
		v-0.8c1.3,0,2.1,0.6,2.1,1.5C9.1,837.9,7.8,838.3,7.8,839.1z M17.2,841.7c-1.6,0-2.5-1.2-2.6-3.3l-0.2-2.8h-0.8
		c-1.3,0-2.1,0.8-2.1,2.3c0,1.3,0.7,2.2,1.8,2.4v1.1c-1.6-0.1-2.8-1.5-2.8-3.5c0-2.1,1.2-3.4,3-3.4h6.2v1.1H18v0
		c1.1,0.5,1.9,1.8,1.9,3.1C19.8,840.5,18.8,841.7,17.2,841.7z M16.3,835.6h-1l0.2,2.7c0.1,1.4,0.7,2.2,1.7,2.2c1,0,1.7-0.8,1.7-2.1
		C18.8,836.9,17.7,835.6,16.3,835.6z"/>
	<path class="st0" d="M15.1,833.1c-2.9,0-4.7-1.7-4.7-4.2c0-2.5,1.8-4.2,4.7-4.2c2.9,0,4.7,1.7,4.7,4.2S18,833.1,15.1,833.1z
		 M15.1,826c-2.3,0-3.7,1.2-3.7,3c0,1.8,1.4,3,3.7,3c2.3,0,3.7-1.2,3.7-3C18.8,827.2,17.5,826,15.1,826z"/>
	<path class="st0" d="M29.4,872.2c0-1.9,1.1-3.2,2.7-3.3v1.1c-1.1,0.1-1.7,1-1.7,2.2c0,1.2,0.7,2.1,1.6,2.1c0.7,0,1.2-0.5,1.5-1.8
		l0.3-1.3c0.5-1.8,1.1-2.5,2.4-2.5c1.5,0,2.6,1.4,2.6,3.5c0,2-1.1,3.4-2.7,3.5v-1.2c1.1-0.2,1.7-1.1,1.7-2.4s-0.6-2.3-1.6-2.3
		c-0.8,0-1.2,0.5-1.5,1.7l-0.4,1.5c-0.4,1.6-1.2,2.4-2.4,2.4C30.5,875.5,29.4,874.2,29.4,872.2z"/>
	<path class="st0" d="M36.1,859.9c1.6,0.3,2.7,1.8,2.7,3.8c0,2.6-1.8,4.1-4.7,4.1c-2.8,0-4.7-1.6-4.7-4.1c0-2.4,1.8-3.9,4.5-3.9h0.5
		v6.8h0.1c2.1,0,3.3-1.2,3.3-3c0-1.4-0.7-2.3-1.7-2.6V859.9z M33.5,866.6V861c-1.8,0-3,1.1-3,2.8C30.5,865.4,31.7,866.5,33.5,866.6z
		"/>
	<path class="st0" d="M39.5,858.4v-1.2c0.9-0.3,1.5-1.3,1.5-2.6c0-1.7-1-2.8-2.5-2.8h-1.8v0c1.2,0.5,2,1.7,2,3.1
		c0,2.3-1.8,3.8-4.7,3.8c-2.8,0-4.7-1.5-4.7-3.9c0-1.5,0.8-2.6,2.1-3.2v0h-1.9v-1.1h9c2.1,0,3.5,1.6,3.5,4
		C42.1,856.7,41,858.2,39.5,858.4z M34.1,851.8c-2.2,0-3.7,1.2-3.7,2.9c0,1.7,1.4,2.9,3.7,2.9c2.2,0,3.6-1.1,3.6-2.9
		C37.8,853,36.3,851.8,34.1,851.8z"/>
	<path class="st0" d="M29.6,848.8v-1.1h1.7v0c-1.1-0.4-1.8-1.3-1.8-2.7c0-1.3,0.8-2.3,1.9-2.6v0c-1.1-0.4-1.9-1.5-1.9-2.9
		c0-1.8,1.2-2.9,3-2.9h6.2v1.2h-6c-1.4,0-2.3,0.8-2.3,2.1c0,1.3,1,2.3,2.5,2.3h5.7v1.2h-6.1c-1.3,0-2.2,0.8-2.2,2.1
		c0,1.3,1.1,2.3,2.6,2.3h5.6v1.2H29.6z"/>
	<path class="st0" d="M36.1,827.3c1.6,0.3,2.7,1.8,2.7,3.8c0,2.6-1.8,4.1-4.7,4.1c-2.8,0-4.7-1.6-4.7-4.1c0-2.4,1.8-3.9,4.5-3.9h0.5
		v6.8h0.1c2.1,0,3.3-1.2,3.3-3c0-1.4-0.7-2.3-1.7-2.6V827.3z M33.5,834v-5.6c-1.8,0-3,1.1-3,2.8C30.5,832.8,31.7,833.9,33.5,834z"/>
	<path class="st0" d="M29.6,825.8v-1.1h1.7v0c-1.1-0.5-1.8-1.5-1.8-3c0-2,1.3-3.2,3.4-3.2h5.9v1.2H33c-1.6,0-2.5,0.9-2.5,2.4
		c0,1.6,1.1,2.6,2.8,2.6h5.4v1.2H29.6z"/>
	<path class="st0" d="M27.3,815h2.3v-1.8h1v1.8h5.9c0.9,0,1.3-0.4,1.3-1.2c0-0.1,0-0.6,0-0.6h1c0,0.1,0.1,0.6,0.1,0.9
		c0,1.5-0.6,2.1-2.3,2.1h-5.9v1.4h-1v-1.4h-2.3V815z"/>
	<path class="st0" d="M36.2,812.3c-1.6,0-2.5-1.2-2.6-3.3l-0.2-2.8h-0.8c-1.3,0-2.1,0.8-2.1,2.3c0,1.3,0.7,2.2,1.8,2.4v1.1
		c-1.6-0.1-2.8-1.5-2.8-3.5c0-2.1,1.2-3.4,3-3.4h6.2v1.1H37v0c1.1,0.5,1.9,1.8,1.9,3.1C38.8,811.1,37.8,812.3,36.2,812.3z
		 M35.3,806.2h-1l0.2,2.7c0.1,1.4,0.7,2.2,1.7,2.2c1,0,1.7-0.8,1.7-2.1C37.8,807.4,36.7,806.2,35.3,806.2z"/>
	<path class="st0" d="M34.1,803.7c-2.8,0-4.7-1.6-4.7-3.9c0-1.5,0.8-2.6,2-3.1v0h-5.4v-1.2h12.6v1.1h-1.9v0c1.2,0.5,2.1,1.7,2.1,3.2
		C38.8,802.1,37,803.7,34.1,803.7z M34.1,802.5c2.2,0,3.7-1.2,3.7-2.9c0-1.7-1.5-2.9-3.7-2.9c-2.2,0-3.7,1.2-3.7,2.9
		C30.5,801.3,31.9,802.5,34.1,802.5z"/>
	<path class="st0" d="M36.2,793.9c-1.6,0-2.5-1.2-2.6-3.3l-0.2-2.8h-0.8c-1.3,0-2.1,0.8-2.1,2.3c0,1.3,0.7,2.2,1.8,2.4v1.1
		c-1.6-0.1-2.8-1.5-2.8-3.5c0-2.1,1.2-3.4,3-3.4h6.2v1.1H37v0c1.1,0.5,1.9,1.8,1.9,3.1C38.8,792.7,37.8,793.9,36.2,793.9z
		 M35.3,787.8h-1l0.2,2.7c0.1,1.4,0.7,2.2,1.7,2.2c1,0,1.7-0.8,1.7-2.1C37.8,789,36.7,787.8,35.3,787.8z"/>
</g>
<g>
	<path class="st0" d="M19.7,574.1H9.3v0.1l10.3,4.4v1L9.3,584v0.1h10.4v1.1H7.1v-1.4l11.1-4.7V579l-11.1-4.7V573h12.6V574.1z"/>
	<path class="st0" d="M15.1,571.4c-2.9,0-4.7-1.7-4.7-4.2c0-2.5,1.8-4.2,4.7-4.2c2.9,0,4.7,1.7,4.7,4.2S18,571.4,15.1,571.4z
		 M15.1,564.2c-2.3,0-3.7,1.2-3.7,3c0,1.8,1.4,3,3.7,3c2.3,0,3.7-1.2,3.7-3C18.8,565.4,17.5,564.2,15.1,564.2z"/>
	<path class="st0" d="M10.6,561.7v-1.1h1.7v0c-1.1-0.5-1.8-1.5-1.8-3c0-2,1.3-3.2,3.4-3.2h5.9v1.2H14c-1.6,0-2.5,0.9-2.5,2.4
		c0,1.6,1.1,2.6,2.8,2.6h5.4v1.2H10.6z"/>
	<path class="st0" d="M8,552.6c-0.4,0-0.8-0.4-0.8-0.8c0-0.4,0.3-0.8,0.8-0.8c0.4,0,0.8,0.3,0.8,0.8C8.8,552.3,8.4,552.6,8,552.6z
		 M10.6,552.4v-1.2h9.1v1.2H10.6z"/>
	<path class="st0" d="M8.3,547.7h2.3v-1.8h1v1.8h5.9c0.9,0,1.3-0.4,1.3-1.2c0-0.1,0-0.6,0-0.6h1c0,0.1,0.1,0.6,0.1,0.9
		c0,1.5-0.6,2.1-2.3,2.1h-5.9v1.4h-1v-1.4H8.3V547.7z"/>
	<path class="st0" d="M15.1,545.2c-2.9,0-4.7-1.7-4.7-4.2c0-2.5,1.8-4.2,4.7-4.2c2.9,0,4.7,1.7,4.7,4.2S18,545.2,15.1,545.2z
		 M15.1,538c-2.3,0-3.7,1.2-3.7,3c0,1.8,1.4,3,3.7,3c2.3,0,3.7-1.2,3.7-3C18.8,539.2,17.5,538,15.1,538z"/>
	<path class="st0" d="M10.6,535.5v-1.1h1.6v0c-1.1-0.3-1.8-1.2-1.8-2.3c0-0.3,0.1-0.6,0.1-0.7h1.1c-0.1,0.1-0.1,0.5-0.1,0.9
		c0,1.3,1,2.1,2.5,2.1h5.7v1.2H10.6z"/>
	<path class="st0" d="M17.2,530.8c-1.6,0-2.5-1.2-2.6-3.3l-0.2-2.8h-0.8c-1.3,0-2.1,0.8-2.1,2.3c0,1.3,0.7,2.2,1.8,2.4v1.1
		c-1.6-0.1-2.8-1.5-2.8-3.5c0-2.1,1.2-3.4,3-3.4h6.2v1.1H18v0c1.1,0.5,1.9,1.8,1.9,3.1C19.8,529.6,18.8,530.8,17.2,530.8z
		 M16.3,524.7h-1l0.2,2.7c0.1,1.4,0.7,2.2,1.7,2.2c1,0,1.7-0.8,1.7-2.1C18.8,526,17.7,524.7,16.3,524.7z"/>
	<path class="st0" d="M10.6,521.8v-1.1h1.7v0c-1.1-0.4-1.8-1.3-1.8-2.7c0-1.3,0.8-2.3,1.9-2.6v0c-1.1-0.4-1.9-1.5-1.9-2.9
		c0-1.8,1.2-2.9,3-2.9h6.2v1.2h-6c-1.4,0-2.3,0.8-2.3,2.1c0,1.3,1,2.3,2.5,2.3h5.7v1.2h-6.1c-1.3,0-2.2,0.8-2.2,2.1
		c0,1.3,1.1,2.3,2.6,2.3h5.6v1.2H10.6z"/>
	<path class="st0" d="M17.1,500.3c1.6,0.3,2.7,1.8,2.7,3.8c0,2.6-1.8,4.1-4.7,4.1c-2.8,0-4.7-1.6-4.7-4.1c0-2.4,1.8-3.9,4.5-3.9h0.5
		v6.8h0.1c2.1,0,3.3-1.2,3.3-3c0-1.4-0.7-2.3-1.7-2.6V500.3z M14.5,507v-5.6c-1.8,0-3,1.1-3,2.8C11.5,505.8,12.7,506.9,14.5,507z"/>
	<path class="st0" d="M10.6,498.8v-1.1h1.7v0c-1.1-0.5-1.8-1.5-1.8-3c0-2,1.3-3.2,3.4-3.2h5.9v1.2H14c-1.6,0-2.5,0.9-2.5,2.4
		c0,1.6,1.1,2.6,2.8,2.6h5.4v1.2H10.6z"/>
	<path class="st0" d="M8.3,488h2.3v-1.8h1v1.8h5.9c0.9,0,1.3-0.4,1.3-1.2c0-0.1,0-0.6,0-0.6h1c0,0.1,0.1,0.6,0.1,0.9
		c0,1.5-0.6,2.1-2.3,2.1h-5.9v1.4h-1v-1.4H8.3V488z"/>
	<path class="st0" d="M15.1,485.4c-2.9,0-4.7-1.7-4.7-4.2c0-2.5,1.8-4.2,4.7-4.2c2.9,0,4.7,1.7,4.7,4.2S18,485.4,15.1,485.4z
		 M15.1,478.3c-2.3,0-3.7,1.2-3.7,3c0,1.8,1.4,3,3.7,3c2.3,0,3.7-1.2,3.7-3C18.8,479.5,17.5,478.3,15.1,478.3z"/>
	<path class="st0" d="M34.1,585.8c-2.8,0-4.7-1.6-4.7-3.9c0-1.5,0.8-2.6,2-3.1v0h-5.4v-1.2h12.6v1.1h-1.9v0c1.2,0.5,2.1,1.7,2.1,3.2
		C38.8,584.2,37,585.8,34.1,585.8z M34.1,584.6c2.2,0,3.7-1.2,3.7-2.9c0-1.7-1.5-2.9-3.7-2.9c-2.2,0-3.7,1.2-3.7,2.9
		C30.5,583.4,31.9,584.6,34.1,584.6z"/>
	<path class="st0" d="M36.1,568.2c1.6,0.3,2.7,1.8,2.7,3.8c0,2.6-1.8,4.1-4.7,4.1c-2.8,0-4.7-1.6-4.7-4.1c0-2.4,1.8-3.9,4.5-3.9h0.5
		v6.8h0.1c2.1,0,3.3-1.2,3.3-3c0-1.4-0.7-2.3-1.7-2.6V568.2z M33.5,574.9v-5.6c-1.8,0-3,1.1-3,2.8C30.5,573.7,31.7,574.8,33.5,574.9
		z"/>
	<path class="st0" d="M29.6,563.2v-1.1h1.6v0c-1.1-0.3-1.8-1.2-1.8-2.3c0-0.3,0.1-0.6,0.1-0.7h1.1c-0.1,0.1-0.1,0.5-0.1,0.9
		c0,1.3,1,2.1,2.5,2.1h5.7v1.2H29.6z"/>
	<path class="st0" d="M36.1,551c1.6,0.3,2.7,1.8,2.7,3.8c0,2.6-1.8,4.1-4.7,4.1c-2.8,0-4.7-1.6-4.7-4.1c0-2.4,1.8-3.9,4.5-3.9h0.5
		v6.8h0.1c2.1,0,3.3-1.2,3.3-3c0-1.4-0.7-2.3-1.7-2.6V551z M33.5,557.7v-5.6c-1.8,0-3,1.1-3,2.8C30.5,556.5,31.7,557.6,33.5,557.7z"
		/>
	<path class="st0" d="M34.1,549.9c-2.8,0-4.7-1.6-4.7-3.9c0-1.5,0.8-2.6,2-3.1v0h-5.4v-1.2h12.6v1.1h-1.9v0c1.2,0.5,2.1,1.7,2.1,3.2
		C38.8,548.3,37,549.9,34.1,549.9z M34.1,548.7c2.2,0,3.7-1.2,3.7-2.9c0-1.7-1.5-2.9-3.7-2.9c-2.2,0-3.7,1.2-3.7,2.9
		C30.5,547.6,31.9,548.7,34.1,548.7z"/>
	<path class="st0" d="M36.1,532.4c1.6,0.3,2.7,1.8,2.7,3.8c0,2.6-1.8,4.1-4.7,4.1c-2.8,0-4.7-1.6-4.7-4.1c0-2.4,1.8-3.9,4.5-3.9h0.5
		v6.8h0.1c2.1,0,3.3-1.2,3.3-3c0-1.4-0.7-2.3-1.7-2.6V532.4z M33.5,539.1v-5.6c-1.8,0-3,1.1-3,2.8C30.5,537.9,31.7,539,33.5,539.1z"
		/>
	<path class="st0" d="M29.4,527.8c0-1.9,1.1-3.2,2.7-3.3v1.1c-1.1,0.1-1.7,1-1.7,2.2c0,1.2,0.7,2.1,1.6,2.1c0.7,0,1.2-0.5,1.5-1.8
		l0.3-1.3c0.5-1.8,1.1-2.5,2.4-2.5c1.5,0,2.6,1.4,2.6,3.5c0,2-1.1,3.4-2.7,3.5v-1.2c1.1-0.2,1.7-1.1,1.7-2.4s-0.6-2.3-1.6-2.3
		c-0.8,0-1.2,0.5-1.5,1.7l-0.4,1.5c-0.4,1.6-1.2,2.4-2.4,2.4C30.5,531,29.4,529.7,29.4,527.8z"/>
	<path class="st0" d="M29.4,516.3c0-1.9,1.1-3.2,2.7-3.3v1.1c-1.1,0.1-1.7,1-1.7,2.2c0,1.2,0.7,2.1,1.6,2.1c0.7,0,1.2-0.5,1.5-1.8
		l0.3-1.3c0.5-1.8,1.1-2.5,2.4-2.5c1.5,0,2.6,1.4,2.6,3.5c0,2-1.1,3.4-2.7,3.5v-1.2c1.1-0.2,1.7-1.1,1.7-2.4s-0.6-2.3-1.6-2.3
		c-0.8,0-1.2,0.5-1.5,1.7l-0.4,1.5c-0.4,1.6-1.2,2.4-2.4,2.4C30.5,519.6,29.4,518.2,29.4,516.3z"/>
	<path class="st0" d="M34.1,511.8c-2.9,0-4.7-1.7-4.7-4.2c0-2.5,1.8-4.2,4.7-4.2c2.9,0,4.7,1.7,4.7,4.2S37,511.8,34.1,511.8z
		 M34.1,504.7c-2.3,0-3.7,1.2-3.7,3c0,1.8,1.4,3,3.7,3s3.7-1.2,3.7-3C37.8,505.9,36.5,504.7,34.1,504.7z"/>
	<path class="st0" d="M32.5,495.9c-1.1,0.2-2,1.2-2,2.6c0,1.8,1.4,2.9,3.7,2.9c2.3,0,3.7-1.2,3.7-3c0-1.4-0.8-2.3-1.9-2.6v-1.1
		c1.7,0.3,3,1.7,3,3.7c0,2.5-1.8,4.1-4.7,4.1c-2.9,0-4.7-1.6-4.7-4.1c0-2.1,1.4-3.5,3-3.7V495.9z"/>
	<path class="st0" d="M27,493.5c-0.4,0-0.8-0.4-0.8-0.8c0-0.4,0.3-0.8,0.8-0.8c0.4,0,0.8,0.3,0.8,0.8
		C27.8,493.2,27.4,493.5,27,493.5z M29.6,493.4v-1.2h9.1v1.2H29.6z"/>
	<path class="st0" d="M36.2,490.6c-1.6,0-2.5-1.2-2.6-3.3l-0.2-2.8h-0.8c-1.3,0-2.1,0.8-2.1,2.3c0,1.3,0.7,2.2,1.8,2.4v1.1
		c-1.6-0.1-2.8-1.5-2.8-3.5c0-2.1,1.2-3.4,3-3.4h6.2v1.1H37v0c1.1,0.5,1.9,1.8,1.9,3.1C38.8,489.4,37.8,490.6,36.2,490.6z
		 M35.3,484.5h-1l0.2,2.7c0.1,1.4,0.7,2.2,1.7,2.2c1,0,1.7-0.8,1.7-2.1C37.8,485.7,36.7,484.5,35.3,484.5z"/>
	<path class="st0" d="M27,481.6c-0.4,0-0.8-0.4-0.8-0.8c0-0.4,0.3-0.8,0.8-0.8c0.4,0,0.8,0.3,0.8,0.8
		C27.8,481.3,27.4,481.6,27,481.6z M29.6,481.5v-1.2h9.1v1.2H29.6z"/>
	<path class="st0" d="M29.4,475.3c0-1.9,1.1-3.2,2.7-3.3v1.1c-1.1,0.1-1.7,1-1.7,2.2c0,1.2,0.7,2.1,1.6,2.1c0.7,0,1.2-0.5,1.5-1.8
		l0.3-1.3c0.5-1.8,1.1-2.5,2.4-2.5c1.5,0,2.6,1.4,2.6,3.5c0,2-1.1,3.4-2.7,3.5v-1.2c1.1-0.2,1.7-1.1,1.7-2.4s-0.6-2.3-1.6-2.3
		c-0.8,0-1.2,0.5-1.5,1.7l-0.4,1.5c-0.4,1.6-1.2,2.4-2.4,2.4C30.5,478.5,29.4,477.2,29.4,475.3z"/>
</g>
<g>
	<path class="st0" d="M8.1,427.6c0-2.4,1.6-4.1,3.9-4.1s3.9,1.7,3.9,4.1v3.1h4.8v1.2H8.1V427.6z M14.9,430.7v-2.8
		c0-1.9-1.1-3.1-2.9-3.1s-2.9,1.2-2.9,3.1v2.8H14.9z"/>
	<path class="st0" d="M11.6,421.9v-1.1h1.6v0c-1.1-0.3-1.8-1.2-1.8-2.3c0-0.3,0.1-0.6,0.1-0.7h1.1c-0.1,0.1-0.1,0.5-0.1,0.9
		c0,1.3,1,2.1,2.5,2.1h5.7v1.2H11.6z"/>
	<path class="st0" d="M16.1,417.5c-2.9,0-4.7-1.7-4.7-4.2c0-2.5,1.8-4.2,4.7-4.2c2.9,0,4.7,1.7,4.7,4.2S19,417.5,16.1,417.5z
		 M16.1,410.3c-2.3,0-3.7,1.2-3.7,3c0,1.8,1.4,3,3.7,3c2.3,0,3.7-1.2,3.7-3C19.8,411.5,18.4,410.3,16.1,410.3z"/>
	<path class="st0" d="M16.1,408.1c-2.8,0-4.7-1.6-4.7-3.9c0-1.5,0.8-2.6,2-3.1v0H8.1v-1.2h12.6v1.1h-1.9v0c1.2,0.5,2.1,1.7,2.1,3.2
		C20.8,406.5,19,408.1,16.1,408.1z M16.1,406.9c2.2,0,3.7-1.2,3.7-2.9c0-1.7-1.5-2.9-3.7-2.9c-2.2,0-3.7,1.2-3.7,2.9
		C12.5,405.7,13.9,406.9,16.1,406.9z"/>
	<path class="st0" d="M20.7,390.5v1.1H19v0c1.1,0.5,1.8,1.6,1.8,3c0,2-1.3,3.2-3.3,3.2h-5.9v-1.2h5.7c1.6,0,2.5-0.9,2.5-2.4
		c0-1.6-1.1-2.7-2.8-2.7h-5.4v-1.2H20.7z"/>
	<path class="st0" d="M17.9,381.1c1.6,0.2,2.8,1.5,2.9,3.3l1,0.5c0-1.1,0.5-1.9,1.4-1.9c1,0,1.5,0.9,1.5,2c0,0.5-0.1,1-0.1,1.2h-0.7
		c0.1-0.2,0.1-0.7,0.1-1.1c0-0.8-0.3-1.2-0.8-1.2c-0.5,0-0.7,0.4-0.7,1.3v0.5h-0.5l-1.2-0.5c-0.2,2.3-1.9,3.7-4.7,3.7
		c-2.9,0-4.7-1.6-4.7-4.1c0-2.1,1.4-3.5,3-3.7v1.1c-1.1,0.2-2,1.2-2,2.6c0,1.8,1.4,2.9,3.7,2.9c2.3,0,3.7-1.2,3.7-3
		c0-1.4-0.8-2.3-1.9-2.6V381.1z"/>
	<path class="st0" d="M8.8,377.3c0,0.5,0.5,0.7,1.3,0.7v0.8c-1.3,0-2.1-0.6-2.1-1.5c0-1.2,1.4-1.6,1.4-2.3c0-0.4-0.5-0.7-1.3-0.7
		v-0.8c1.3,0,2.1,0.6,2.1,1.5C10.1,376.1,8.8,376.6,8.8,377.3z M18.2,380c-1.6,0-2.5-1.2-2.6-3.3l-0.2-2.8h-0.8
		c-1.3,0-2.1,0.8-2.1,2.3c0,1.3,0.7,2.2,1.8,2.4v1.1c-1.6-0.1-2.8-1.5-2.8-3.5c0-2.1,1.2-3.4,3-3.4h6.2v1.1H19v0
		c1.1,0.5,1.9,1.8,1.9,3.1C20.8,378.8,19.8,380,18.2,380z M17.3,373.9h-1l0.2,2.7c0.1,1.4,0.7,2.2,1.7,2.2c1,0,1.7-0.8,1.7-2.1
		C19.8,375.1,18.7,373.9,17.3,373.9z"/>
	<path class="st0" d="M16.1,371.2c-2.9,0-4.7-1.7-4.7-4.2c0-2.5,1.8-4.2,4.7-4.2c2.9,0,4.7,1.7,4.7,4.2S19,371.2,16.1,371.2z
		 M16.1,364.1c-2.3,0-3.7,1.2-3.7,3c0,1.8,1.4,3,3.7,3c2.3,0,3.7-1.2,3.7-3C19.8,365.3,18.4,364.1,16.1,364.1z"/>
</g>
<g>
	<path class="st0" d="M13.3,333.6c-4,0-6.5-2.2-6.5-5.6c0-2.7,1.7-4.8,4.2-5.1v1.2C9.3,324.4,8,326,8,328c0,2.7,2.1,4.4,5.4,4.4
		c3.3,0,5.4-1.7,5.4-4.4c0-2-1.1-3.5-2.8-3.9v-1.2c2.5,0.4,3.9,2.4,3.9,5.1C19.9,331.4,17.4,333.6,13.3,333.6z"/>
	<path class="st0" d="M10.6,321.5v-1.1h1.6v0c-1.1-0.3-1.8-1.2-1.8-2.3c0-0.3,0.1-0.6,0.1-0.7h1.1c-0.1,0.1-0.1,0.5-0.1,0.9
		c0,1.3,1,2.1,2.5,2.1h5.7v1.2H10.6z"/>
	<path class="st0" d="M8,316.3c-0.4,0-0.8-0.4-0.8-0.8c0-0.4,0.3-0.8,0.8-0.8c0.4,0,0.8,0.3,0.8,0.8C8.8,316,8.4,316.3,8,316.3z
		 M10.6,316.1V315h9.1v1.2H10.6z"/>
	<path class="st0" d="M17.2,313.4c-1.6,0-2.5-1.2-2.6-3.3l-0.2-2.8h-0.8c-1.3,0-2.1,0.8-2.1,2.3c0,1.3,0.7,2.2,1.8,2.4v1.1
		c-1.6-0.1-2.8-1.5-2.8-3.5c0-2.1,1.2-3.4,3-3.4h6.2v1.1H18v0c1.1,0.5,1.9,1.8,1.9,3.1C19.8,312.1,18.8,313.4,17.2,313.4z
		 M16.3,307.3h-1l0.2,2.7c0.1,1.4,0.7,2.2,1.7,2.2c1,0,1.7-0.8,1.7-2.1C18.8,308.5,17.7,307.3,16.3,307.3z"/>
	<path class="st0" d="M16.9,296.9c1.6,0.2,2.8,1.5,2.9,3.3l1,0.5c0-1.1,0.5-1.9,1.4-1.9c1,0,1.5,0.9,1.5,2c0,0.5-0.1,1-0.1,1.2h-0.7
		c0.1-0.2,0.1-0.7,0.1-1.1c0-0.8-0.3-1.2-0.8-1.2c-0.5,0-0.7,0.4-0.7,1.3v0.5h-0.5l-1.2-0.5c-0.2,2.3-1.9,3.7-4.7,3.7
		c-2.9,0-4.7-1.6-4.7-4.1c0-2.1,1.4-3.5,3-3.7v1.1c-1.1,0.2-2,1.2-2,2.6c0,1.8,1.4,2.9,3.7,2.9c2.3,0,3.7-1.2,3.7-3
		c0-1.4-0.8-2.3-1.9-2.6V296.9z"/>
	<path class="st0" d="M7.8,293.2c0,0.5,0.5,0.7,1.3,0.7v0.8c-1.3,0-2.1-0.6-2.1-1.5c0-1.2,1.4-1.6,1.4-2.3c0-0.4-0.5-0.7-1.3-0.7
		v-0.8c1.3,0,2.1,0.6,2.1,1.5C9.1,292.1,7.8,292.5,7.8,293.2z M17.2,295.9c-1.6,0-2.5-1.2-2.6-3.3l-0.2-2.8h-0.8
		c-1.3,0-2.1,0.8-2.1,2.3c0,1.3,0.7,2.2,1.8,2.4v1.1c-1.6-0.1-2.8-1.5-2.8-3.5c0-2.1,1.2-3.4,3-3.4h6.2v1.1H18v0
		c1.1,0.5,1.9,1.8,1.9,3.1C19.8,294.7,18.8,295.9,17.2,295.9z M16.3,289.8h-1l0.2,2.7c0.1,1.4,0.7,2.2,1.7,2.2c1,0,1.7-0.8,1.7-2.1
		C18.8,291.1,17.7,289.8,16.3,289.8z"/>
	<path class="st0" d="M15.1,287.3c-2.9,0-4.7-1.7-4.7-4.2c0-2.5,1.8-4.2,4.7-4.2c2.9,0,4.7,1.7,4.7,4.2S18,287.3,15.1,287.3z
		 M15.1,280.2c-2.3,0-3.7,1.2-3.7,3c0,1.8,1.4,3,3.7,3c2.3,0,3.7-1.2,3.7-3C18.8,281.4,17.5,280.2,15.1,280.2z"/>
	<path class="st0" d="M34.1,325.2c2.8,0,4.7,1.6,4.7,3.9c0,1.5-0.8,2.6-2,3.1v0h4.9v1.2H29.6v-1.1h1.9v0c-1.2-0.5-2.1-1.7-2.1-3.1
		C29.4,326.7,31.3,325.2,34.1,325.2z M34.1,326.4c-2.2,0-3.7,1.1-3.7,2.9c0,1.7,1.5,2.9,3.7,2.9c2.2,0,3.7-1.2,3.7-2.9
		C37.8,327.5,36.4,326.4,34.1,326.4z"/>
	<path class="st0" d="M38.7,316.5v1.1H37v0c1.1,0.5,1.8,1.6,1.8,3c0,2-1.3,3.2-3.3,3.2h-5.9v-1.2h5.7c1.6,0,2.5-0.9,2.5-2.4
		c0-1.6-1.1-2.7-2.8-2.7h-5.4v-1.2H38.7z"/>
	<path class="st0" d="M36.8,313.4L36.8,313.4l1.9,0v1.1H26.1v-1.2h5.4v0c-1.3-0.5-2-1.7-2-3.1c0-2.3,1.9-3.8,4.7-3.8
		s4.7,1.6,4.7,3.9C38.8,311.7,38.1,312.8,36.8,313.4z M34.1,313.4c2.2,0,3.7-1.2,3.7-2.9c0-1.8-1.4-2.9-3.7-2.9
		c-2.2,0-3.7,1.1-3.7,2.9C30.5,312.2,32,313.4,34.1,313.4z"/>
	<path class="st0" d="M26.1,304.9v-1.2h12.6v1.2H26.1z"/>
	<path class="st0" d="M27,301.9c-0.4,0-0.8-0.4-0.8-0.8c0-0.4,0.3-0.8,0.8-0.8c0.4,0,0.8,0.3,0.8,0.8
		C27.8,301.6,27.4,301.9,27,301.9z M29.6,301.7v-1.2h9.1v1.2H29.6z"/>
	<path class="st0" d="M32.5,292.4c-1.1,0.2-2,1.2-2,2.6c0,1.8,1.4,2.9,3.7,2.9c2.3,0,3.7-1.2,3.7-3c0-1.4-0.8-2.3-1.9-2.6v-1.1
		c1.7,0.3,3,1.7,3,3.7c0,2.5-1.8,4.1-4.7,4.1c-2.9,0-4.7-1.6-4.7-4.1c0-2.1,1.4-3.5,3-3.7V292.4z"/>
	<path class="st0" d="M27,290c-0.4,0-0.8-0.4-0.8-0.8c0-0.4,0.3-0.8,0.8-0.8c0.4,0,0.8,0.3,0.8,0.8C27.8,289.7,27.4,290,27,290z
		 M29.6,289.8v-1.2h9.1v1.2H29.6z"/>
	<path class="st0" d="M27.3,285.1h2.3v-1.8h1v1.8h5.9c0.9,0,1.3-0.4,1.3-1.2c0-0.1,0-0.6,0-0.6h1c0,0.1,0.1,0.6,0.1,0.9
		c0,1.5-0.6,2.1-2.3,2.1h-5.9v1.4h-1v-1.4h-2.3V285.1z"/>
	<path class="st0" d="M28.2,279.1l-2.6-1.9v-1.3l2.6,2.2V279.1z M36.2,282.4c-1.6,0-2.5-1.2-2.6-3.3l-0.2-2.8h-0.8
		c-1.3,0-2.1,0.8-2.1,2.3c0,1.3,0.7,2.2,1.8,2.4v1.1c-1.6-0.1-2.8-1.5-2.8-3.5c0-2.1,1.2-3.4,3-3.4h6.2v1.1H37v0
		c1.1,0.5,1.9,1.8,1.9,3.1C38.8,281.2,37.8,282.4,36.2,282.4z M35.3,276.3h-1l0.2,2.7c0.1,1.4,0.7,2.2,1.7,2.2c1,0,1.7-0.8,1.7-2.1
		C37.8,277.5,36.7,276.3,35.3,276.3z"/>
	<path class="st0" d="M29.6,273.3v-1.1h1.6v0c-1.1-0.3-1.8-1.2-1.8-2.3c0-0.3,0.1-0.6,0.1-0.7h1.1c-0.1,0.1-0.1,0.5-0.1,0.9
		c0,1.3,1,2.1,2.5,2.1h5.7v1.2H29.6z"/>
	<path class="st0" d="M27,268.2c-0.4,0-0.8-0.4-0.8-0.8c0-0.4,0.3-0.8,0.8-0.8c0.4,0,0.8,0.3,0.8,0.8
		C27.8,267.8,27.4,268.2,27,268.2z M29.6,268v-1.2h9.1v1.2H29.6z"/>
	<path class="st0" d="M36.2,265.2c-1.6,0-2.5-1.2-2.6-3.3l-0.2-2.8h-0.8c-1.3,0-2.1,0.8-2.1,2.3c0,1.3,0.7,2.2,1.8,2.4v1.1
		c-1.6-0.1-2.8-1.5-2.8-3.5c0-2.1,1.2-3.4,3-3.4h6.2v1.1H37v0c1.1,0.5,1.9,1.8,1.9,3.1C38.8,264,37.8,265.2,36.2,265.2z M35.3,259.1
		h-1l0.2,2.7c0.1,1.4,0.7,2.2,1.7,2.2c1,0,1.7-0.8,1.7-2.1C37.8,260.4,36.7,259.1,35.3,259.1z"/>
</g>
<g>
	<g>
		<path class="st1" d="M7.1,223.1c0-2.6,1.7-4.4,4.3-4.4c2.6,0,4.3,1.8,4.3,4.5v2.4h4v2.6H7.1V223.1z M13.6,225.6v-1.8
			c0-1.5-0.8-2.4-2.3-2.4c-1.4,0-2.2,0.9-2.2,2.4v1.8H13.6z"/>
		<path class="st1" d="M7.1,217.5v-2.6h12.6v2.6H7.1z"/>
		<path class="st1" d="M17,213.7c-1.7,0-2.7-1.3-2.8-3.7l-0.1-2.4h-0.6c-0.9,0-1.4,0.6-1.4,1.6c0,1,0.5,1.6,1.2,1.7v2.3
			c-1.8-0.1-3.1-1.6-3.1-4.1c0-2.4,1.2-4,3.1-4h6.5v2.5h-1.4v0.1c1,0.5,1.6,1.7,1.6,2.9C19.8,212.4,18.7,213.7,17,213.7z
			 M16.3,207.7h-0.7l0.1,2c0.1,1,0.5,1.5,1.2,1.5c0.7,0,1.1-0.6,1.1-1.4C18,208.6,17.3,207.7,16.3,207.7z"/>
		<path class="st1" d="M10.3,203.7v-2.5H12v-0.1c-1.2-0.5-1.8-1.5-1.8-2.9c0-2.1,1.3-3.3,3.5-3.3h6.1v2.6h-5.5
			c-1.2,0-1.9,0.6-1.9,1.7s0.8,1.9,2.1,1.9h5.4v2.6H10.3z"/>
		<path class="st1" d="M16.8,184.9c1.8,0.3,3.1,2,3.1,4.3c0,2.9-1.8,4.6-4.9,4.6c-3,0-4.9-1.8-4.9-4.5c0-2.7,1.8-4.5,4.7-4.5h0.8
			v6.5h0.2c1.3,0,2.3-0.8,2.3-2.2c0-0.9-0.5-1.7-1.2-1.9V184.9z M14,191.3v-4c-1.2,0.1-2,0.8-2,2C12,190.4,12.9,191.2,14,191.3z"/>
		<path class="st1" d="M7.7,183.7c-0.7,0-1.3-0.6-1.3-1.3c0-0.7,0.6-1.3,1.3-1.3c0.7,0,1.3,0.6,1.3,1.3C9,183.1,8.4,183.7,7.7,183.7
			z M20.1,181.1c1.9,0,2.9,1.2,2.9,3.4c0,0.2,0,0.6,0,0.7h-1.9c0-0.1,0-0.2,0-0.3c0-0.8-0.3-1.2-1.1-1.2h-9.8v-2.6H20.1z"/>
		<path class="st1" d="M17,179.9c-1.7,0-2.7-1.3-2.8-3.7l-0.1-2.4h-0.6c-0.9,0-1.4,0.6-1.4,1.6c0,1,0.5,1.6,1.2,1.7v2.3
			c-1.8-0.1-3.1-1.6-3.1-4.1c0-2.4,1.2-4,3.1-4h6.5v2.5h-1.4v0.1c1,0.5,1.6,1.7,1.6,2.9C19.8,178.5,18.7,179.9,17,179.9z
			 M16.3,173.9h-0.7l0.1,2c0.1,1,0.5,1.5,1.2,1.5c0.7,0,1.1-0.6,1.1-1.4C18,174.8,17.3,173.9,16.3,173.9z"/>
		<path class="st1" d="M10.3,169.8v-2.5H12v-0.1c-1.1-0.4-1.9-1.4-1.9-2.7c0-1.4,0.7-2.3,1.9-2.6V162c-1.2-0.4-1.9-1.5-1.9-2.9
			c0-1.8,1.3-3.1,3.2-3.1h6.4v2.6h-5.8c-1.1,0-1.7,0.5-1.7,1.5c0,1,0.7,1.6,1.8,1.6h5.7v2.5h-5.9c-1,0-1.6,0.6-1.6,1.5
			c0,1,0.7,1.6,1.8,1.6h5.7v2.6H10.3z"/>
		<path class="st1" d="M16.8,145.9c1.8,0.3,3.1,2,3.1,4.3c0,2.9-1.8,4.6-4.9,4.6c-3,0-4.9-1.8-4.9-4.5c0-2.7,1.8-4.5,4.7-4.5h0.8
			v6.5h0.2c1.3,0,2.3-0.8,2.3-2.2c0-0.9-0.5-1.7-1.2-1.9V145.9z M14,152.3v-4c-1.2,0.1-2,0.8-2,2C12,151.4,12.9,152.2,14,152.3z"/>
		<path class="st1" d="M10.3,144.7v-2.5H12v-0.1c-1.2-0.5-1.8-1.5-1.8-2.9c0-2.1,1.3-3.3,3.5-3.3h6.1v2.6h-5.5
			c-1.2,0-1.9,0.6-1.9,1.7s0.8,1.9,2.1,1.9h5.4v2.6H10.3z"/>
		<path class="st1" d="M8.1,131.3h2.2v-1.7h1.9v1.7h4.5c0.7,0,1.1-0.4,1.1-1.1c0-0.2,0-0.5,0-0.6h1.9c0.1,0.3,0.1,0.7,0.1,1.2
			c0,2.2-0.7,3.1-2.6,3.1h-4.9v1.3h-1.9v-1.3H8.1V131.3z"/>
		<path class="st1" d="M15,128.7c-3,0-4.9-1.8-4.9-4.7s1.8-4.7,4.9-4.7c3.1,0,4.9,1.8,4.9,4.7S18.1,128.7,15,128.7z M15,122
			c-1.9,0-2.9,0.8-2.9,2c0,1.2,1.1,2.1,2.9,2.1c1.9,0,2.9-0.8,2.9-2.1C17.9,122.8,16.9,122,15,122z"/>
		<path class="st1" d="M35.8,219.9c1.8,0.3,3.1,2,3.1,4.3c0,2.9-1.8,4.6-4.9,4.6c-3,0-4.9-1.8-4.9-4.5c0-2.7,1.8-4.5,4.7-4.5h0.8
			v6.5h0.2c1.3,0,2.3-0.8,2.3-2.2c0-0.9-0.5-1.7-1.2-1.9V219.9z M33,226.3v-4c-1.2,0.1-2,0.8-2,2C31,225.4,31.8,226.2,33,226.3z"/>
		<path class="st1" d="M29.1,214.9c0-2.4,1.2-3.9,3.1-3.9v2.4c-0.8,0.1-1.3,0.6-1.3,1.6c0,0.9,0.4,1.5,1,1.5c0.5,0,0.8-0.4,1-1.3
			l0.3-1.6c0.4-2,1.2-2.8,2.6-2.8c1.8,0,3.1,1.7,3.1,4.1c0,2.6-1.2,4.1-3.1,4.3v-2.5c0.8-0.2,1.3-0.7,1.3-1.8c0-1-0.4-1.6-1-1.6
			c-0.5,0-0.8,0.3-1,1.2l-0.3,1.6c-0.4,1.8-1.3,2.7-2.7,2.7C30.3,218.8,29.1,217.3,29.1,214.9z"/>
		<path class="st1" d="M27.1,206.3h2.2v-1.7h1.9v1.7h4.5c0.7,0,1.1-0.4,1.1-1.1c0-0.2,0-0.5,0-0.6h1.9c0.1,0.3,0.1,0.7,0.1,1.2
			c0,2.2-0.7,3.1-2.6,3.1h-4.9v1.3h-1.9v-1.3h-2.2V206.3z"/>
		<path class="st1" d="M29.3,203.4v-2.5H31v-0.1c-1.2-0.3-1.8-1.1-1.8-2.2c0-0.3,0-0.6,0.1-0.7h2.3c-0.1,0.2-0.1,0.6-0.1,0.9
			c0,1.3,0.8,2,2.1,2h5.2v2.6H29.3z"/>
		<path class="st1" d="M36,197.6c-1.7,0-2.7-1.3-2.8-3.7l-0.1-2.4h-0.6c-0.9,0-1.4,0.6-1.4,1.6c0,1,0.5,1.6,1.2,1.7v2.3
			c-1.8-0.1-3.1-1.6-3.1-4.1c0-2.4,1.2-4,3.1-4h6.5v2.5h-1.4v0.1c1,0.5,1.6,1.7,1.6,2.9C38.8,196.2,37.7,197.6,36,197.6z
			 M35.3,191.5h-0.7l0.1,2c0.1,1,0.5,1.5,1.2,1.5c0.7,0,1.1-0.6,1.1-1.4C37,192.5,36.3,191.5,35.3,191.5z"/>
		<path class="st1" d="M27.1,184.3h2.2v-1.7h1.9v1.7h4.5c0.7,0,1.1-0.4,1.1-1.1c0-0.2,0-0.5,0-0.6h1.9c0.1,0.3,0.1,0.7,0.1,1.2
			c0,2.2-0.7,3.1-2.6,3.1h-4.9v1.3h-1.9v-1.3h-2.2V184.3z"/>
		<path class="st1" d="M28,178.1l-2.7-1.4v-2.3l2.7,2V178.1z M35.8,172.9c1.8,0.3,3.1,2,3.1,4.3c0,2.9-1.8,4.6-4.9,4.6
			c-3,0-4.9-1.8-4.9-4.5c0-2.7,1.8-4.5,4.7-4.5h0.8v6.5h0.2c1.3,0,2.3-0.8,2.3-2.2c0-0.9-0.5-1.7-1.2-1.9V172.9z M33,179.2v-4
			c-1.2,0.1-2,0.8-2,2C31,178.3,31.8,179.1,33,179.2z"/>
		<path class="st1" d="M39.4,171.7v-2.5c0.6-0.2,1.1-0.9,1.1-1.9c0-1.3-0.7-2.1-1.8-2.1H37v0.1c1,0.4,1.7,1.5,1.7,2.9
			c0,2.3-1.8,3.8-4.7,3.8c-3,0-4.8-1.5-4.8-3.9c0-1.3,0.7-2.4,1.8-2.9v0h-1.6v-2.5h9.3c2.2,0,3.7,1.9,3.7,4.7
			C42.2,169.8,41,171.5,39.4,171.7z M34,165.2c-1.7,0-2.8,0.8-2.8,2.1c0,1.3,1.1,2.1,2.8,2.1c1.7,0,2.7-0.8,2.7-2.1
			C36.7,166,35.7,165.2,34,165.2z"/>
		<path class="st1" d="M26.7,161.1c-0.7,0-1.3-0.6-1.3-1.3c0-0.7,0.6-1.3,1.3-1.3c0.7,0,1.3,0.6,1.3,1.3
			C28,160.5,27.4,161.1,26.7,161.1z M29.3,161.1v-2.6h9.4v2.6H29.3z"/>
		<path class="st1" d="M32.8,150.8c-1,0.1-1.7,0.8-1.7,1.9c0,1.3,1.1,2,2.9,2c1.8,0,2.9-0.8,2.9-2.1c0-1-0.6-1.7-1.6-1.8v-2.4
			c2.2,0.1,3.6,1.8,3.6,4.3c0,2.8-1.8,4.6-4.9,4.6c-3,0-4.9-1.8-4.9-4.6c0-2.5,1.6-4.2,3.7-4.3V150.8z"/>
		<path class="st1" d="M34,147.7c-3,0-4.9-1.8-4.9-4.7s1.8-4.7,4.9-4.7c3.1,0,4.9,1.8,4.9,4.7S37.1,147.7,34,147.7z M34,141
			c-1.9,0-2.9,0.8-2.9,2c0,1.2,1.1,2.1,2.9,2.1c1.9,0,2.9-0.8,2.9-2.1C36.9,141.8,35.9,141,34,141z"/>
	</g>
</g>
<g>
	<g>
		<path class="st0" d="M7.1,88.8c0-2.4,1.6-4.1,3.9-4.1s3.9,1.7,3.9,4.1v3.1h4.8v1.2H7.1V88.8z M13.9,91.9v-2.8
			c0-1.9-1.1-3.1-2.9-3.1s-2.9,1.2-2.9,3.1v2.8H13.9z"/>
		<path class="st0" d="M17.1,76.3c1.6,0.3,2.7,1.8,2.7,3.8c0,2.6-1.8,4.1-4.7,4.1c-2.8,0-4.7-1.6-4.7-4.1c0-2.4,1.8-3.9,4.5-3.9h0.5
			V83h0.1c2.1,0,3.3-1.2,3.3-3c0-1.4-0.7-2.3-1.7-2.6V76.3z M14.5,83v-5.6c-1.8,0-3,1.1-3,2.8C11.5,81.7,12.7,82.9,14.5,83z"/>
		<path class="st0" d="M10.4,71.6c0-1.9,1.1-3.2,2.7-3.3v1.1c-1.1,0.1-1.7,1-1.7,2.2c0,1.2,0.7,2.1,1.6,2.1c0.7,0,1.2-0.5,1.5-1.8
			l0.3-1.3c0.5-1.8,1.1-2.5,2.4-2.5c1.5,0,2.6,1.4,2.6,3.5c0,2-1.1,3.4-2.7,3.5V74c1.1-0.2,1.7-1.1,1.7-2.4s-0.6-2.3-1.6-2.3
			c-0.8,0-1.2,0.5-1.5,1.7l-0.4,1.5c-0.4,1.6-1.2,2.4-2.4,2.4C11.5,74.9,10.4,73.6,10.4,71.6z"/>
		<path class="st0" d="M12.5,60.2L12.5,60.2l-1.9,0V59h12.1v1.2h-4.9v0c1.2,0.5,2,1.7,2,3.1c0,2.3-1.9,3.9-4.7,3.9
			c-2.8,0-4.7-1.6-4.7-3.9C10.4,61.8,11.3,60.7,12.5,60.2z M15.1,60.2c-2.2,0-3.7,1.2-3.7,2.9c0,1.7,1.4,2.9,3.7,2.9
			c2.2,0,3.7-1.1,3.7-2.9C18.8,61.4,17.3,60.2,15.1,60.2z"/>
		<path class="st0" d="M19.7,49.9V51H18v0c1.1,0.5,1.8,1.6,1.8,3c0,2-1.3,3.2-3.3,3.2h-5.9v-1.2h5.7c1.6,0,2.5-0.9,2.5-2.4
			c0-1.6-1.1-2.7-2.8-2.7h-5.4v-1.2H19.7z"/>
		<path class="st0" d="M8,48.1c-0.4,0-0.8-0.4-0.8-0.8c0-0.4,0.3-0.8,0.8-0.8c0.4,0,0.8,0.3,0.8,0.8C8.8,47.8,8.4,48.1,8,48.1z
			 M10.6,47.9v-1.2h9.1v1.2H10.6z"/>
		<path class="st0" d="M10.4,41.8c0-1.9,1.1-3.2,2.7-3.3v1.1c-1.1,0.1-1.7,1-1.7,2.2c0,1.2,0.7,2.1,1.6,2.1c0.7,0,1.2-0.5,1.5-1.8
			l0.3-1.3c0.5-1.8,1.1-2.5,2.4-2.5c1.5,0,2.6,1.4,2.6,3.5c0,2-1.1,3.4-2.7,3.5v-1.2c1.1-0.2,1.7-1.1,1.7-2.4s-0.6-2.3-1.6-2.3
			c-0.8,0-1.2,0.5-1.5,1.7l-0.4,1.5C15,44.3,14.2,45,13,45C11.5,45,10.4,43.7,10.4,41.8z"/>
		<path class="st0" d="M17.2,37.2c-1.6,0-2.5-1.2-2.6-3.3l-0.2-2.8h-0.8c-1.3,0-2.1,0.8-2.1,2.3c0,1.3,0.7,2.2,1.8,2.4v1.1
			c-1.6-0.1-2.8-1.5-2.8-3.5c0-2.1,1.2-3.4,3-3.4h6.2v1.1H18v0c1.1,0.5,1.9,1.8,1.9,3.1C19.8,36,18.8,37.2,17.2,37.2z M16.3,31.1h-1
			l0.2,2.7c0.1,1.4,0.7,2.2,1.7,2.2c1,0,1.7-0.8,1.7-2.1C18.8,32.4,17.7,31.1,16.3,31.1z"/>
		<path class="st0" d="M10.4,25.1c0-1.9,1.1-3.2,2.7-3.3v1.1c-1.1,0.1-1.7,1-1.7,2.2c0,1.2,0.7,2.1,1.6,2.1c0.7,0,1.2-0.5,1.5-1.8
			l0.3-1.3c0.5-1.8,1.1-2.5,2.4-2.5c1.5,0,2.6,1.4,2.6,3.5c0,2-1.1,3.4-2.7,3.5v-1.2c1.1-0.2,1.7-1.1,1.7-2.4s-0.6-2.3-1.6-2.3
			c-0.8,0-1.2,0.5-1.5,1.7l-0.4,1.5c-0.4,1.6-1.2,2.4-2.4,2.4C11.5,28.3,10.4,27,10.4,25.1z"/>
	</g>
</g>
</svg>
