<?xml version="1.0" encoding="utf-8"?>
<!-- Generator: Adobe Illustrator 26.2.1, SVG Export Plug-In . SVG Version: 6.00 Build 0)  -->
<svg version="1.1" id="Layer_1" xmlns="http://www.w3.org/2000/svg" xmlns:xlink="http://www.w3.org/1999/xlink" x="0px" y="0px"
	 viewBox="0 0 503.2 210.5" style="enable-background:new 0 0 503.2 210.5;" xml:space="preserve">
<style type="text/css">
	.st0{fill:#424143;}
</style>
<g>
	<g>
		<g>
			<path class="st0" d="M144,67.7c3.6,0.7,6.1,2,7.8,3.9c1.6,1.9,2.6,3.8,2.9,5.6c0.3,1.8,0.2,3.3-0.2,4.5c-0.5,1.2-1.2,1.4-1.9,0.6
				c-1.8-1.8-3.8-2-6.1-0.7c-1.8,1.1-2.7,3.1-2.7,5.8c0,2.8,0.4,5.8,1.1,9.1c0.7,3.3,1.5,6.7,2.3,10.2c0.8,3.5,1.1,6.4,1,8.9
				c-0.2,2.9-0.9,5.9-2.2,9c-1.3,3.1-3.8,6-7.5,8.7c-2.4,1.8-5.2,2.9-8.2,3.4c-3,0.5-5.6,0.5-7.9,0.2c-2.8-0.3-5-1.5-6.7-3.4
				c-1.7-2-2.7-4.2-3-6.6c-2.3,1.8-4.8,3.4-7.7,5c-2.8,1.5-6,2.8-9.4,3.8c-0.3,0-0.6-0.7-0.7-2.2c-0.2-1.5-0.1-3.1,0.1-5
				c0.3-1.9,0.8-3.6,1.6-5.1c0.8-1.5,2-2.3,3.7-2.3c3.1,0,5.9-1.2,8.4-3.5c2.5-2.3,4.8-5.4,6.9-9.1c2-3.7,3.8-7.8,5.4-12.3
				c1.5-4.4,2.8-8.6,3.8-12.5c0.7-2.3,1.6-4.5,2.9-6.6c1.3-2.1,2.8-4,4.5-5.6c1.7-1.6,3.5-2.8,5.6-3.5
				C139.5,67.3,141.7,67.2,144,67.7z M128.8,124.8c0.6-0.3,1-1.1,1.1-2.3c0.1-1.2,0-2.6-0.1-4.1c-0.1-1.5-0.4-3.2-0.7-4.9
				c-0.3-1.7-0.6-3.3-0.7-4.7c-0.3,0.5-0.7,1.1-1.2,1.9c-0.5,0.8-1,1.6-1.6,2.6c-0.6,0.9-1.1,1.7-1.6,2.3c-0.5,0.7-0.8,1-1,1
				c-0.3,1.1-0.4,2.3-0.1,3.5c0.2,1.2,0.6,2.3,1.2,3.3c0.6,1,1.3,1.6,2.2,1.9C127.1,125.6,128,125.5,128.8,124.8z"/>
			<path class="st0" d="M202.5,83.9c0.6-1.6,1.7-2.5,3-2.8c1.4-0.2,2.7-0.1,4,0.5c1.3,0.6,2.3,1.5,3,2.8c0.7,1.3,0.8,2.7,0.1,4.1
				c-1.8,4-4,8.7-6.7,13.8c-2.7,5.2-5.7,10.2-9,15c-3.3,4.8-6.8,9.1-10.5,12.7c-3.6,3.6-7.4,5.9-11.3,6.7c-4.2,1-8.1-0.2-11.8-3.4
				c-3.6-3.2-6.1-7.9-7.4-14c-1.3-6.1-0.9-13.3,1.1-21.5c2-8.2,6.7-17.1,14-26.5c2.3-2.9,4.4-4.4,6.3-4.4c2,0,3.2,0.1,3.7,0.2
				c1.3,0.7,2.4,1.6,3.4,2.9c1,1.3,1,3.3,0.2,5.8c-0.7,2.6-1.5,5.8-2.7,9.7c-1.1,3.9-2.1,7.7-2.8,11.4c-0.7,3.7-1,7.1-0.7,10
				c0.2,2.9,1.4,4.6,3.5,5.1c1.9,0.5,3.9-0.1,5.8-1.9c1.9-1.8,3.8-4.1,5.6-7c1.8-2.9,3.5-6.1,5-9.6C200,90.3,201.3,87,202.5,83.9z
				 M203.6,13.6c2.1-0.3,4-0.1,5.7,0.5c1.7,0.6,3,1.6,4,2.8c1,1.2,1.5,2.7,1.7,4.5c0.2,1.8-0.2,3.6-1,5.3c-0.3,0.6-1.3,1.7-2.9,3.3
				c-1.6,1.5-2.8,2.7-3.7,3.5c-2.3,2.3-4.7,5.2-7.2,8.7c-2.5,3.6-4.7,8.2-6.5,13.8c-0.3,0.5-0.8,1-1.6,1.5c-0.7,0.5-1.4,0-2-1.5
				c-0.8-2.6-1.5-6.1-2.1-10.5c-0.6-4.4,0-9.3,1.6-14.8c1.8-5.7,3.9-9.8,6.2-12.5C198.3,15.7,200.9,14.1,203.6,13.6z"/>
			<path class="st0" d="M269.9,39.8c-2.9,5.7-6.4,11.4-10.4,17.2c-4,5.8-8.1,11.5-12.4,16.9c-4.3,5.4-8.7,10.5-13,15.3
				c-4.4,4.8-8.4,8.9-12.2,12.3c0,0.8,0.1,1.5,0.2,2c0.5,6,2.1,10.3,4.7,13c2.7,2.7,5.6,4.3,8.9,4.8c4.2,0.5,8.1-0.2,11.6-2.1
				c3.5-1.9,6.1-4,7.9-6.4c0.3-0.5,0.8-1.1,1.3-2c0.6-0.8,1.3-2.3,2.3-4.4c1,0,1.9,0.5,2.7,1.6c0.8,1,1.4,2.3,1.7,3.7
				c0.3,1.4,0.4,2.8,0.4,4.4c-0.1,1.5-0.5,2.8-1.4,3.7c-1.5,1.9-3.4,4-5.8,6.1c-2.4,2.1-5.2,4-8.3,5.7c-3.1,1.7-6.4,3.1-10,4.2
				c-3.6,1.1-7.3,1.7-11.2,1.7c-7.8,0-13.7-2.2-17.7-6.7c-4-4.5-6.6-10.3-7.7-17.4c-1.8,0-3-0.7-3.6-2c0.6-0.3,1.2-0.6,1.7-0.7
				c0.5-0.1,1-0.4,1.7-0.7c-0.8-9.7,0-19.4,2.2-28.9c2.3-9.6,5.6-18.6,9.9-27.1c4.3-8.5,9.2-16.3,14.6-23.3
				c5.4-7,10.8-12.9,16.2-17.6c5.4-4.7,10.3-8,14.7-10c4.5-2,7.9-2.3,10.3-0.8c3.4,1.5,5.5,4,6.4,7.4c0.9,3.5,1,7.2,0.5,11.1
				c-0.6,3.9-1.5,7.6-2.8,11.2C272,35.3,270.9,38,269.9,39.8z M262.9,12.8c-2.4,0.8-5.4,3.5-9,8c-3.6,4.5-7.3,10-11.1,16.5
				c-3.8,6.5-7.4,13.3-10.7,20.6c-3.3,7.3-5.8,14-7.5,20.2c-1,3.7-1.7,7.5-2.2,11.2c5.4-6.5,10.8-13.7,16.3-21.7
				c5.5-8,10.3-15.7,14.5-23.1c4.1-7.4,7.3-14,9.5-19.8c2.2-5.8,2.6-9.8,1.4-11.9H262.9z"/>
			<path class="st0" d="M347.9,77.4c0.5-0.6,1.2-1.1,2.1-1.2c0.9-0.2,1.7-0.1,2.5,0.1c0.8,0.2,1.5,0.8,2.1,1.6
				c0.6,0.8,0.8,1.8,0.6,2.9c-7.3,12-18.7,19.4-34.1,22.3c-2.8,3.6-5.7,7.3-8.8,11.2c-3.1,3.9-6.3,7.4-9.6,10.7
				c-3.3,3.2-6.9,6-10.6,8.4c-3.7,2.3-7.7,3.7-11.9,4.2c-3.6,0.5-7,0.4-10.4-0.4c-3.3-0.7-6.2-2.3-8.6-4.8c-1.3-1.5-2.2-4.1-2.8-7.9
				c-0.5-3.8-0.8-8.2-0.8-13c0-4.8,0.3-9.9,1-15.1c0.7-5.2,1.6-9.9,3-14.2c1.3-4.3,2.9-7.8,4.8-10.6c1.9-2.7,4-4.1,6.4-4.1
				c5.7,0,9.6,1.4,11.9,4.2c2.3,2.8,3.6,6,3.9,9.7c0.3,3.7,0,7.5-1,11.2c-1,3.7-1.9,6.6-2.7,8.7c-1.8,4.5-2.8,8.5-3.2,12
				c-0.3,3.5,0.8,5.6,3.4,6.2c1.1,0.3,2.6-0.6,4.5-2.7c1.9-2.1,3.9-4.8,6-8.2c2.1-3.4,4.3-7.1,6.7-11.2c2.4-4,4.5-7.9,6.6-11.6
				c2-3.6,3.9-6.8,5.5-9.5c1.6-2.7,2.8-4.3,3.6-5c0.2-0.2,0.3-0.3,0.5-0.3c0.1-0.1,0.3-0.2,0.5-0.4c0.3-0.2,0.5-0.3,0.6-0.3
				c0.1,0,0.3-0.1,0.6-0.2c2.8-0.8,5.3-0.1,7.5,2.1c2.3,2.2,3.8,4.6,4.6,7.2c2.7,0.6,5,1,6.8,1c1.8,0,3.3-0.1,4.5-0.5
				c1.2-0.3,2.1-0.7,2.8-1.2C347.1,78.3,347.5,77.8,347.9,77.4z"/>
			<path class="st0" d="M402.3,96c0.6-1.5,1.6-2.3,2.9-2.4c1.3-0.2,2.5,0,3.7,0.6c1.1,0.6,1.9,1.5,2.4,2.8c0.5,1.3,0.4,2.7-0.3,4.1
				c-1.8,3.9-3.7,7.9-5.8,11.9c-2.1,4-4.6,7.8-7.5,11.3c-2.8,3.5-6.1,6.4-9.9,8.9c-3.7,2.4-8,4-12.9,4.6c-4.1,0.5-7.5-0.7-10.2-3.4
				c-2.7-2.8-4.3-7-4.6-12.7c-3.4,4.1-7,7.5-10.6,10.4c-3.6,2.9-7.2,4.8-10.6,5.5c-2.4,0.5-4.7,0.3-6.7-0.6c-2-0.9-3.7-2.4-5.1-4.5
				c-1.4-2.1-2.3-4.8-2.8-7.9c-0.5-3.2-0.4-6.7,0.3-10.6c1.2-6.6,3.6-13.5,7.2-20.5c3.7-7.1,8.9-13.4,15.7-19.1
				c3.4-2.7,7-4.7,10.7-5.9c3.7-1.2,7.1-1.6,10.2-1.1c3.1,0.5,5.6,1.9,7.5,4.1c1.9,2.3,2.8,5.6,2.7,10c0,1-0.3,1.9-0.9,2.8
				c-0.6,0.9-1.3,1.5-2.1,1.8c-0.7,0.2-1.2,0.1-1.6-0.1c-0.4-0.2-0.8-0.6-1.3-1c-0.5-0.4-1.1-0.7-1.7-1c-0.7-0.2-1.5-0.4-2.4-0.4
				c-2.4,0-4.9,0.9-7.5,2.5c-2.6,1.7-5,3.8-7.3,6.4c-2.3,2.6-4.3,5.4-6,8.5c-1.7,3.1-3,6-3.8,8.6c-0.8,2.7-1,5-0.6,7
				c0.4,2,1.7,3.3,3.8,3.8c1.3,0.3,2.7-0.1,4.2-1.3c1.5-1.2,3.1-2.8,4.7-4.9c1.6-2,3.3-4.4,5-7c1.7-2.7,3.3-5.3,4.8-7.9
				c0.2-0.3,0.6-1.1,1.3-2.3c0.7-1.2,1.7-2.5,2.8-3.9c1.1-1.4,2.3-2.6,3.4-3.7c1.1-1.1,2.1-1.9,2.9-2.2c1.3-0.3,2.6-0.2,4,0.4
				c1.4,0.6,2.6,1.3,3.5,2.3c1,1,1.7,2.1,2.2,3.4c0.5,1.3,0.5,2.4,0,3.4c-1,2.3-1.7,4.8-2.3,7.5c-0.6,2.8-0.9,5.3-1.1,7.5
				c-0.1,2.3,0,4.1,0.4,5.6c0.4,1.5,1.2,2,2.5,1.5c3.9-1.5,6.9-4.2,9-8.4C396.8,106.5,399.4,101.6,402.3,96z"/>
		</g>
		<g>
			<path class="st0" d="M334.1,31.8c1.2,0.2,2,0.7,2.6,1.3c0.5,0.7,0.9,1.3,1,1.9c0.1,0.6,0.1,1.1-0.1,1.5c-0.2,0.4-0.4,0.5-0.7,0.2
				c-0.6-0.6-1.3-0.7-2-0.3c-0.6,0.4-0.9,1-0.9,2c0,0.9,0.1,2,0.3,3.1c0.3,1.1,0.5,2.2,0.8,3.4c0.3,1.2,0.4,2.2,0.3,3
				c-0.1,1-0.3,2-0.7,3c-0.4,1-1.3,2-2.5,3c-0.8,0.6-1.7,1-2.7,1.1c-1,0.1-1.9,0.2-2.7,0.1c-0.9-0.1-1.7-0.5-2.2-1.2
				c-0.6-0.7-0.9-1.4-1-2.2c-0.8,0.6-1.6,1.1-2.6,1.7c-1,0.5-2,0.9-3.1,1.3c-0.1,0-0.2-0.3-0.3-0.8c-0.1-0.5,0-1,0.1-1.7
				c0.1-0.6,0.3-1.2,0.5-1.7c0.3-0.5,0.7-0.8,1.2-0.8c1,0,2-0.4,2.8-1.2c0.8-0.8,1.6-1.8,2.3-3.1c0.7-1.3,1.3-2.6,1.8-4.1
				c0.5-1.5,1-2.9,1.3-4.2c0.2-0.8,0.5-1.5,1-2.2c0.4-0.7,0.9-1.3,1.5-1.9c0.6-0.6,1.2-0.9,1.9-1.2
				C332.6,31.7,333.3,31.7,334.1,31.8z M329,51c0.2-0.1,0.3-0.4,0.4-0.8c0-0.4,0-0.9,0-1.4c-0.1-0.5-0.1-1.1-0.2-1.6
				c-0.1-0.6-0.2-1.1-0.2-1.6c-0.1,0.2-0.3,0.4-0.4,0.7c-0.2,0.3-0.3,0.6-0.5,0.9c-0.2,0.3-0.4,0.5-0.5,0.8
				c-0.1,0.2-0.3,0.3-0.3,0.3c-0.2,0.4-0.2,0.8-0.1,1.2c0.1,0.4,0.2,0.8,0.4,1.1c0.2,0.3,0.4,0.5,0.7,0.6
				C328.4,51.3,328.7,51.2,329,51z"/>
			<path class="st0" d="M357.9,40.2c0.2-0.5,0.5-0.9,1-1c0.5-0.1,0.9-0.1,1.3,0c0.4,0.2,0.7,0.4,0.9,0.9c0.2,0.4,0.2,0.9,0,1.4
				c-0.6,1.2-1.2,2.5-2,4c-0.8,1.4-1.7,2.8-2.6,4.2c-0.9,1.3-1.9,2.5-3,3.5c-1.1,1-2.1,1.6-3.2,1.8c-2,0.4-3.6,0.2-4.9-0.6
				c-1.2-0.9-2-2.1-2.3-3.8c-0.3-1.7-0.1-3.7,0.7-6c0.7-2.3,2.1-4.7,4.1-7.2c-0.9,0.4-1.7,0.6-2.5,0.7c-0.8,0.1-1.4,0-1.9-0.2
				c-0.1,0.4-0.4,1.2-1,2.4c-0.6,1.3-1.3,2.7-2.1,4.3c-0.7,0.7-1.3,0.9-1.9,0.6c-0.5-0.3-0.8-1.1-0.9-2.2c0.4-0.8,0.7-1.6,1-2.4
				c0.3-0.8,0.6-1.6,0.9-2.2c0.3-0.8,0.5-1.5,0.7-2.2l1.3-7.5c0.3-0.4,0.6-0.5,0.9-0.5c0.3,0.1,0.6,0.3,1,0.7
				c0.4,0.4,0.8,1.1,1.3,2.3c0,0,0.1,0.2,0.1,0.3c0.7,0.4,1.4,0.7,2.2,0.8c0.8,0.1,1.5,0.1,2.2,0.1c0.7-0.1,1.3-0.2,1.8-0.4
				c0.5-0.2,0.8-0.4,0.9-0.5c0.2-0.3,0.4-0.4,0.8-0.4c0.4,0,0.7,0.1,1,0.3l0.2,0.2c0.6,0.7,0.7,1.6,0.4,3c-0.4,1.3-0.9,2.7-1.5,4.2
				c-0.7,1.5-1.3,2.9-1.9,4.2c-0.6,1.4-0.9,2.4-0.9,3.2c0.1,0.6,0.3,1.1,0.6,1.3c0.4,0.2,0.8,0.3,1.4,0.2c0.5-0.1,1-0.3,1.5-0.7
				c0.5-0.4,1-0.8,1.3-1.3c0.5-0.8,1.1-1.6,1.5-2.7C357,42.1,357.5,41.1,357.9,40.2z"/>
			<path class="st0" d="M381.2,41.2c0.2-0.5,0.6-0.8,1-0.8c0.4-0.1,0.8,0,1.2,0.2c0.4,0.2,0.7,0.5,0.8,0.9c0.1,0.4,0.1,0.9-0.1,1.4
				c-0.6,1.3-1.2,2.7-2,4c-0.7,1.4-1.5,2.6-2.5,3.8c-1,1.2-2.1,2.2-3.3,3c-1.3,0.8-2.7,1.3-4.4,1.5c-1.4,0.2-2.5-0.2-3.4-1.1
				c-0.9-0.9-1.5-2.4-1.6-4.3c-1.1,1.4-2.3,2.5-3.6,3.5c-1.2,1-2.4,1.6-3.6,1.9c-0.8,0.2-1.6,0.1-2.2-0.2c-0.7-0.3-1.2-0.8-1.7-1.5
				c-0.5-0.7-0.8-1.6-1-2.7c-0.2-1.1-0.1-2.2,0.1-3.5c0.4-2.2,1.2-4.5,2.4-6.9c1.2-2.4,3-4.5,5.3-6.4c1.2-0.9,2.3-1.6,3.6-2
				c1.3-0.4,2.4-0.5,3.4-0.4c1,0.2,1.9,0.6,2.5,1.4c0.7,0.8,1,1.9,0.9,3.4c0,0.3-0.1,0.6-0.3,0.9c-0.2,0.3-0.4,0.5-0.7,0.6
				c-0.2,0.1-0.4,0-0.5,0c-0.1-0.1-0.3-0.2-0.4-0.3c-0.2-0.1-0.4-0.2-0.6-0.3c-0.2-0.1-0.5-0.1-0.8-0.1c-0.8,0-1.7,0.3-2.5,0.9
				c-0.9,0.6-1.7,1.3-2.4,2.2c-0.8,0.9-1.5,1.8-2,2.9c-0.6,1-1,2-1.3,2.9c-0.3,0.9-0.3,1.7-0.2,2.4c0.1,0.7,0.6,1.1,1.3,1.3
				c0.5,0.1,0.9,0,1.4-0.4c0.5-0.4,1-1,1.6-1.6c0.6-0.7,1.1-1.5,1.7-2.4c0.6-0.9,1.1-1.8,1.6-2.7c0.1-0.1,0.2-0.4,0.5-0.8
				c0.3-0.4,0.6-0.8,1-1.3c0.4-0.5,0.8-0.9,1.2-1.2c0.4-0.4,0.7-0.6,1-0.7c0.5-0.1,0.9-0.1,1.3,0.1c0.5,0.2,0.9,0.4,1.2,0.8
				c0.3,0.3,0.6,0.7,0.7,1.1c0.2,0.4,0.2,0.8,0,1.1c-0.3,0.8-0.6,1.6-0.8,2.5c-0.2,0.9-0.3,1.8-0.4,2.5c-0.1,0.8,0,1.4,0.1,1.9
				c0.1,0.5,0.4,0.6,0.9,0.5c1.3-0.5,2.3-1.4,3-2.8C379.4,44.8,380.2,43.2,381.2,41.2z"/>
		</g>
	</g>
</g>
<g>
	<path class="st0" d="M12.3,191.5c0,3.7-2,5.2-5.7,5.2H2.7v6c0,0.3-0.2,0.4-0.4,0.4H1.5c-0.3,0-0.4-0.2-0.4-0.4v-16
		c0-0.3,0.2-0.4,0.4-0.4h5.1C10.3,186.3,12.3,187.9,12.3,191.5z M10.7,191.5c0-2.6-1.5-3.7-3.9-3.7H2.7v7.4h4.1
		C9.2,195.2,10.7,194.1,10.7,191.5z"/>
	<path class="st0" d="M22.4,192.4c-0.4,0-1.8,0.1-2.6,0.7v9.6c0,0.3-0.2,0.4-0.4,0.4h-0.7c-0.3,0-0.4-0.2-0.4-0.4v-10.6
		c0-0.2,0.1-0.3,0.3-0.4c1.1-0.5,2.6-0.8,3.8-0.8c1.1,0,2.3,0.1,3.5,0.6c0.2,0.1,0.4,0.2,0.4,0.4l-0.2,0.7c-0.1,0.2-0.2,0.3-0.4,0.3
		c-0.1,0-0.1,0-0.2,0C24.1,192.5,23.3,192.4,22.4,192.4z"/>
	<path class="st0" d="M31.2,197c0-3.7,1.9-6.1,5.9-6.1c4,0,5.9,2.4,5.9,6.1c0,3.9-1.9,6.3-5.9,6.3C33.1,203.3,31.2,200.9,31.2,197z
		 M41.3,197c0-2.1-0.8-4.6-4.3-4.6c-3.4,0-4.3,2.5-4.3,4.6c0,2,0.4,4.8,4.3,4.8S41.3,199,41.3,197z"/>
	<path class="st0" d="M44.8,208.6l0.1-0.8c0.1-0.2,0.2-0.3,0.4-0.3c0.5,0.1,1.4,0.2,1.5,0.2c3.1,0,3.2-2.9,3.2-4.4v-11.7
		c0-0.3,0.2-0.4,0.4-0.4h0.7c0.3,0,0.4,0.2,0.4,0.4V203c0,4-0.8,6.2-4.6,6.2c-0.5,0-1.2,0-1.8-0.1C44.9,209,44.8,208.9,44.8,208.6z
		 M50.7,188.3c0.5,0,1,0.4,1,1s-0.4,1-1,1c-0.5,0-1-0.4-1-1S50.2,188.3,50.7,188.3z"/>
	<path class="st0" d="M64.4,203.3c-4,0-5.9-2.4-5.9-6.3c0-3.7,1.7-6.1,5.6-6.1c3.1,0,4.8,1.1,4.8,3.7c0,2.9-2,3.7-4.4,3.7
		c-0.9,0-2.4-0.1-4.3-1c0,2.7,1.8,4.4,4.4,4.4c0.8,0,2.1-0.2,3.4-0.7c0.1,0,0.1,0,0.2,0c0.2,0,0.4,0.1,0.4,0.3l0.2,0.8
		c0,0.2-0.1,0.4-0.4,0.4C67.2,203.1,65.6,203.3,64.4,203.3z M60.1,195.9c0.9,0.6,2.9,1,3.7,1c2.3,0,3.4-0.4,3.4-2.1
		c0-2.2-1.5-2.3-3.2-2.3C62.2,192.4,60.7,193.1,60.1,195.9z"/>
	<path class="st0" d="M83.7,201.7c0.2,0,0.3,0.1,0.4,0.3l0.2,0.8c0,0.2-0.1,0.4-0.4,0.4c-0.5,0.1-1.3,0.1-1.7,0.1
		c-3.8,0-4.7-2.6-4.7-6.5v-4.3h-2.2c-0.3,0-0.4-0.2-0.4-0.4v-0.6c0-0.3,0.2-0.4,0.4-0.4h2.2l0.3-4.4c0-0.3,0.2-0.4,0.4-0.4h0.5
		c0.3,0,0.4,0.2,0.4,0.4v4.4h3.9c0.3,0,0.4,0.2,0.4,0.4v0.6c0,0.3-0.2,0.4-0.4,0.4h-3.9v5.1c0,1.5,0.1,4.1,3.6,4.1
		c0.2,0,0.5,0,0.7-0.1C83.6,201.7,83.6,201.7,83.7,201.7z"/>
	<path class="st0" d="M90.1,197c0-3.7,1.9-6.1,5.9-6.1c4,0,5.9,2.4,5.9,6.1c0,3.9-1.9,6.3-5.9,6.3C92,203.3,90.1,200.9,90.1,197z
		 M100.2,197c0-2.1-0.8-4.6-4.3-4.6c-3.4,0-4.3,2.5-4.3,4.6c0,2,0.4,4.8,4.3,4.8S100.2,199,100.2,197z"/>
	<path class="st0" d="M108.8,202.2l0.2-0.8c0.1-0.2,0.2-0.3,0.4-0.3c1.2,0.5,2.9,0.7,3.6,0.7c1.1,0,3.4,0,3.4-1.8c0-3.2-8-1-8-5.9
		c0-2,1.2-3.2,4.9-3.2c0.4,0,1.9,0.1,3,0.3c0.2,0.1,0.4,0.2,0.4,0.4v0.6c-0.1,0.2-0.2,0.3-0.4,0.3c-1,0-1.8-0.2-2.7-0.2
		c-2.2,0-3.6,0.3-3.6,1.7c0,3.2,8,1.4,8,5.8c0,2.2-1.5,3.4-4.9,3.4c-0.6,0-2.6-0.1-3.8-0.6C108.9,202.6,108.8,202.5,108.8,202.2z"/>
	<path class="st0" d="M139.2,203.3c-4,0-5.9-2.4-5.9-6.3c0-3.7,1.7-6.1,5.6-6.1c3.1,0,4.8,1.1,4.8,3.7c0,2.9-2,3.7-4.4,3.7
		c-0.9,0-2.4-0.1-4.3-1c0,2.7,1.8,4.4,4.4,4.4c0.8,0,2.1-0.2,3.4-0.7c0.1,0,0.1,0,0.2,0c0.2,0,0.4,0.1,0.4,0.3l0.2,0.8
		c0,0.2-0.1,0.4-0.4,0.4C141.9,203.1,140.4,203.3,139.2,203.3z M134.9,195.9c0.9,0.6,2.9,1,3.7,1c2.3,0,3.4-0.4,3.4-2.1
		c0-2.2-1.5-2.3-3.2-2.3C136.9,192.4,135.4,193.1,134.9,195.9z"/>
	<path class="st0" d="M150.5,202.2l0.2-0.8c0.1-0.2,0.2-0.3,0.4-0.3c1.2,0.5,2.9,0.7,3.6,0.7c1.1,0,3.4,0,3.4-1.8c0-3.2-8-1-8-5.9
		c0-2,1.2-3.2,4.9-3.2c0.4,0,1.9,0.1,3,0.3c0.2,0.1,0.4,0.2,0.4,0.4v0.6c-0.1,0.2-0.2,0.3-0.4,0.3c-1,0-1.8-0.2-2.7-0.2
		c-2.2,0-3.6,0.3-3.6,1.7c0,3.2,8,1.4,8,5.8c0,2.2-1.5,3.4-4.9,3.4c-0.6,0-2.6-0.1-3.8-0.6C150.7,202.6,150.5,202.5,150.5,202.2z"/>
	<path class="st0" d="M166.3,192c0-0.2,0.1-0.3,0.3-0.4c1.7-0.6,3.5-0.6,4.5-0.6c4.2,0,6,2.3,6,6.2s-2,6.2-6,6.2
		c-0.4,0-1.3,0-3.2-0.2v5.5c0,0.3-0.2,0.4-0.4,0.4h-0.7c-0.3,0-0.4-0.2-0.4-0.4V192z M167.9,192.9v8.7c1.6,0.2,2.5,0.2,2.9,0.2
		c2.3,0,4.6-0.4,4.6-4.7c0-3.5-1.4-4.7-4.3-4.7C170.1,192.4,168.6,192.5,167.9,192.9z"/>
	<path class="st0" d="M189.4,203.3c-4,0-5.9-2.4-5.9-6.3c0-3.7,1.7-6.1,5.6-6.1c3.1,0,4.8,1.1,4.8,3.7c0,2.9-2,3.7-4.4,3.7
		c-0.9,0-2.4-0.1-4.3-1c0,2.7,1.8,4.4,4.4,4.4c0.8,0,2.1-0.2,3.4-0.7c0.1,0,0.1,0,0.2,0c0.2,0,0.4,0.1,0.4,0.3l0.2,0.8
		c0,0.2-0.1,0.4-0.4,0.4C192.1,203.1,190.6,203.3,189.4,203.3z M185.1,195.9c0.9,0.6,2.9,1,3.7,1c2.3,0,3.4-0.4,3.4-2.1
		c0-2.2-1.5-2.3-3.2-2.3C187.1,192.4,185.6,193.1,185.1,195.9z"/>
	<path class="st0" d="M206.5,203.3c-4,0-6.1-2.3-6.1-6.2c0-4,2.1-6.2,6.1-6.2c1.1,0,2.5,0.1,3.8,0.6c0.2,0.1,0.4,0.2,0.4,0.4
		l-0.2,0.7c-0.1,0.2-0.2,0.3-0.4,0.3c-0.1,0-0.1,0-0.2,0c-1.2-0.5-2.3-0.6-3.1-0.6c-3,0-4.8,1.1-4.8,4.7c0,3.6,2,4.7,4.8,4.7
		c0.8,0,1.9-0.2,3.1-0.7c0.1,0,0.1,0,0.2,0c0.2,0,0.4,0.1,0.4,0.3l0.2,0.8c0,0.2-0.1,0.4-0.4,0.4
		C209.1,203.1,207.6,203.3,206.5,203.3z"/>
	<path class="st0" d="M218.4,188.3c0.5,0,1,0.4,1,1s-0.4,1-1,1s-1-0.4-1-1S217.8,188.3,218.4,188.3z M219.2,202.7
		c0,0.3-0.2,0.4-0.4,0.4H218c-0.3,0-0.4-0.2-0.4-0.4v-11.1c0-0.3,0.2-0.4,0.4-0.4h0.7c0.3,0,0.4,0.2,0.4,0.4V202.7z"/>
	<path class="st0" d="M234.6,202c-1.2,1.2-3.4,1.3-3.8,1.3c-3,0-5-1.9-5-5.8c0-4.4,3.1-6.6,7.2-6.6c1.1,0,1.8,0.1,2.9,0.4
		c0.2,0.1,0.3,0.2,0.3,0.4v11c0,0.3-0.2,0.4-0.4,0.4h-0.5c-0.3,0-0.4-0.1-0.4-0.4L234.6,202z M234.6,192.6c-0.7-0.1-1.3-0.1-1.9-0.1
		c-3.5,0-5.3,1.9-5.3,5.1c0,3.8,1.9,4.3,3.7,4.3c1.7,0,3.5-1.5,3.5-1.5V192.6z"/>
	<path class="st0" d="M244.4,188.3c0.5,0,1,0.4,1,1s-0.4,1-1,1s-1-0.4-1-1S243.9,188.3,244.4,188.3z M245.2,202.7
		c0,0.3-0.2,0.4-0.4,0.4h-0.7c-0.3,0-0.4-0.2-0.4-0.4v-11.1c0-0.3,0.2-0.4,0.4-0.4h0.7c0.3,0,0.4,0.2,0.4,0.4V202.7z"/>
	<path class="st0" d="M252.7,202.2l0.2-0.8c0.1-0.2,0.2-0.3,0.4-0.3c1.2,0.5,2.9,0.7,3.6,0.7c1.1,0,3.4,0,3.4-1.8c0-3.2-8-1-8-5.9
		c0-2,1.2-3.2,4.9-3.2c0.4,0,1.9,0.1,3,0.3c0.2,0.1,0.4,0.2,0.4,0.4v0.6c-0.1,0.2-0.2,0.3-0.4,0.3c-1,0-1.8-0.2-2.7-0.2
		c-2.2,0-3.6,0.3-3.6,1.7c0,3.2,8,1.4,8,5.8c0,2.2-1.5,3.4-4.9,3.4c-0.6,0-2.6-0.1-3.8-0.6C252.8,202.6,252.7,202.5,252.7,202.2z"/>
	<path class="st0" d="M283.2,203.3c-4,0-6-2.5-6-6.4s2.1-6,5.2-6c0.3,0,2.2,0,4.1,1v-5.3c0-0.3,0.2-0.4,0.4-0.4h0.7
		c0.3,0,0.4,0.2,0.4,0.4v15.2c0,0.2-0.1,0.3-0.3,0.4C286.3,203,284.5,203.3,283.2,203.3z M283.2,201.8c0.3,0,1.9,0,3.3-0.7v-7.4
		c-1.2-1-3.1-1.2-3.5-1.2c-2.5,0-4.2,0.8-4.2,4.5C278.8,200.4,280.3,201.8,283.2,201.8z"/>
	<path class="st0" d="M301,203.3c-4,0-5.9-2.4-5.9-6.3c0-3.7,1.7-6.1,5.6-6.1c3.1,0,4.8,1.1,4.8,3.7c0,2.9-2,3.7-4.4,3.7
		c-0.9,0-2.4-0.1-4.3-1c0,2.7,1.8,4.4,4.4,4.4c0.8,0,2.1-0.2,3.4-0.7c0.1,0,0.1,0,0.2,0c0.2,0,0.4,0.1,0.4,0.3l0.2,0.8
		c0,0.2-0.1,0.4-0.4,0.4C303.7,203.1,302.2,203.3,301,203.3z M296.7,195.9c0.9,0.6,2.9,1,3.7,1c2.3,0,3.4-0.4,3.4-2.1
		c0-2.2-1.5-2.3-3.2-2.3C298.7,192.4,297.2,193.1,296.7,195.9z"/>
	<path class="st0" d="M327.3,203.3c-4,0-6.1-2.3-6.1-6.2c0-4,2.1-6.2,6.1-6.2c1.1,0,2.5,0.1,3.8,0.6c0.2,0.1,0.4,0.2,0.4,0.4
		l-0.2,0.7c-0.1,0.2-0.2,0.3-0.4,0.3c-0.1,0-0.1,0-0.2,0c-1.2-0.5-2.3-0.6-3.1-0.6c-3,0-4.8,1.1-4.8,4.7c0,3.6,2,4.7,4.8,4.7
		c0.8,0,1.9-0.2,3.1-0.7c0.1,0,0.1,0,0.2,0c0.2,0,0.4,0.1,0.4,0.3l0.2,0.8c0,0.2-0.1,0.4-0.4,0.4
		C329.8,203.1,328.3,203.3,327.3,203.3z"/>
	<path class="st0" d="M337.7,197c0-3.7,1.9-6.1,5.9-6.1s5.9,2.4,5.9,6.1c0,3.9-1.9,6.3-5.9,6.3S337.7,200.9,337.7,197z M347.8,197
		c0-2.1-0.8-4.6-4.3-4.6s-4.2,2.5-4.2,4.6c0,2,0.4,4.8,4.2,4.8S347.8,199,347.8,197z"/>
	<path class="st0" d="M371.1,196.5c0-3.9-0.7-4.1-2.8-4.1c-1,0-2.6,0.8-3.1,1.8c0.2,0.8,0.2,1.5,0.2,2.3v6.2c0,0.3-0.2,0.4-0.4,0.4
		h-0.7c-0.3,0-0.4-0.2-0.4-0.4v-5.8c0-3.7-0.3-4.5-3.3-4.5c-0.8,0-1.7,0.1-2.5,0.6v9.7c0,0.3-0.2,0.4-0.4,0.4h-0.7
		c-0.3,0-0.4-0.2-0.4-0.4V192c0-0.2,0.1-0.3,0.3-0.4c1.4-0.5,2.7-0.6,3.8-0.7c1.8,0,2.9,0.1,4.5,1.7c1.4-1.7,2.8-1.7,4-1.7
		c2.9,0,3.8,2,3.8,4.9v6.8c0,0.3-0.2,0.4-0.4,0.4h-0.7c-0.3,0-0.4-0.2-0.4-0.4V196.5z"/>
	<path class="st0" d="M381.2,197.4c0,3.8,0.7,4.4,3.8,4.4c0.5,0,1.9,0,3.2-1v-9.3c0-0.3,0.2-0.4,0.4-0.4h0.7c0.3,0,0.4,0.2,0.4,0.4
		v10c0,0.1,0,0.3-0.2,0.4c-1.7,1.2-3.7,1.4-4.5,1.4c-3.9,0-5.5-1.2-5.5-5.1v-6.7c0-0.3,0.2-0.4,0.4-0.4h0.7c0.3,0,0.4,0.2,0.4,0.4
		V197.4z"/>
	<path class="st0" d="M397.2,192c0-0.2,0.1-0.3,0.3-0.4c1.5-0.4,3.3-0.6,4.5-0.6c4,0,5.4,1.8,5.4,5.6v6.1c0,0.3-0.2,0.4-0.4,0.4
		h-0.7c-0.3,0-0.4-0.2-0.4-0.4V198c0-3.5-0.4-5.5-3.6-5.5c-0.4,0-2.7,0.1-3.4,0.6v9.7c0,0.3-0.2,0.4-0.4,0.4h-0.7
		c-0.3,0-0.4-0.2-0.4-0.4V192z"/>
	<path class="st0" d="M415.4,188.3c0.5,0,1,0.4,1,1s-0.4,1-1,1s-1-0.4-1-1S414.8,188.3,415.4,188.3z M416.2,202.7
		c0,0.3-0.2,0.4-0.4,0.4H415c-0.3,0-0.4-0.2-0.4-0.4v-11.1c0-0.3,0.2-0.4,0.4-0.4h0.7c0.3,0,0.4,0.2,0.4,0.4V202.7z"/>
	<path class="st0" d="M429.2,203.3c-4,0-6.1-2.3-6.1-6.2c0-4,2.1-6.2,6.1-6.2c1.1,0,2.5,0.1,3.8,0.6c0.2,0.1,0.4,0.2,0.4,0.4
		l-0.2,0.7c-0.1,0.2-0.2,0.3-0.4,0.3c-0.1,0-0.1,0-0.2,0c-1.2-0.5-2.3-0.6-3.1-0.6c-3,0-4.8,1.1-4.8,4.7c0,3.6,2,4.7,4.8,4.7
		c0.8,0,1.9-0.2,3.1-0.7c0.1,0,0.1,0,0.2,0c0.2,0,0.4,0.1,0.4,0.3l0.2,0.8c0,0.2-0.1,0.4-0.4,0.4
		C431.8,203.1,430.3,203.3,429.2,203.3z"/>
	<path class="st0" d="M448.1,202c-1.2,1.2-3.4,1.3-3.8,1.3c-3,0-5-1.9-5-5.8c0-4.4,3.1-6.6,7.2-6.6c1.1,0,1.8,0.1,2.9,0.4
		c0.2,0.1,0.3,0.2,0.3,0.4v11c0,0.3-0.2,0.4-0.4,0.4h-0.5c-0.3,0-0.4-0.1-0.4-0.4L448.1,202z M448.1,192.6c-0.7-0.1-1.3-0.1-1.9-0.1
		c-3.5,0-5.3,1.9-5.3,5.1c0,3.8,1.9,4.3,3.7,4.3c1.7,0,3.5-1.5,3.5-1.5V192.6z"/>
	<path class="st0" d="M463.9,203.2c0.1,0.6,0.1,1.1,0.1,1.3c0,2.3-1.2,3.2-2.8,3.2c-1,0-2-0.1-2-0.1v-0.7c0-0.5,0.1-0.6,0.5-0.6
		c0.2,0,0.6,0.1,0.8,0.1c1.5,0,1.9-0.4,1.9-1.6c0-0.5,0-1-0.1-1.5c-3.7-0.1-5.6-2.4-5.6-6.2c0-4,2.1-6.2,6.1-6.2
		c1.1,0,2.5,0.1,3.8,0.6c0.2,0.1,0.4,0.2,0.4,0.4l-0.2,0.7c-0.1,0.2-0.2,0.3-0.4,0.3c-0.1,0-0.1,0-0.2,0c-1.2-0.5-2.3-0.6-3.1-0.6
		c-3,0-4.8,1.1-4.8,4.7c0,3.6,2,4.7,4.8,4.7c0.8,0,1.9-0.2,3.1-0.7c0.1,0,0.1,0,0.2,0c0.2,0,0.4,0.1,0.4,0.3l0.2,0.8
		c0,0.2-0.1,0.4-0.4,0.4C465.7,203,464.8,203.1,463.9,203.2z"/>
	<path class="st0" d="M481.7,202c-1.2,1.2-3.4,1.3-3.8,1.3c-3,0-5-1.9-5-5.8c0-4.4,3.1-6.6,7.2-6.6c1.1,0,1.8,0.1,2.9,0.4
		c0.2,0.1,0.3,0.2,0.3,0.4v11c0,0.3-0.2,0.4-0.4,0.4h-0.5c-0.3,0-0.4-0.1-0.4-0.4L481.7,202z M476.6,187.8c-0.3,0-0.8,0-1.1,0.2
		c-0.2,0.1-0.2,0.1-0.4,0.1c-0.1,0-0.2,0-0.3-0.1l-0.3-0.5c0,0-0.1-0.1-0.1-0.2c0-0.1,0-0.2,0.1-0.3c0.7-0.4,1.5-0.6,2-0.6
		c1.5,0,2.9,1,4.5,1c0.3,0,0.8,0,1.1-0.2c0.2-0.1,0.2-0.1,0.4-0.1s0.2,0,0.3,0.1l0.3,0.5c0,0,0.1,0.1,0.1,0.2c0,0.1,0,0.2-0.1,0.3
		c-0.7,0.4-1.5,0.6-2,0.6C479.5,188.8,478.2,187.8,476.6,187.8z M481.7,192.6c-0.7-0.1-1.3-0.1-1.9-0.1c-3.5,0-5.3,1.9-5.3,5.1
		c0,3.8,1.9,4.3,3.7,4.3c1.7,0,3.5-1.5,3.5-1.5V192.6z"/>
	<path class="st0" d="M490.3,197c0-3.7,1.9-6.1,5.9-6.1s5.9,2.4,5.9,6.1c0,3.9-1.9,6.3-5.9,6.3S490.3,200.9,490.3,197z M500.4,197
		c0-2.1-0.8-4.6-4.3-4.6s-4.3,2.5-4.3,4.6c0,2,0.4,4.8,4.3,4.8C500,201.8,500.4,199,500.4,197z"/>
</g>
</svg>
